<mxfile host="Electron" modified="2024-06-20T14:10:06.073Z" agent="Mozilla/5.0 (X11; Linux x86_64) AppleWebKit/537.36 (KHTML, like Gecko) draw.io/24.5.3 Chrome/124.0.6367.207 Electron/30.0.6 Safari/537.36" etag="XDunBgdxNZXb2OnfiI1D" version="24.5.3" type="device">
  <diagram name="Page-1" id="ewVC_jI7BlWbRrKjsvzl">
    <mxGraphModel dx="1434" dy="905" grid="1" gridSize="10" guides="1" tooltips="1" connect="1" arrows="1" fold="1" page="1" pageScale="1" pageWidth="827" pageHeight="1169" math="0" shadow="0">
      <root>
        <mxCell id="0" />
        <mxCell id="1" parent="0" />
        <mxCell id="qD__XIF-DntQzB1fXjrY-2" value="" style="rounded=0;whiteSpace=wrap;html=1;" vertex="1" parent="1">
          <mxGeometry x="40" y="40" width="930" height="540" as="geometry" />
        </mxCell>
        <mxCell id="qD__XIF-DntQzB1fXjrY-3" value="Big Picture - Integrated Compliance Toolchain" style="text;html=1;align=center;verticalAlign=middle;whiteSpace=wrap;rounded=0;fontSize=16;fontStyle=1" vertex="1" parent="1">
          <mxGeometry x="40" y="40" width="370" height="50" as="geometry" />
        </mxCell>
        <mxCell id="qD__XIF-DntQzB1fXjrY-6" value="" style="shape=image;aspect=fixed;image=data:image/png,iVBORw0KGgoAAAANSUhEUgAABLAAAAItCAYAAAApCYNoAAAAAXNSR0IArs4c6QAAIABJREFUeF7s3XecXGXd9/HPdWZ2Nz2Emy6IoICIYhcroDwgioCoARVDSbIbiiAIIigaQAQrxQLJJqFbc6tIsYtYUEARuBVUQKQjIAHSsztzrofZoFISsmXKOXM+88/z3C/O9bu+v/c15EV+njkn4EcBBRRQQIE2FIiH0cUiRjOa8Iz2qpSW9/POUSV2SQO7JYExdSRI05TbUvhWf4UfjB7N31ZZO9DPQywL86nWcW9LKaCAAgoooIACCijQlgLP/I/6tmzTphRQQAEF2lUgHslolrApgXFP7rG/wvtLgelJwvgM9l6tpFwdAl8qJdz+n3yRdFnKg2Pmck8GMxtJAQUUUEABBRRQQIGWCTjAahm9GyuggAIKDFVg5kyS4+/m9eUyGxJX3lmVRjYNCd0BthhqvcxdH+mL8MMAX/93tmokXfgYP117Po9lLq+BFFBAAQUUUEABBRRokoADrCZBu40CCiigwNAFYg8dlSo7lRNePrA6kKSRDySwFWEVPw0c+haZXxEj1QhfSeCBJwweXgE/H9XL3zMf3oAKKKCAAgoooIACCtRJwAFWnSAto4ACCihQH4HYzatTeG/tp39pSkcC2xHYuj7V818lwmMBfkfg7lo31SrXlOcyL/+d2YECCiiggAIKKKCAAqsXcIDlt0MBBRRQoKUCv9iR8hu3GLjL6piBIJH1WflzwM6WBsvJ5jHyQEi4qRY3jfxtxTI+M+ZC7spJfGMqoIACCiiggAIKKDAoAQdYg2LyIgUUUECBegv0TeNDHSWOGHiWVWAssE699yhgvRXAv4D+GLk+lDgszOLeAjrYsgIKKKCAAgoooECbCTjAarMDtR0FFFAgiwJxJgk3E6oT2TcJfC6Egbus/DRJoFLlz+WFvGxgu/mkoXafmx8FFFBAAQUUUEABBXIk4AArR4dlVAUUUCBPAg9OZty6E9iAhHFVOLsUeG2e8rdj1hhZXE05o1zmAgKPsT7/CieStmOv9qSAAgoooIACCijQXgIOsNrrPO1GAQUUaLlA7GZLYLNKyuvLJT4KdLU8lAGeIRAjPwyBXgJLwmx+KpECCiiggAIKKKCAAlkWcICV5dMxmwIKKJATgXgAoyoldiwnbA68k8DOOYluTKgQ+RCwtA9+3zVn5QPh/SiggAIKKKCAAgookCUBB1hZOg2zKKCAAjkUiDP4PJHRwC5PvD0wh10YuTbAipGrQsKNwLlhNjerooACCiiggAIKKKBAVgQcYGXlJMyhgAIK5EggTqaTtfgECdsQ2StH0Y06GIHI1STcv2IJx4y6iNsGs8RrFFBAAQUUUEABBRRopIADrEbqWlsBBRRoM4ElU9loVIkjk8Bba8+5Asa1WYu28ySBCLcG+Fc15bTyXP5XHAUUUEABBRRQQAEFWiXgAKtV8u6rgAIK5EggHsno6mLmlQJ7Ap1AOUfxjToygQj0Rbg/TZlZnssFIyvnagUUUEABBRRQQAEFhi7gAGvoZq5QQAEFCiFQG1qxhLGVKvPKJfYoRNM2uUaBNLIggX1YwfXhAh5e4wIvUEABBRRQQAEFFFCgDgIOsOqAaAkFFFCgnQT+OYWxk0bxvASmlQLTAkxop/7spT4Caco9CUwmcn+Yx531qWoVBRRQQAEFFFBAAQVWLeAAy2+GAgoooMCAQJxJwl08Ly2zT4ApIbC1NAqsQSCNkR+FhC+zgqvDeTyqmAIKKKCAAgoooIACjRBwgNUIVWsqoIACORSIPZxAZFuCbxXM4fG1OvK9aeT7Scr5YR7XtjqM+yuggAIKKKCAAgq0n4ADrPY7UztSQAEFhiQQZ/AZYH0iBwxpoRcr8EyBa4C/UubYcBb/FEgBBRRQQAEFFFBAgXoJOMCql6R1FFBAgZwJLJ/KHp3lgWdc7QyMzll842Zb4A/VlLvKc3l3tmOaTgEFFFBAAQUUUCAvAg6w8nJS5lRAAQXqJBAhMIMZpJxKGHhAe1Kn0pZR4MkCVeDGhVV2njiPBdIooIACCiiggAIKKDASAQdYI9FzrQIKKJAjgYGHtN/HKwk+oyhHx9YuUc/nEXqYT3+A2C5N2YcCCiiggAIKKKBA8wQcYDXP2p0UUECBlgnEbrZckfLmrhKzWhbCjYstELkK+Azj+Hk4nWXFxrB7BRRQQAEFFFBAgaEKOMAaqpjXK6CAAjkSiFMZTyevJOViYGKOohu1fQWO7ov8qGsON7Vvi3amgAIKKKCAAgooUG8BB1j1FrWeAgookBGBOIPXpSl7JmHg7YLrZySWMRSgmnJlKeHboZez5VBAAQUUUEABBRRQYDACDrAGo+Q1CiigQI4EBp519QCvo8ppBF6To+hGLZZAH3DiwiqzfMh7sQ7ebhVQQAEFFFBAgeEIOMAajpprFFBAgYwKLNyP/xk3it4AWwAvyWhMYynwb4HFMXJtSLgozOZcWRRQQAEFFFBAAQUUWJ2AAyy/GwoooEAbCaQ93BLg+UDSRm3ZSvsLPEzg0DCbb7V/q3aogAIKKKCAAgooMBwBB1jDUXONAgookDGBZVPYbNRo/g8Yl7FoxlFgsAKVNHLKwx18fr2zWDzYRV6ngAIKKKCAAgooUAwBB1jFOGe7VECBNhWIPUysRs4vBd4BlNq0TdsqkkAkUmHTcC53F6lte1VAAQUUUEABBRR4dgEHWH5DFFBAgZwKxIN4DilfAt6V0xaMrcDqBRK2C7O4ViIFFFBAAQUUUEABBWoCDrD8HiiggAI5E4iTKbE2W5FyPIH35Sy+cRUYrMC/SJmxNOXqsedw32AXeZ0CCiiggAIKKKBAewo4wGrPc7UrBRRoU4E4k3J6Lx8MgbeHwM5t2qZtKTAgECMLIlyelJgdZnGVLAoooIACCiiggALFFXCAVdyzt3MFFMihQOzhG0R2JbBWDuMbWYGhC0RiDNwQ4ODQyzVDL+AKBRRQQAEFFFBAgXYQcIDVDqdoDwooUAiB2MNlwG6FaNYmFXimwK3AHqGXv4qjgAIKKKCAAgooUDwBB1jFO3M7VkCBHArEGVxK5O1AksP4RlagXgKPAJuFXh6rV0HrKKCAAgoooIACCuRDwAFWPs7JlAooUFCBOJNO7ud84L0FJbBtBZ4pUGZ8OIvF0iiggAIKKKCAAgoUR8ABVnHO2k4VUCBnAo9NY+0JCZ8mcFDOohtXgUYLLKLK6/k7fw1XUmn0ZtZXQAEFFFBAAQUUaL2AA6zWn4EJFFBAgWcILJ7O+qMTjk/gg/IooMAqBe6qVjmktJArwnyWaaSAAgoooIACCijQ3gIOsNr7fO1OAQVyKBAPZN20zKeTQHcO4xtZgaYJRLg1hRMWlLlkPX9S2DR3N1JAAQUUUEABBVoh4ACrFeruqYACCqxGIO7LBMbSC+wjkgIKDErg1ip8+l/L+N8NLmTJoFZ4kQIKKKCAAgoooEDuBBxg5e7IDKyAAu0q8M8pjF1/NN8FdmnXHu1LgYYIRO6sBj5SgotDL/0N2cOiCiiggAIKKKCAAi0VcIDVUn43V0ABBVYK/GJHyjtsyeUBdgb8s9kvhgJDF3ioEnlnxxx+O/SlrlBAAQUUUEABBRTIuoB/Scr6CZlPAQUKIRC7uZjAnoVo1iYVaJRAJD7az9qTzuPRRm1hXQUUUEABBRRQQIHWCDjAao27uyqggAIDAk888+p0YKokCihQF4FIwiZhFvfWpZpFFFBAAQUUUEABBTIh4AArE8dgCAUUKKJA7GGdx/s+ATi0iP3bswINE4jcB+wW5nBDw/awsAIKKKCAAgoooEBTBRxgNZXbzRRQQIGVAvEA1qKDkwgcpokCCjRE4GZgRujlNw2pblEFFFBAAQUUUECBpgo4wGoqt5spoIACECdTYhKzgOl6KKBAAwUC1wNHhNn8qoG7WFoBBRRQQAEFFFCgCQIOsJqA7BYKKKDAkwWq05mdJPSoooACTRG48Yk7sa5pym5uooACCiiggAIKKNAQAQdYDWG1qAIKKLBqgf4DeX2pzJUh0KGRAgo0RyBGLg5VDg3nDDwby48CCiiggAIKKKBADgUcYOXw0IysgAL5FYg9/A3YMr8dmFyBXApUSNmZufwyQMxlB4ZWQAEFFFBAAQUKLuAAq+BfANtXQIHmCMQpjGU0PwVe15wd3UUBBZ4hUOV5YR53KqOAAgoooIACCiiQPwEHWPk7MxMroEDOBGIPGwKzgd1zFt24CrSfQOTlYQ43tF9jdqSAAgoooIACCrS3gAOs9j5fu1NAgRYL/OMARj23k5kJfBTwz9wWn4fbK/D4Wwkfrd0JGXr5qxoKKKCAAgoooIAC+RHwL1P5OSuTKqBADgX6etiuA74CvCqH8Y2sQDsKVNKUC0tzmdqOzdmTAgoooIACCijQrgIOsNr1ZO1LAQVaLhAPZnMqzCOwY8vDGEABBZ4s8BAJHw+zmCOLAgoooIACCiigQD4EHGDl45xMqYACOROIB7AWHfyYwGtyFt24ChRF4AEiHwtzOKcoDdunAgoooIACCiiQZwEHWHk+PbMroEBmBeJUtqLsM3Yye0AGUwBIU761Ao4eM5d7BFFAAQUUUEABBRTItoADrGyfj+kUUCCHAnEyJSZRyWF0IytQPIHAdGZzToBYvObtWAEFFFBAAQUUyI+AA6z8nJVJFVAgBwJxMqNZi4cIjM1BXCMqoEBNIPIuHuWSMJ+qIAoooIACCiiggALZFHCAlc1zMZUCCuRUoG8aMzpKfAnozGkLxlagcAIx5bpQ5u1hFg8WrnkbVkABBRRQQAEFciLgACsnB2VMBRTIvkCcwa5E5gLPyX5aEyqgwNMEjg+9fFoVBRRQQAEFFFBAgWwKOMDK5rmYSgEFcibw8L5MWHss3wTelrPoxlVAgScEKn3s0nEePxVEAQUUUEABBRRQIHsCDrCydyYmUkCBHArEbg4CTiKwbg7jG1kBBQYehcWfk15eIoYCCiiggAIKKKBA9gQcYGXvTEykgAI5E4jd7A18xeFVzg7OuAo8U6D2JsJLQy97iqOAAgoooIACCiiQLQEHWNk6D9MooEAOBWI3hzw+vPpqDqMbWQEFnilwK128JHyZFeIooIACCiiggAIKZEfAAVZ2zsIkCiiQM4EIgW52J/D9nEU3rgIKPLvAzxjLHuF0lgmlgAIKKKCAAgookA0BB1jZOAdTKKBADgUW9rDOmMiXSoH35TC+kRVQYHUCkQUpnFSaw5kiKaCAAgoooIACCmRDwAFWNs7BFAookDOB2t1XaQ+HJfgX3JwdnXEVGJxA5KdEPhTm8pfBLfAqBRRQQAEFFFBAgUYKOMBqpK61FVCgbQXiZErpWixOAqPatkkbU6DoApGjwhxOKzqD/SuggAIKKKCAAlkQcICVhVMwgwIK5E4gzuB8IvvlLriBFVBgKAJ/AGaEXv44lEVeq4ACCiiggAIKKFB/AQdY9Te1ogIKFEAg9hAL0KYtKqAA7BV6uVgIBRRQQAEFFFBAgdYKOMBqrb+7K6BADgXiDK4h8pocRjeyAgoMXWAB8IbQy1+HvtQVCiiggAIKKKCAAvUScIBVL0nrKKBAIQTiZDqZxK3AcwvRsE0qoAAEdmA2vw5456VfBwUUUEABBRRQoFUCDrBaJe++CiiQS4HYwxXAm3MZ3tAKKDB8gQoTwjksGn4BVyqggAIKKKCAAgqMRMAB1kj0XKuAAoUSiDN4KZELgZcUqnGbVUABqpH9ynMG/v33o4ACCiiggAIKKNACAQdYLUB3SwUUyKdA7GEOMD2f6U2tgAIjFQi9+N9NI0V0vQIKKKCAAgooMEwB/0NsmHAuU0CBYgnEGexM5HRgm2J1brcKKPAkgU+HXo5XRAEFFFBAAQUUUKD5Ag6wmm/ujgookEOB2MPHgE/nMLqRFVCgfgIPhF42qF85KymggAIKKKCAAgoMVsAB1mClvE4BBQorEGewK5Fzwb+4FvZLYOMK1AQCFVLmhzm8XxAFFFBAAQUUUECB5go4wGqut7spoEAOBWI37yXwjRxGN7ICCtRf4LehlzfUv6wVFVBAAQUUUEABBZ5NwAGW3w8FFFDgWQSW9vDczpTZpYRdhVJAAQWA5ZXIWR1zOEoNBRRQQAEFFFBAgeYJOMBqnrU7KaBADgViN68mcG0OoxtZAQUaJJDCN6+H/V7VS3+DtrCsAgoooIACCiigwNMEHGD5lVBAAQVWIxAPo4s+PkbkkyIpoIAC/xaIkRuqkcM75vJrVRRQQAEFFFBAAQWaI+AAqznO7qKAAjkUiIfyP/TzrxxGN7ICCjRaIHBSmM3MRm9jfQUUUEABBRRQQIGVAg6w/CYooIACqxHom86hHQlfEUgBBRR4ukCMXBciHwxzuVodBRRQQAEFFFBAgcYLOMBqvLE7KKBATgViDw8A6+U0vrEVUKCBAhHSEDkgzOHCBm5jaQUUUEABBRRQQIEnBBxg+VVQQAEFViMQe4jiKKCAAs8icEDo5XyFFFBAAQUUUEABBRov4ACr8cbuoIACORSodvNQElgnh9GNrIACzRRI2T74MPdmiruXAgoooIACChRUwAFWQQ/ethVQ4NkFYg+PAGvppIACCjyrQMKbwyyuVEkBBRRQQAEFFFCgsQIOsBrra3UFFMihQP903lJOuAQYm8P4RlZAgSYKpPCZBD4VelnaxG3dSgEFFFBAAQUUKJyAA6zCHbkNK6DAmgRiD9cBr1jTdf5zBRRQYEAgYeMwi3vVUEABBRRQQAEFFGicgAOsxtlaWQEFcirgACunB2dsBVol0Mdm4TzuaNX27quAAgoooIACChRBwAFWEU7ZHhVQYNAC1R6OCfCxABMHvcgLFVCg2AKRX4c5bF9sBLtXQAEFFFBAAQUaK+AAq7G+VldAgZwJxB6+DUzOWWzjKqBAiwVCL/43VYvPwO0VUEABBRRQoL0F/I+t9j5fu1NAgSEKxBnMJ/KeIS7zcgUUKLiAA6yCfwFsXwEFFFBAAQUaLuAAq+HEbqCAAnkRqExjt6TEaQG2zEtmcyqgQDYEKil/6pjLttlIYwoFFFBAAQUUUKD9BBxgtd+Z2pECCgxTIM7gM0Q+OszlLlNAgWILLA+9jC42gd0roIACCiiggAKNE3CA1ThbKyugQM4EHGDl7MCMq0C2BJbPf4Rxe8+nmq1YplFAAQUUUEABBdpDwAFWe5yjXSigwAgFVkxn647A6SHw1hGWcrkCChRRIFAhcmzo5YtFbN+eFVBAAQUUUECBRgs4wGq0sPUVUCAXAnE6+5FwNjAmF4ENqYACmROIcHPSyzaZC2YgBRRQQAEFFFCgDQQcYLXBIdqCAgqMXCD2MAOYNfJKVlBAgQIL3BwcYBX4+G1dAQUUUEABBRop4ACrkbrWVkCB3Ag4wMrNURlUgSwLOMDK8umYTQEFFFBAAQVyLeAAK9fHZ3gFFKiHQOzh+THlSyHh7fWoZw0FFCimQIz0pSnnludxUDEF7FoBBRRQQAEFFGicgAOsxtlaWQEFciIQp7MzCT/JSVxjKqBAlgUCl4XZ7J7liGZTQAEFFFBAAQXyKOAAK4+nZmYFFKirgAOsunJaTIFiCzjAKvb5270CCiiggAIKNEzAAVbDaC2sgAJ5EXCAlZeTMqcCuRC4nA3ZI5xImou0hlRAAQUUUEABBXIi4AArJwdlTAUUaIxA7GFMmnJkknByY3awqgIKFEzg1mrKEeW5/KBgfduuAgoooIACCijQUAEHWA3ltbgCCmRdIB7CJrHCNQE2zHpW8ymgQPYFYqQaAqeFXo7JfloTKqCAAgoooIAC+RFwgJWfszKpAgo0QCAezOZU+XsDSltSAQWKKhA4M8zmiKK2b98KKKCAAgoooEAjBBxgNULVmgookBsBB1i5OSqDKpAfAQdY+TkrkyqggAIKKKBAbgQcYOXmqAyqgAKNEHCA1QhVaypQcAEHWAX/Ati+AgoooIACCjRCwAFWI1StqYACuRHo6+bVHYFrcxPYoAookH2ByAWUOSKczSPZD2tCBRRQQAEFFFAgHwIOsPJxTqZUQIEGCfRN46yOEgc3qLxlFVCgmAJ3ETkizOF7xWzfrhVQQAEFFFBAgfoLOMCqv6kVFVAgRwLVbh5JAmvlKLJRFVAgDwIrB1hn5iGqGRVQQAEFFFBAgTwIOMDKwymZUQEFGiYQe4gNK25hBRQoroADrOKevZ0roIACCiigQEMEHGA1hNWiCiiQFwEHWHk5KXMqkDMBB1g5OzDjKqCAAgoooEDWBRxgZf2EzKeAAg0VcIDVUF6LK1BcAQdYxT17O1dAAQUUUECBhgg4wGoIq0UVUCAvAg6w8nJS5lQgZwIOsHJ2YMZVQAEFFFBAgawLOMDK+gmZTwEFGirgAKuhvBZXoLgCDrCKe/Z2roACCiiggAINEXCA1RBWiyqgQF4EHGDl5aTMqUDOBCIz6edz4TyW5yy5cRVQQAEFFFBAgUwKOMDK5LEYSgEFmiGwdF82Hj2Wu5uxl3sooECxBNKUb61IOGZML3cVq3O7VUABBRRQQAEFGiPgAKsxrlZVQIEcCCybygGjypybg6hGVECBnAnEyJ8qVaZ2nsMfchbduAoooIACCiigQCYFHGBl8lgMpYACzRCoTOOrpRKHNGMv91BAgWIJxMjSENgr9PKTYnVutwoooIACCiigQGMEHGA1xtWqCiiQA4H+6fylnPDCHEQ1ogIK5EwgAgHeEXq5PGfRjauAAgoooIACCmRSwAFWJo/FUAoo0AyBajfLk0BXM/ZyDwUUKKBAZPcwh8sK2LktK6CAAgoooIACdRdwgFV3UgsqoEBeBHwDYV5OypwK5FTAAVZOD87YCiiggAIKKJBFAQdYWTwVMymgQFMEHGA1hdlNFCiugAOs4p69nSuggAIKKKBA3QUcYNWd1IIKKJAXAQdYeTkpcyqQUwEHWDk9OGMroIACCiigQBYFHGBl8VTMpIACTRFwgNUUZjdRoLgCDrCKe/Z2roACCiiggAJ1F3CAVXdSCyqgQF4EHGDl5aTMqUBOBRxg5fTgjK2AAgoooIACWRRwgJXFUzGTAgo0RcABVlOY3USB4go4wCru2du5AgoooIACCtRdwAFW3UktqIACeRFwgJWXkzKnAjkVcICV04MztgIKKKCAAgpkUcABVhZPxUwKKNAUgUo3S0qBMU3ZzE0UUKB4Ag6winfmdqyAAgoooIACDRNwgNUwWgsroEDWBfqnc3054WVZz2k+BRTIoUAkEtg99HJ5DtMbWQEFFFBAAQUUyJyAA6zMHYmBFFCgWQL90zm9nHBEs/ZzHwUUKI5AGlmURt7dMZefFqdrO1VAAQUUUEABBRon4ACrcbZWVkCBjAusOJB9Ojv4ZsZjGk8BBXIoUE25Lo10d87j+hzGN7ICCiiggAIKKJA5AQdYmTsSAymgQLMEFr6PdcaP56Fm7ec+CihQHIFq5Gt9kWPHzOWe4nRtpwoooIACCiigQOMEHGA1ztbKCiiQAwHfRJiDQzKiAvkUOA74YuilP5/xTa2AAgoooIACCmRLwAFWts7DNAoo0GQBB1hNBnc7BYoiEDkizOHMorRrnwoooIACCiigQKMFHGA1Wtj6CiiQaQEHWJk+HsMpkF8BB1j5PTuTK6CAAgoooEAmBRxgZfJYDKWAAs0ScIDVLGn3UaBgAg6wCnbgtquAAgoooIACjRZwgNVoYesroECmBRxgZfp4DKdAfgUcYOX37EyugAIKKKCAApkUcICVyWMxlAIKNEvAAVazpN1HgYIJOMAq2IHbrgIKKKCAAgo0WsABVqOFra+AApkViIewCRXuymxAgymgQH4FHGDl9+xMroACCiiggAKZFHCAlcljMZQCCjRSIB5GFyuYQ2ALIq9t5F7WVkCBQgrcSsoRYS4/KGT3Nq2AAgoooIACCjRAwAFWA1AtqYAC2RWI3XyKwPuA5wId2U1qMgUUyLFAL318KJzH8hz3YHQFFFBAAQUUUCBTAg6wMnUchlFAgUYJxG7eTWA+4J97jUK2rgIKrBQInBlmc4QcCiiggAIKKKCAAvUT8C9y9bO0kgIKZEwgHsRziKxD5IaMRTOOAgq0s4ADrHY+XXtTQAEFFFBAgRYJOMBqEbzbKqBA4wTidNYHtqTEBUSe17idrKyAAgqsQsABll8LBRRQQAEFFFCg7gIOsOpOakEFFGiVQDyAUXTxGuADRPYGJrYqi/sqoEBhBfrTlC+W5nJcYQVsXAEFFFBAAQUUaICAA6wGoFpSAQWaKxBrT5zpYSvgYGBHYNvmJnA3BRRQYKVAhD8tr3LwmHlcpYkCCiiggAIKKKBA/QQcYNXP0koKKNAigdjNfAIbAG9sUQS3VUABBf4tcPkJG7LHiSeSSqKAAgoooIACCihQPwEHWPWztJICCjRZIHZzMYFNgFc0eWu3U0ABBVYtELgszGZ3eRRQQAEFFFBAAQXqK+AAq76eVlNAgSYIxB6+AEwDJgBJE7Z0CwUUUGBwAg6wBufkVQoooIACCiigwBAFHGANEczLFVCgNQLxEMaR8nZS5gLjW5PCXRVQQIFnFVhWqXJ2xzyO0kkBBRRQQAEFFFCgvgIOsOrraTUFFKizQDyS0Szm5SQcR+QddS5vOQUUUKCeAjeHXrapZ0FrKaCAAgoooIACCqwUcIDlN0EBBTIpECdTYm3eQuTlwGczGdJQCiigwFMFHGD5jVBAAQUUUEABBRok4ACrQbCWVUCB4QvEGWxPyo4EuoGNh1/JlQoooEBTBW4Kvby4qTu6mQIKKKCAAgooUBABB1gFOWjbVCAPArGbLQl8hMArn7jzKg+xzaiAAgrUBPpJ+ECYxbflUEABBRRQQAEFFKi/gAOs+ptaUQEFhiEQe7gCWAsGfjLoRwEFFMibwHJmMyYEYt6Cm1cBBRRQQAEFFMiDgAOsPJySGRVoY4HYw7eJvIbApm3cpq0poED7CywPvYxu/zbtUAEFFFBAAQUUaI2AA6zWuLurAoUWiDP5oBmSAAAgAElEQVRJuI89CXwB2LzQGDavgAJtIVCpcn3HPF7RFs3YhAIKKKCAAgookEEBB1gZPBQjKdCuAvEARlFmGxIOAaa2a5/2pYACxRMIvb7ZuXinbscKKKCAAgoo0EwBB1jN1HYvBQosELt5GwlbEjmjwAy2roACbSrgAKtND9a2FFBAAQUUUCAzAg6wMnMUBlGgPQXiDN5FZEPgK+3ZoV0poIACXBR6maKDAgoooIACCiigQOMEHGA1ztbKChRaIHbzVhJ2IfJeYKNCY9i8Agq0u8CmoZe72r1J+1NAAQUUUEABBVop4ACrlfrurUAbCsQZbPH4S+RPgIGHGb+wDVu0JQUUUOCpAgkbh1ncK4sCCiiggAIKKKBA4wQcYDXO1soKFE4gdnMcgWnA84BS4QBsWAEFCidQiRxVHsVXw5dZUbjmbVgBBRRQQAEFFGiigAOsJmK7lQLtKhAPZitSriIyAeho1z7tSwEFFHiGQGCHMJtfKaOAAgoooIACCijQWAEHWI31bVn1CIFDGAuMe0aICoHIZiQcTOQDDQ75CJHzgG9Q5V5GkT5lv5SU0SzidJYHHv/hmZ/cCMQexjz+YPZ1gHOAnXIT3KAKKKBA/QQeA94aermmfiWtpIACCiiggAIKKLAqAQdYbfC9iFMZT3nguUOj/tNOoAsGhlNTM97iwoG300V+AvT/J2vCoyzgtjCfvoznL1y8eCSjWczLCbwHOLJwADasgAIK/FfggNDL+YIooIACCiiggAIKNF7AAVbjjeu6Q5xMiUlsT+A5pKw8v8DzgYOB9eq6WWuL/enxHueQ8uh/YpS4wofktvZQYjdTCGwIfLa1SdxdAQUUaK1AhGoIHBBmc1Frk7i7AgoooIACCihQDAEHWBk/54GfAk7nFSS844lhVZnI3sCWGY9e/3iBix7/yeNtA4UjVSI/Yy7X+NPD+lM/vWLsZm8CWwEnNX43d1BAAQWyLxAjV/QHjujq5U/ZT2tCBRRQQAEFFFAg/wIOsDJ4hnE665NwKIFNiQTCwM8DX5vBqK2MVHuW1nXAXwee6BVZTi8HOcyq75HE6WxNwr7AFGCTgfv9/CiggAIK1P40PCnMZqYUCiiggAIKKKCAAs0R8C+jzXFe4y7xYLalylefuHA0kRcSBh7C7mdwAtXHH6T7uycuvZGEL4RZ3DG4pV71dIF4AKPo4j1EPgpsBn4X/ZYooIAC/xaI8LtKlUM753G9KgoooIACCiiggALNEXCA1RznVe4SD2RzOvgxDLzNrfOJN7q1MFHbbF178Hvt2VkVYAlltg9n8c+26a7BjcQengtcPTBAjUxo8HaWV0ABBfIo8HU2ZEo48Wlv1s1jJ2ZWQAEFFFBAAQVyIuAAq0kHNfDw9Y3pZCmbEfkcsFuTtnab/wrcwlheNvB/TqA/nDgw4PJTe6TYZDrZmBJLeBAYJ4oCCiigwKoFIiyrRr7cMWfgDlU/CiiggAIKKKCAAk0ScIDVQOiBB7B3swXQQcIOxP/8RLCBu1p6EAIpceAtel+jyiOcw/1FfXZWnMbaJGxI4Exgp0HYeYkCCihQdIHfhl7eUHQE+1dAAQUUUEABBZot4ACrAeJxOpuR8CISOkmZBazXgG0sWR+Bn5AwiypL2YifFuXnILGHMUR2APYgcFB9KK2igAIKtL3ACuDM0OvdV21/0jaogAIKKKCAApkTcIBVxyOJ09mYhPcAb3r8DXm7D9x55ScvAouInERgEVD7X9fb9rXosXtgcPX/CBwNjMrLAZlTAQUUyIDAA6GXDTKQwwgKKKCAAgoooEDhBBxg1eHIYzf7EngtkecQ2KsOJS3ROoHlA28zDPyZhDPC2dzeuij13Tn2sA6BDxEHhqsvrW91qymggAIFEAhMD7OZV4BObVEBBRRQQAEFFMicgAOsERxJ7OFY4I1PDAM2HkEpl2ZT4HfAAqrsF+axIJsR15wq7kiZLTnsibsCX+ddV2s28woFFFBgVQKhF/+7ya+GAgoooIACCijQIgH/Q2wY8LGbvQmcCDwHGD+MEi7Jl8BtBO6nyifDXK7MU/TYzdsInA4DP3mZmKfsZlVAAQUyJZDyujCXqzOVyTAKKKCAAgoooECBBBxgDeGw4wy2IPJnAgmR8hCWemn+BSJQBe4k8uEwh0uy3NLA2wVL3A8k4Hc1y2dlNgUUyInAMsaFC1mSk7TGVEABBRRQQAEF2k7AAdYajjQeyLp0MAG4FfzpQNv9GzD8hu4jYe/a9yLM4sHhl6nfyoGhVWAMCTfBwHfWjwIKKKBAPQRSXhXmcl09SllDAQUUUEABBRRQYHgCDrBW4xYPZBM6eAHwOeBVw+N1VQEEbiDhg3RwS/gyD7Wi33gYE1jBC4h8isBbgVIrcrinAgoo0KYCN1Fij3Z6qUebnpNtKaCAAgoooECbCzjAetoBx/34H7rYk8CuwOQ2P3/bq4/AMgLnE/k2j3BVmE9ffco+e5U4k4QH2aL2kHng/cDzmrGveyiggAIFE9gr9HJxwXq2XQUUUEABBRRQIHMCDrCedCSxh5lA7W2C0zN3UgbKg8BfiFxOwkVhNjc2MnDsoePx51udRGRbAm9v5F7WVkABBQos8EMqHBnO4W8FNrB1BRRQQAEFFFAgEwIOsIA4la0ocwywvz+/ysT3Mu8hfkfgDjo5KHyZhfVuJnZzBoGNvEOw3rLWU0ABBZ4mEDkqzOE0XRRQQAEFFFBAAQVaL1D4AVbsHnhu0LuArRxetf4L2WYJ/kjKD8Ncjq9HX7GHY4F3Ai8DuupR0xoKKKCAAqsRiPwvHRwWzuKfGimggAIKKKCAAgq0XqCwA6zYzb4EzgDGOwxo/RexjROsAK7hEd4S5lMdTp9xBrsTOQcYB4waTg3XKKCAAgoMXiBGFsTIiaW5fGnwq7xSAQUUUEABBRRQoJEChRtgxWmsTWngjqs5jYS1tgKrEPgKXRwdvkxtqPWsn3gYXfSzDik3ARPXdL3/XAEFFFCgbgIp8L3Qy3vqVtFCCiiggAIKKKCAAiMWKMwAKx7GBPrYjMgNI1azgALDFzgbOJ8ubljVICtOppNJbA4c5csEho/sSgUUUGAEArewIVuHE6kNsvwooIACCiiggAIKZESgEAOseBBvIOVtwHGPv7ktyYi9MYotcBhlzgtnsbjG8PhPVQIzeDGRNxD4GLBJsXnsXgEFFGiJQErkq2EOh7dkdzdVQAEFFFBAAQUUWK1AWw+w4gGMopOdHn/O1RefeEi7XwUFsiMQ+SyB24EfEXgfcWDIukN2AppEAQUUKJZAjPw6mcP2xerabhVQQAEFFFBAgXwItO0AK87gpaQcQeANwBb5OA5TFlBgEXAlsHsBe7dlBRRQIFMC/RVe3XkOf8hUKMMooIACCiiggAIKDAi05QArHsjmdPAd4GWeswIKKKCAAgoosEaBhA+EWXxtjdd5gQIKKKCAAgoooEBLBNpugBW7OYPAu4GNWyLqpgoooIACCiiQK4Fq5OpShT3CuTyUq+CGVUABBRRQQAEFCiTQVgOs2MP9wAYFOj9bVUABBRRQQIGRCiS8Ocwa+Dm3HwUUUEABBRRQQIGMCuR+gBVnUuZ+1gUuA16RUWdjKaCAAgoooED2BJZWobvcy9ezF81ECiiggAIKKKCAAk8WyPUAKx7CBvSzE4EPO7zyi62AAgoooIACQxFII99csYKjx1zAvUNZ57UKKKCAAgoooIACzRfI7QBrYHhV4RRgfyBpPp07KqCAAgoooECOBW4jcHSYzfdz3IPRFVBAAQUUUECBwgjkcoAVD2MCKzgbeH9hTspGFVBAAQUUUKBeAncTODTM5tJ6FbSOAgoooIACCiigQGMFcjfAipHAjIH/4NytsTRWX51ANYUla23FhPed/N9LfnYG/P0q0RRQQAEFFMi6QH81pbc8lw9mPaj5FFBAAQUUUEABBf4rkKsBVpzO+iQDt/pv5yE2T6CvAumbeuh6436EztFEoFoeR3mjLf8TYvF5hzHqmjmU0xXNC+ZOCiiggAIKDF1gwZI+thl3Hv8c+lJXKKCAAgoooIACCrRKIDcDrNjNvsCnCWzaKqwi7ZuGEotecSATp3xhoO1Y7iJ0dAGr/sosv+4yOr59CKVH7y4Sk70qoIACCuRNoIuJ4csszFts8yqggAIKKKCAAkUXyPwAKx7AKDo4gcDhwOiiH1hD++8ax8NxEpNO+SPJ+HWGvtWp28Ed1w593bOsiEmZGCNJrNa1rsUUUEABBQon8BgVNgnnsKhwnduwAgoooIACCijQBgKZHmDFA1iLDj5B4MNtYJ3tFtZ6Duw3F7bZddg507P2Ivm/S6EOw6aUhOr4jejbYieWL1nCWsvvoRSq9P/jj3QEh1nDPiQXKqCAAkUUiCzpT3lLxzx+Hxj4JbwfBRRQQAEFFFBAgZwJZHaA9cSbBo8HPpIz01zGrb5xBmGvU0jGrT3s/H23X0f42kF03POHYdf498K+Sc+n+q7PM/o1e/23Vow8Nnsa45fcSfWWX9NB/4j3sYACCiigQPsLpJELl0U+Mm4uD7R/t3aogAIKKKCAAgq0p0AmB1hxJmXu5/PAEe3Jnr2uKhM2Juw/l9KL3zqicCv+/HO6/voDqj8+jVIyzFITN4TJp8Gr37vKApUHbqfy24so3fxDkjuuHv4+w4znMgUUUECB/AjEyBUBDg9zuCk/qU2qgAIKKKCAAgoo8HSBbA6wZnAukQM8ruYKLHvBznTuP5vSepuNbONKH+nVF1K960YqV85mdOgbdL1Y6qT/zR+mc/Kpa1xTuf1akvv+THL5CbDAh8evEcwLFFBAgaIJBK4kcnjo5U9Fa91+FVBAAQUUUECBdhPI3AArdjOfwHvaDToP/VRiQunYqwibv7YucdNFD5PedxNlqlQfuZ+lFx3J+P4HV1u7mkLpmF9SXXcrSmutP/gMd/yeZafuyGiWDn6NVyqggAIKtLvAH4jsG+ZwS7s3an8KKKCAAgoooEARBDI1wIozmE+k9tCjUhHwM9njR38Lm7+u/tGqFdKFD5LEyrPXXvu5w9o7LriHhUduysRR6bDWu0gBBRRQoK0E7iBhuzCL1f+vJm3Vrs0ooIACCiiggALtL5CJAVacScL9nAdMaX/yDHcYEjjmKqjTHVhN73TRQ3D0ek3f1g0VUEABBTIl0B966cxUIsMooIACCiiggAIKjFig5QOs2MMYAp8kcrR3Xo34PIddII0B9ptL8vr9IcnnDXBx0UMs/9B6jO4YNoMLFVBAAQXyLXA3G7J5OJE13O6b7yZNr4ACCiiggAIKFFGgpQOs2EMHkXcT+CKwUREPIAs9V2Ng6dpb07X/2XRuvX0WIg0rQ/XuP1E6edthrXWRAgoooEC+BWLklkrk/Z1zuS7fnZheAQUUUEABBRRQYFUCrR1gzWALUnoJ7OjxtEYg7RzHiue9iWTnI+jadpfWhKjTrv2z3kvH9d+qUzXLKKCAAgrkRSBGbupPOf7WhfzgxfMZ/Ktv89KgORVQQAEFFFBAAQVo2QAr7ssExjIXmOw5tEhg9ETSd32e9AU7UN5oyxaFqNO23/sY/OjUOhWzjAIKKKBAXgQi/CmNnFwKXBZ6fR1tXs7NnAoooIACCiigwFAFWjfA6uZHBN461MBeXx+BR7s2Zq2D5sGL8n3XVU1j8Y++wthLjiJU/R/d6/PtsIoCCiiQD4EnhlcfKwWucHiVjzMzpQIKKKCAAgooMFyBlgywYjfXEHjNcEO77qkClTSw/EW7M27vk1nxl19R/vEplBbet0qmRX0JYw7/LnGDrSlvmPO7rp7osHrq6yndcTUQ/WoooIACChRH4Jb+Cnvfsoi/+LPB4hy6nSqggAIKKKBAcQWaPsCKPVwLvLq45PXtPI3w6EZvYNLxVxDKnZBWodrHgx9+Mev13T6wWW2ss3zSC0je8wU6t92Z0DEKQlLfIK2sdvLL4e4bWpnAvRWot8BjRPYj8DPgY8DH672B9RTItUDkUfrZkPNYEfxfL3J9lIZXQAEFFFBAAQUGK9DUAVacwWFETgQmDTag1z27QLrRtiQzbyw0U/zUywn3OMAq9JegPZqvzZofJvB/YTY7Pbml2MOXgR6gsz1atQsFRiTwYOhl/RFVcLECCiiggAIKKKBA7gSaNsCKB7I5nZxH5E25U8po4HSDrUlOvDmj6ZoXa8W8A+n6w4Ur7z7zo0A+Bf5B5E5KHBhmcceqWojdnE1gqkOsfB6wqesmcCMV3hTOYVHdKlpIAQUUUEABBRRQIBcCTRlgxYPZiipnALvmQiUHIWs/Hawe+3s6Nn9VDtI2PmL/ByfQ0e/fZxov7Q51FrgXuILI18Icfrym2k/cifXBNV3nP1egTQV+RcoBYS7/aNP+bEsBBRRQQAEFFFDgWQQaPsCK09mMhNOAd3oS9ROovulgSu87E0od9Sua40orLj2Vrstqjwryo0AuBGq3C54M3BJ6+fpQEsceTo6RI0NgzFDWea0CuRWIA49yrD0P7sgwh5ty24fBFVBAAQUUUEABBUYk0NABVoTAwexKle8DTlpGdFT/Xby0P6HrpBspbfziOlVskzJXfhW+4c0pbXKa7dzGMSTcF2bxteE0GSdT6pvI+8qBXZPAvsOp4RoFciMQeSiFixKY5/AqN6dmUAUUUEABBRRQoCECjR1g9fBc4IfAixqSvqBFK3t+htJOhxG6vAHjKV+Baj/89ly4aEZBvxm2nXGBSwnMYQw/C6ezbCRZ40wS7mYDShxL4LCR1HKtAhkW+CeB3alwe5jHggznNJoCCiiggAIKKKBAEwQaNsCKMylzP/cB6zahj8JsUU0hOfRiwsv2zFbPaQXu+T/42elw1/Ww6Sthh4Ng01c192eOtSHWb+bA1w/Nlo9piizwKPBZ4Gw2ZFE4kbReGHEKYxnNl2Dg4e5+FGgvgYT1wywebK+m7EYBBRRQQAEFFFBguAKNG2DN4EQinxxuMNetWmBR5/p0zvg6XS9+S+uI+pdB37KVw6of1B7jM8jPFtvD4T+EkEDHqEEuGt5lS37WS3LpJxhdfZYHu1f7fHPh8HhdNTiBpQSuCrPZZXCXD/+q2MM3gT0eH5SNHn4VVyqQCYFKhP6wIePqOezNRGeGUEABBRRQQAEFFBiRQEMGWHEqW1HmryNK5uJVCiztg44PXkzHK1twB9bDd8LyhXDyy0c2+FnrOXDopTBhPaj9/1v1+ebhK+/W6l/eqgTu254CtwHLQi/bNrO9f05hvfVHD7zJ8GXN3Ne9FKijwH2VKl96ZCFfXW8+i+tY11IKKKCAAgoooIACbSBQ9wFW7OH5wG+ADdrAJ5stvP3jrHjua+l66dsgKTU+46P3wX03wfeOg7uuq99+L9oFdjwUnvcqmLhR/eoOoVJ6wktI7v/zEFZ4qQKrFai9He3vpBwR5vKPVjnFbn5CYCcgaVUG91VgGAK3ETk8zBl4bqYfBRRQQAEFFFBAAQWeIVD/AdYMvkpkGtCld+MEFveXGLvPKfRvvgOdW2zXuI0e+jtc/im44WJY9lhj9nnd/vDuz8H49RpT/1mq9l88k44fnwK1Z3j5UWB4Anc9ftfTxSR8L8ziyuGVqN+q2MNEAscTB+4Aa/jPF+uX3EoFFViQRr6TJFwaZnNpQQ1sWwEFFFBAAQUUUGAQAnUdYMUe3g98Dmjh78IG0XUbXdK3yXbw6n3ofOuR9e+qdufVRT3wp8vrX/vpFV+1DxxwLnQ09xE+ccVSwtHrrHymlx8FhiYQgXkELmMBl4X5VIe2vLFXx+lsTcJpwK6N3cnqCgxbYDmR6Q8s5+INLmTJsKu4UAEFFFBAAQUUUKAQAnUbYMXpbEzCLGC3QshlqMkVXWtTeevxjN2tjkOs2nOhztgZbqv9GrRJn613hiN+0qTNnrTNYWOhb2nz93XHPAvcReQgIn8Mc3kgq43EbrZM4S0h8LEAm2Q1p7mKJ1CJXFEOfDb00oI/9IvnbccKKKCAAgoooEA7CNRvgNXD4Y//bPDUx+/AGtMOMHnqoXYbSHzNFJJpF9Qv9ie3ggduqV+9wVbabDs49urBXl2X6x6bPpaJJQdYdcFs/yIVIlOJ/KaVz7kaCvOtb6PrBc9hIxL+AKw9lLVeq0BDBCL7PP6ctl+HXu5vSH2LKqCAAgoooIACCrSlQF0GWHEG+xD5GtCEJ4q35TmMuKn+jV9J3OfLdG75uhHX4jOvhX9cM/I6w62w2Wvh2N8Nd/WQ1y36/mcY/4PjhrzOBYUT+AzwSXqpBKjNjXP1iT10rKjw/7rK/CBXwQ3bNgIx5deVfo7sOJ8/5vHfobY5CBtRQAEFFFBAAQVyKjDiAVacTCeT6Aa+klODtoi9ogLpbjMZ/a4TRtbPogfhhG1g8b9GVmckq9d//O6vg78DG24zkipDWztjxP8qDG0/r86LwN0Ebgyz2T0vgdeUM87gRUR+BIwH1lrT9f5zBUYoUHs2XO1Oq2+FXo4eYS2XK6CAAgoooIACChRYYER/a4+RQA87EfhpgQ0z0XolXTnA6nznCAdYn3093N68u59Wi/fSPWHaRdA1rjm+DrCa45yfXa4n8FiYzZvzE3loSWt3zsbIZ554NpZ3zw6Nz6sHJ1AbXn33ylt4/5uvxFe9Ds7MqxRQQAEFFFBAAQVWIzCyAdYUxjKG2UT2Vbi1An1VSN8+k1EjuQPrll/CBdPgob+3tpna7utsDu/5PLz8Xc3J4gCrOc7Z3+UfBH5PhY+HedyW/bgjS1iZxu6lEm+DgT/DJ4ysmqsVeIrAd9LIQ6U5HKyLAgoooIACCiiggAL1EBjZAGvlg9vPrEcQa4xMYMWodUn3PIXRb5k+/ELzPgDX1h5llpHPrsfBXqc0J4wDrOY4Z3WXSB+BX5FwFilXhF4ey2rURuSKPQNDhtoD3k9uRH1rFkrgUuAaljMrXMDDhercZhVQQAEFFFBAAQUaKjDSAdbjD0xi3YYmtPigBNJt3k6cMpfSpA0Hdf0qL5q3L1z79eGvr/fKbXeHyafBei+od+Vn1nOA1XjjrO4QuY+ED5HylzCHm7Iasxm5Yg/vTyOvTAIfbsZ+7tE+AhFuj5HeJOG7YTa3tk9ndqKAAgoooIACCiiQFYFhD7Biz8Bzr/5fVhopfI7XToEDLxg+w/Xfhf89Gv71j+HXqPfKrrGw72zYrsG/UI0RDkrqnd562ReIJLyWlGWhlz9lP25TEoZ4MGv197FXKeGoJPCipuzqJrkViJFYTfl1OeEQAv8IvSzNbTMGV0ABBRRQQAEFFMi0wEgGWLWf2PjMlIwcb9xuCmHqCAZYl54Al58EtWFOlj5TeuGNtZdcNvBz7HPhkbsbuIGlMycQeQ+BX4ZeWvi6zcyp/CdQnEmZOxlXLXFKKeFAAqOym9ZkrRJII0uTwKYsoS98jYWtyuG+CiiggAIKKKCAAsUQGNYAK/ZwPfCyYhBlv8t0nRfQP+Vcul74xuGHvWTmygFW1j71GmClKfQtJn3sQRZ+71SW/up8JnRUGdsFYVj/FmQNyjxrEKgSWAKcEWYzU62hCfRN4zcdJbaNMDaAtysOja/drl4eI4tDwtvCbP7Qbs3ZjwIKKKCAAgoooEB2BYb8V/c4nc0o8UMiW2W3rQIlK3XAa/aFA84dWdNtPMCqPHA73HUd5bl7j8zI1XkVuAO4mg2ZEk6kktcmWp079jCmUuH8cpmtY+Q5IbBWqzO5f9ME0hh5CLgzTTmrPI/zm7azGymggAIKKKCAAgoo8ITA0AdYPfwv8G4FMyLwhmmw39yRh2nbAVZk0ck7Mv7uX43cyAr5EogsIfBz4POhl9/kK3x20y46kHXHlJmSBF4PvAlYL7tpTVYHgctTWNRX4bLR55Ch19TWoTNLKKCAAgoooIACCuRKYEgDrNjNDgS+DLwkV122Sdj+aqCvay1GbbsLpXWeu/K3b+/6bH26a9cBVu2til8/BJbVHtnmpyACkcAlpPyOfs4M57G8IH03vc3YTTeB2mtCj2n65m7YaIHvArdR4eRwDosavZn1FVBAAQUUUEABBRRYk8DQBlg9fA44GhjSujWF8J8/u0AaA8s2eBmdb5lBf8cEurbentLaG9X3GGqDnu9+FB65J1vHMZJnYFX74bSd4LZfZ6sn0zRSoHan1YWU+Fk4m9sbuZG1/ysQuzmIhIlplcOThNofTn7yKVCJ8LMQ+T4pPwzzuDOfbZhaAQUUUEABBRRQoB0FBj2IijN4HZEzgVe3I0SWe4qTnkvl4Evo2PSljYu59BE470C48fuN22OolV/yDph8Gqy/xVBXDlzf/4PPUfrxqSTLHx3WehflSuABUqZQ4t4wm5tzlbxNwsbD6Kos4RXlhHGUmE7Eh87l52z7SdmNEikV7gzzuC0/0U2qgAIKKKCAAgooUBSBwQ+wVv5U5CygXBSczPS5wQvhxL80Ps68D8C1GXrEyVuPgb1OhTC8l57F86YSfjfCh9s3Xt0dRioQ2JIKfd4tMlLI+q2Ph/I/9LPW8gpv6ipzdoBR9atupXoJ9Kdc3ZFwKCUe9Y7FeqlaRwEFFFBAAQUUUKBRAoMaYMUe1nn8R4MnEDm0UUGsu3qByrovpHxyEwZYl3wSfnY6rFicjePY9TjY65ThZzl/KvzWAdbwATO+MrAHs7ksQMx40sLHiwczqdrP30oJ6xYeo/UAlTRyYmkOJ7c+igkUUEABBRRQQAEFFBi8wGAHWLsAPx58Wa+sp0B1vRdS+lQTBli10J9/I9x2VT3jD6/Wq/aB7m8Oby2w/NrvkXznKDof/cewa7gwcwK1QdVCYD5VTvaOq8ydz6ACxW6mEvgI0AlsAIwZ1EIvGo5ACtwH9MXI/ckc3jicIq5RQAEFFFBAAQUUUCALAmscYMWegb9cHA6cmoXAhczQrJ8Q1nAv+QT85AvQ38IXt42aALWfD77948M+7uXfP5nkkk/Q6Q9ehyZimuoAACAASURBVG2YsYWVgSF64LIwm1kZy2acYQosm8qnR3U88VzFyDrAy4dZymX/FVgA3EigUk1ZUgp8KPRyl0AKKKCAAgoooIACCuRdYM0DrGm8gBK35r3RXOdv5gCrBvWdj6wcYrXiUyrD6w6AKXNGtHv/pZ8mXHI85eE9PmtEe7u4zgKRCwgsCL0cWefKlsuQQOxmGwKH1SJVU15VStgW6MhQxMxGSVOWJAkXPRHwb/c8wqxN5rMss4ENpoACCiiggAIKKKDAMASedYAVIdDN/gR8kNAwcOu2pNkDrFrwT78S7vpj3VoYdKHRE+HYa2CDrQa9ZFUXLvvRGSQXf4yu6N/hRgTZysWBbxC5Hvhq6GVpK6O4d3MFlu7PG7o6eHWS0JlGRhE5IEnYrLkpsrtbhGVpyk9KCb+tpVyRsmjUXM7ObmKTKaCAAgoooIACCigwcoFnH2DNJOF+bgGeP/KtrDBsgfVeQHrcH0jGTBx2iSEvvPXX8KW3Ql+TB0CHXgLb7j7kuE9fUHnwH4SvH0zpLz66bcSYzS/wC1LOIuFaf/rUfPys7Rh76Fie8oZRDPzEcOUn4ZOP3yv6kqxlbWCelJQD4YlBbqBvRcrNo+ZxWwP3tLQCCiiggAIKKKCAApkSGMwAq5qpxAUMU+0Yy5I3HcmEfT7VvO5jCv93GVwwFRY/3IR9Axx9JWyxfd326j9nKqWrzyVZ4w9l67alhUYm8CCRdxB4wMHVyCDbfXWs/bQdxv/7B4Zple2IfCFJGNsGvacx8stQ4qj/9FIl8ih/CrXXF/hRQAEFFFBAAQUUUKCgAs8+wOqhNrlYu6A2mWm79uq16ja7UT78suZmqg2xFj208nlYP23gM7E2ejEceD5s8nIIdZw21e4eO2Nn+HsG3qrY3JPL324p00n5djiHRfkLb+JWC8SZlFnAGFbwlD9AllfZbVSZ84lk73UOkViFK/uqfHx0mZufZtjvz2Zb/a1yfwUUUEABBRRQQIGsCaxpgFWbnfjJgsCL3w6HXd66JN/9KPxmHix7FNI63ASQlKBrHOxxEryl9pLLxn0e/OgrWa//DtLFC7wbq3HMw6m8BPgrVd4d5nHncAq4RoERCITFB/DizhIXdZTYACiNoNYzlsbIkhUVvjGqj1PC11hYz9rWUkABBRRQQAEFFFCgiAKrHWDFGbyUyA1FRMliz3Hz15NO+zqldTZ9SrzYv5x4z/9Re9leHLcOrL0JodSgF3fV7sjq3RsW3A13XDt8pk1fCettCbt9Ajbcevh1hrKy2s8jJ23PxHQB8Z+3UPLthEPRq++1tR9DBf72+E/Avhh6mV/f4lZTQAEFFFBAAQUUUEABBRRoR4HVD7B6uB1861NWDr2SQv/2H2T0lC+vjBQj/PE7pI/cQ+UbR9JRguoLdiDZ7n0kr3gXjF+3sdHnvm9l/X/dDv/4fS3Qs++35Q4wYYOVPxHc/1zoGNXYfKup3n/HDfRf/hnG/POP8OCtLclQ4E1rt+7NJ3BdmE0Df5NaYGFbV0ABBRRQQAEFFFBAAQXaVMABVp4OdvPXkr79k8RFD1J65G64/CSo9j+zgzd207ftXnS+9G2N7+6uP8L131vzAOt1+8N6WzQ+z2B2SKtUv/Vhkl98qa6P3BrM1oW9JnBm7THUoZcTCmtg4woooIACCiiggAIKKKCAAsMWWOUAK/YMvP1o5sBbnvxkSiBd/4WwZAHJ4gefNVf/ui+k/22fZMwbnrhTKlNdtD7M0m8dR/nnX6AzVFofpp0TBM4jUnuK/td9KHU7H7S9KaCAAgoooIACCiiggAKNFVjdAOtnwE6N3drqjRaoTNqM5OPXkoxfp9Fb5a7+sm9+hPLPT6MjSXOXPSeBbyRyBoEfh17uz0lmYyqggAIKKKCAAgoooIACCmRUwAFWRg+mPrECbLUjfPiK+pRroyrx2x8m/Pz0NuooM61UiFxM5IMkLAi9rOI3rpnJahAFFFBAAQUUUEABBRRQQIGcCDxjgBW7ORr4OIG1ctJDE2IGKJUH9umrwKLnvZkJ+51Ox8YvWrn3UevB4oeakGOYW7xkNzjkEkh89V5NsPrwPfDtIyjd8J1hgrpsdQKhl9U+V081BRRQQAEFFFBAAQUUUEABBYYr8MwB1gx6iXQPt2A7rKu94C+OWZtkwso3+S0orcfaM38Jq/m7ef+dN9Jxyssy23pfeRz9Ox/H2Hd+LLMZmxUs9q+An36R8P2PN2vLYu1TZsNwFv8sVtN2q4ACCiiggAIKKKCAAgoo0GiBpwyw4kwS7qN2D8W0Rm+cxfppKJNsswt9Vai87N2M2XHq4GPOyPaNJ9WXT4Z9zqQ0acPB99SGV1Zv/z2VefvT9a+/tGF3GWgpcFmYze4ZSGIEBRRQQAEFFFBAAQUUUECBNhJ46gCrh+2AM2Hg/y3W5w3TqIyaRHnvzw+v7wYMsJb2BdII47ri8DI9aVVfx3jCPmfS8aYDR1wrtwWWPkL83scJvzo7ty3kIPj9oZeNcpDTiAoooIACCiiggAIKKKCAAjkSePoA61jg1Bzlr0vUFRu+jM5jriSMmTj8epefDJd8Yvjrn7SyNrQKbz6UpWu9gNrPGcd1Rir3/pX+X85ldMcI3pq3z5nwlsPrkjF3RdIqi+dMZ+x15xGyfbNc7mifFtgBVt5P0PwKKKCAAgoooIACCiigQAYFHGABj3U9h/Gn/olk7KThH1HfMqrf+zilK0b+Zrv45sMI7/gkjFvnP3nSxx6k+ver6b/6m3Tc+B066Bt61jYdYKWLHiZ0jSF0jl6tyYIv7MXYv3yfrvLI72YbOnyhViwBjg29fKVQXdusAgoooIACCiiggAIKKKBAQwX+M8CKkykxidpTvk9q6I4ZLF5NoXT6Q08ZGA09ZiQufYz01/OI84+mXBp6hdqKvvVeTHj/V+jYeodVFkgXPkhY/C8eO+2dTFx066Bf+ba8Y9LAM7BGvWnK8IJlbdUfvgW1u96AWO0nJCUIK9+yuKI0lur2hzJm+ynEFUsJZ+1O/82/oCNxeNWEY4wEfhFms1MT9nILBRRQQAEFFFBAAQUUUECBggj8d4A1gz2JfB0YU5Den9Lmkjiasb1LR956WnsC/AoePecwRv/+3CHd8bOiApVdjmPs3if/ZxizukCxfzkhpnDY2DVmHhjb7HAo4b1nQFJe4/WZvuChv8NJ20Jaw1rdXWgBSh1QqvUaoX85A7/F9NMcgchVYQ5vbM5m7qKAAgoooIACCiiggAIKKFAEgf8OsLrZm8C3itD0anuc3Zghx4obfkTlvKmM7Vy9blxvS6pT5lFe//lDOoLaHVkLP7oNE6oPk4RV5E/KxNe8n3Dg+UOqm7WL48IHeXT2NCbddlnWopnn6QKRq9mIHcKJw/mdq5wKKKCAAgoooIACCiiggAIKPFPAAdaTTRo0wGr0F6//nptY/tV9GL/gpmdsVdlgG8on/rnRERpb/74/s+xzuzB62f2N3cfq9RK4l8BRYXbBB+L10rSOAgoooIACCiiggAIKKKDAykcoxcl0MolpwFlFNVlensCorz6W2/ar132XeN5Uyn1P7WHpOtsw5tM5HmDdfjXxgmmE+2/O7dkUMnjggjCb/QvZu00roIACCiiggAIKKKCAAgrUXWDlAOtANqeDi4DX1X2HHBSsPR5p6e6fZezux+Qg7aoj9l13CdXzpzF6xb+eesH4dQce3s6r3zei3vr+dhUr/vJrYv8KkrFrMW7XD0LtwekN/PT/7TeEb3+I8j1/bOAulm6IgAOshrBaVAEFFFBAAQUUUEABBRQoqsDKAdZ0XknCH4qIMPDUqHfMJLztOCh35ZYg/d2FxHP2o7TyRXxP/UzamOoOH4TtPkBp7ecMusfqw3ezbP7xjOuC/rv/TP9df4ZqH2HUOEa/ek8IKwdYy/uh9OZD6Nhiu0HXHsyFlR+cSvjex1bd02AKeE3rBBxgtc7enRVQQAEFFFBAAQUUUECBNhQo9ABrWW3wsscJdL7tKOgal9/jvffPMOtd8OCtq+0hjp5I/J/NCe//CuH5r19zr33LiJ99PdU7b6C8hhutqimEDbYiGb8Ojy2HiZ/8zZrrr+GK/pt+TnreNLoW3vn/2TvvOKmqs49/z8w2ijQFReyIxth7i93EEmPHllhhZ7H3XhBjx4IShJ1FRLFj776JvUSNGntij9gLVVi2zZx3z90VacveO/XOzO/88b75yDnPeZ7vvTsz93ef8zxp25KBvBB4iGaGmpv4MS+7a1MREAEREAEREAEREAEREAEREIGiIlCyAlZy7d2x+15BpN9ATEWXgr2orjtfw3m/pUvjVH8xdO3DT01VLH3d55iyJbRFPL0/zPrOn835ZiUtmJ79md57Hfqc83+B1/+ywL5+F8QPwsxrM5CyKS3MD4HpwLkmztj8bK9dRUAEREAEREAEREAEREAEREAEiolAm4A1jM1I8mrBBuaEmEgZ2CQ0NywxjGR5V+ausg3dTnuiYMNdwPEfPoHzB6UUy/eVA1n2qnfajgKWlYOr6d/SSPMZK1Ne/0NKNhdYtMFeEJsMUWc74HACVt1BARdpesgIjDBxLgyZT3JHBERABERABERABERABERABESgAAkYezJdmEMtcGgB+o9dqh/msBthvT1o/uoDyscPpuXrDyibrxaUO+IWWW4QRCsxF75biGF26HPjUYbKFPShXwy6AvYtK26K+eN5RLp0x9xxDOb7DzPCyGVjJX9/BmWDrwhsL/HaXSTjB1Ge3Trxgf3SgkAEJGAFwqXJIiACIiACIiACIiACIiACIiACHREw9mh6k2BaQSLqvSLsPxI2OXCe+7a5gZnXH0Sv+U4F/twIXQ8fE6iAecHwqAn3GTu7wT4w+BrMMqv4RmrrZ9DyyCWU/eMqHSH0TS2UEyVghfKyyCkREAEREAEREAEREAEREAERKDwChStg9RoA+10Jmx1SeNQz6HF9rAtdzZKPTWZwu8CmvALvfx5LZPthna6tf34SXZt+IjntK5qeuIaqNDLLOt1ME3JBQAJWLihrDxEQAREQAREQAREQAREQAREoAQIFKWC5Y2/1K29Dt3OfL4FLtOQQ5z52LV0ePCXcHNbYnoY1d6Vix2FEuvb0fG359mMa/j6GLmUJou3HPetfvIOuzT6L0Yc7YnnXRmAsXTnHjGKGgIiACIiACIiACIiACIiACIiACIhAOgQKU8DqtjQtRz9C+aAt0om9KNYmZ37P7FNWoUdZeLOwPMGqogfRVTfBlFd53JOzp9Ly6b8ojyR1TLAo7sTFBvEWCY4zN/JS8YaoyERABERABERABERABERABERABHJBoCAFrOTZrxNZZeNc8An/HskEidfvJXrjr3XAwu+0PCwRAs3AESbO7SUSr8IUAREQAREQAREQAREQAREQARHIEoGCE7BcZ7tI3GYJR4GadWcqX7kZJh5ZoAHI7aIlkORwM55bijY+BSYCIiACIiACIiACIiACIiACIpATAsZWcyimgB4wR8+Biq45gRN4k+YGSDRDeSVEKwIvT3vBU6PgwfOgcU7apmRABDJCQAJWRjDKiAiIgAiIgAiIgAiIgAiIgAiUOgFja3gCyy6FAMLLvhozF9rrKOXV558+g2lTfnUhmYAv34LpU2D5daHf6gu657om9huUfZefuJyWf4wmOvtbjMvM0hCBfBKQgJVP+tpbBERABERABERABERABERABIqGgLEx6oEuhRBRUwtUjMujgNXwM7xxjytBDm/eB+895h/bb3aCzQ6G5daCgVv5X5fCzPrnJ9HlixcxNoFNtnhZYW3F082v1v45EZzopiEC2SQgASubdGVbBERABERABERABERABERABEqGgBOwCiZNJ68ZWA9dAHOmwXM3QDqZTSttBOvsBpsdAv1/m/UbzbojjS1NGHfs0swnYD1xBdx/Vtb31wYlTkACVonfAApfBERABERABERABERABERABDJDoKAELC/kjQ9gRvmy9Dry+swQ6NSKhbtPgaevS0+4Wnif1X8HvVeEw2+E8vwkwM06spweFS2dEtAEEUiZgASslNFpoQiIgAiIgAiIgAiIgAiIgAiIwK8ECk/AAppNBWb1rWna+FC67pDFznv/uAbemNxW28oVaM/GWHljOOf1bFju1Gbz249RfsMfO52nCSKQMgEJWCmj00IREAEREAEREAEREAEREAEREIECF7Da3Dcky7tg9hyB+cNpmb+mz46Be06H5rmZt72wxeXWhBH/zf4+C+8w42s4c4Xc76sdS4eABKzSudZFHKmtZm0MlwKbA9EshzoDw/WmltFZ3kfmRUAEREAEREAEREAERKCgCBRkBtb8hF1h98iQSZRt9ZfMgHeFzf91B0w4NDP2/FpZeRM47TlwtapyNOyMb5h7+qp0jTTlaEdtU3IEDIebWm4pubgVcKgJ2KNYijIiCzhpOQ/D8UBlqJ2HD7HUYHhrAT+baDQTyVKqcMiJyD0REAEREAEREAEREIGSIFDwApa7Sok9Lyay80mYym7pX7Qpb8LlW3id+3I+1t4VDp8APfvnZGvbMJu5d51J15dvyMl+2qQkCVTTnwlmhGvdqSECuSdgj6E7zaxOtL0NaxKD4VEsy+Xem6ztaDGMxzB23g4tNNDIFDOJOVnbVYZFQAREQAREQAREQAREIIcEikLAqm+CinNeomzQVumhc6LV45fCwxemZyed1VsdCfteAUv1TceK/7UfPw9Xbed/vmaKQBAChlOpYIwZTWOQZZorAqkSsEexJuX8hgTl3mE/y9qt/3e4d+68tMZXwFiSfOSFHWGuifNoaSFQtCIgAiIgAiIgAiIgAsVEoCgELO+CnPESDExTwHriMrj/nPxe3x7Lwp9rYYO9cuOHBKzccC7dXc4FRpk49aWLQJFnk4A9lG5UsSuGgd4+lu0w7AhUZXPfArQ9C7jE89uQJMnjpo73CzAOuSwCIiACIiACIiACIlCiBCRgzX/hjy6HZEv+b4Xf7gKHjIG+bc9jWR0SsLKKt+SNW86ngWt1jKnk74SMA7A1XI6lF+AKB24LrJzxTYrXoAWehfbsLMtbpo5xxRuuIhMBERABERABERABESgGAhKwfrmKz/wN7nT1e0MwIlE45WkY5J7JsjwkYGUZcMmbPxu4XhlYJX8fpA3AHsmKlHvFyzfzjFlPtAp7wfW0486RgR8wvI3F1dK639RKzMoRd20jAiIgAiIgAiIgAiIQgEBRCFgNzVB+zktEV0/jCOE5q8DULwKgy/LUk/4Oa+2U/bItErCyfCFL3LzhhNZi2eNMnDx0RShx9kUSvo0xCdgKQzmWpdszrookulCGMROY6kmEht1MLR+H0ks5JQIiIAIiIAIiIAIiUHIEikLAqh+4MxVH1FLWb7XUL+CpfWH2T6mvz8bKy6dA7xWzYflXmyESsOY2wYwGg41UUr7aRpStvD527s80vvUEffiJyrLsopD1LBAwHG5quSULlmWyiAnYavbEeFlAuWnJWsQsMxKa4UtTy0oZsSUjIiACIiACIiACIiACIpAigaIQsDhqEmz+lxQRAD9+CpduAvUzUreRjZXZFrCSLSRfv4fIjQdnw/tFbCaSEF12IDMr+9P9xHuJ9ugXbF+bhGGurZhGwRBIcrgZLwGrYK5XHhy1rqT40axKwusS6D7I89gGNg8ACmvLeizXYJhIE1+biTQUlvvyVgREQAREQAREQAREoJAJFLyA5UQRM2QSkS3SELAm/AX+dVc4CrjPfzdlQcBKzvqJlu8+xjbOoXzuT9TfcAjdK1093+yPWQO2pscFL6R+LFICVvYvUqZ3kICVaaJFY88Op4yv2ZIo3YCHsSjHspCuruFU4F2SNJk6nisk1+WrCIiACIiACIiACIhAYRIoeAGraYVNiRzyN8oGttX1TWlctjn877WUlmZ1UaYELFfb6/3HPVebp7zL3NcewM78np5Viay6v4jxiz6CZQelvqcErNTZ5WulBKx8kQ/tvnYo62HYHOMJVxcAvUPrrBzzQ2A2ltOJ8D9TyxN+FmiOCIiACIiACIiACIiACKRCoKAFrJaq3th9Lqd8+1gqsf+6ppgFrJnfwh3Hwb/vS49RBlY3bj6EyqPqlIGVAZYFY0ICVsFcqmw7ao9hRVo4DtgUvA6COg+cbei5tG/5BMN9GJ6jkad1vDCX8LWXCIiACIiACIiACJQGgYIVsJJdl6bxd8dQsUMN0T4D0rtaxSpgJZrh+t3gv0+lxydDq1uSUBZ3Zz5dqZsUhk3SEotSFklhrZbkh4AErPxwD9muNsY9QB9gh5C5JncyT+Aj4L/Ah0znbDOZHKf6Zj4gWRQBERABERABERABEQgHASdgTQGy3Oou/WCbEzBrLpRvuAdLDR4O5V2wPQcQ6dYrfeP3nw3/uBZaGtO3lUkLaR4hnHPehnT78a1MepS+rXFpCFiur/tbD2LG7p2+H7KQGwISsHLDOYS7eMXZY9wOrAlsGEIX5VJ2CdQDH2H5xNQxOLtbyboIiIAIiIAIiIAIiEApEDC2hlFYTgxrsElXX3zfK4hsNwyv1Hi0HFPRJbPuOuHqzAEwe2pm7aZrLU0By9YYr61XqEaaAhauDtbbD8LYfUMVlpzpgIAErJK7NexwInzLX8E7LujqXOmoYMndBQsEnMQyC7jZ1HFSaaNQ9CIgAiIgAiIgAiIgAukQMPZINqecV9IxktW1O54IB47K6hae8VP7wuyfsr+P3x36rQ6nvwg9lvW7YoF506/8E70/fSSltdlYZInQdNjNVG6dRrfI+RxremEi3Hs6Fc2zoKUpsMvWRKBqKaa2LEV5soGeVUmSs6cRCZ3iFzi0cC2wHEsDNzOJekObBq1RnARsjGWwbIfxjgtqiMDiCDSQ5BjKeYAbmGGMPhN0m4iACIiACIiACIiACPgnYOzR9CbBNP9LcjwzVwLWlVvDpy/nOLglbHfqM7DG9qn74zLKZnyT+vpMruyzIj/3WY9u1TcS6ZWaILdYd1w21n1nwUfPYr94E2P9lVpJWkP9gM2oPHws5au0nWxKzp7KrJF70CvxA/z4WSajly24E8NYEvxoxvMfASkuAraG9TFUkuTV4opM0WSRwGfeAdMK/mVGe9lZGiIgAiIgAiIgAiIgAiLQKQEJWL8g+uETOH9Qp8ByMqHPyjDsXlh549S3y5CAlUhCctnfgIkQ/eG/REj69slbu9xalA0eiVlnF4iU+V4baGIySfKWoZiGmTS9/iCV0Y6FrKQpo77vOpTvfzmV6++y6DafvEji1mMw37yrbKxAF8HX5A9b8y0uBKaYOkKkFvvyXZMWImBr2IQkq2O4DugnQCIQmIDhYuAlU8sTgddqgQiIgAiIgAiIgAiIQMkRkIA1/yW/7g/wwd/zfxPsdjbsciZ06ZmSL81T3qXsuh0x6R6JXKofLVtV07Lq1hCJEv3gccpfvQnmzlyiXxZDQ6+BlG1+IImB21C1OKEopciWvMg21lP/8JV0K28hOfMHmt55gopZX84TouaUL03VH46nZeC2VK7dcTO05g+epvmRS6n630tEEg1Z8LSkTbpjhO/hsrKSPGnG80ZJ0yjA4O0xLEczu2IYBmyGK9auIQKpE/gWGIPhFVNLOFrmph6LVoqACIiACIiACIiACGSRgASs+eFOeQMu2SSLuH2YXmc3GHwNLPcbH5MXP2XW3RfQ/bmriLTMTdkGZZVQfSds8GvHP9s4B/PuozD+YLxi6guNuc1Qdcg10LUXTd1XoHK936e+f5ork7On0/LJPymb/d08AWtuWS+6bO6v+HvzlPcwHz9L2UPnQoNOuKR5ORa33AlZrvaeO1J4nonjHmI1Qk7ADmFlolwPbNkqOvQNubtyr7AIvAs8Rwt/MxP4sLBcl7ciIAIiIAIiIAIiIAK5ICABa37KyQS8fBNMqs4F+8Xvsds5sNfFYFJPaphx88n0eHUskURjSnFYC+aM52H1bRa//qPnPAHLiUS2pYFoz2W9DK2WJERX3wpTVpHSvmFbZJsbvbpo5todw+ZacfljeI0k9aaOjtPiiivigozGVvMMsBSGNM42F2Tocjp3BFq8DM0Ie5hxfJ27bbWTCIiACIiACIiACIhAIRAwNoY7p/YBsHwYHbbbDoMDRmHKK3Pjnsu2efJKeOyS3Ow3/y7r7wVH3pzy0cFfTDV99jrlf9sVM2dqajGc+yas1FbcfInDCX5O7YpGi/cUkbU0vzaZ8gkHdkZD/54+gS8xvGpqGZy+KVnIFAEb43fAeGDNTNmUHRHohIDLyGwxcVYSKREQAREQAREQAREQARH4hYCxwynje4aQZFwYsczttgIcOIoum++XO/e+ehvuOA4+falNoMnFGLg1nPFi5nY6YwDMDNiFMBJt82HVLTLnRxFYsk1zmRnrQa9KlxygkSMCl9KNi+lBoxkRoHNAjpwr9m1cEibDifItt4MExWK/3iGO7wcMezON18xk/LWZDXEwck0EREAEREAEREAERCA9At45NTuUjVtT9l9Pz1R2VrtjaS4Dq+z3J2Zng46sunpYj10K7z8JTXOyu/dqW8KZmW3KNn3EdvT65nnf1ZVtl56YIyYuUPMqu0EXmPVv3ocR6xSY00XgruEyLHcAP6lOVm6up43RFct+GM4D1sjNrtpFBJZIYDJwIv350YxAbxJ0s4iACIiACIiACIhAiRIIvYDlXZcDR8GOORaw3L7uiNxDF8BTo6CpPvO3yID1oPcAOP6xzNt25y9G7Ubyg39QYTr/vZ/Y9ljM3hcT6dYrK74UvNEv34aLNyj4MAo4gKcwXIXlaxPHFXvWyAIBO4xVSHIQcFkWzMukCKRD4B8YbsbysImz5Fa46eyitSIgAiIgAiIgAiIgAqElUBACVnL38zG7noWp7JofkI9cBLO+g+fGZm7/dXaHPS6AVTYFE8mc3fktJVqYfefZdJn6XxJv2Elz8QAAIABJREFUP0JF2eK3SS6zGux3FZGN9smOH4VuNdGCvfcMzFPXFnokhe5/AsO/sNxKgufMjbxX6AGFyX8b41jAdSzw16ozTM7Ll1IiMJImLjATaSiloBWrCIiACIiACIiACIiAq3PijhDWsD6WF7wOUyEcLcuuQ+TICURW3XQB75o+e4Pkq3cQNUnYcF/KB23pdcPLyki2wNOj4fsP4fna1LYoq4Q1d4Df/gHW+xP0Wz01OwFXJX74jJY3H8S+/RBlnzxHWWTBul5204PhsBsxFV0CWi7+6balGXPPqfDM6OIPtlAitFgMT7cKLe8Al5o4PxWK62H108Y4B8vFGN+njsMaivwqDQLubdIPJs6FpRGuohQBERABERABERABEXAE2gSsk+hFvVfv5NQwYvHqqB/3MGa9PTz37OypJG46CjPjK+yUf2OMxSy/LpFlVsZW35XdTK2ff4TP/gmJZvi/q+DzVzpHturmsNs5EClrE62WzU9Zmeav3if606dE7jwOpn85z+/mniuS3HcklVuo0978FzNZP5PIHcfCa7d1fo01I18EngLmmDh75cuBQt7X1nAwFpd6uTvQrZBjke8lR8BlYI01cU4pucgVsAiIgAiIgAiIgAiUKIE2AcsJWdUciPGKJYdz9FkZTnmKH687lL6RadjvPsR43i84bP+1mTlgG3pVZ/C43+KIOFXNiUANszrnVdUD+oSnG/j08zen1w+vzUu1cKHM7jqA8iPGU7XBrp3HUyozbvwzvH43uOw7jbATcMcJXzNxhoTd0bD4Z6s5AsMVwDJAls4xhyVa+VGUBAxzgTgVnGlG01iUMSooERABERABERABERCBeQTmSUC2mgMw3BVqNmWV2Jam1v7uCx6BW9jnZiqYveFf6D3sxlCHky/nmj56mYpR27dlkc03WkwF0TOex6y2eb5cC82+s8bX0OW1Gyk36twemovSuSOuZ6l7iL2QOCONp81rLI6ArWEvLK6zW7kIiUCBE0hg+Zkox5lxKF22wC+m3BcBERABERABERCBJRGYX8BybdPvBDoo9V1YIFt6rULLPldStcXgwnI8B97OmnAcPV4bC9Y97y867PlvY1ZYLweehHiLmw6HV24JsYNyrVMChqNJ8AgVzDA3MLvT+SUwwcZwqaDDgaNKIFyFWHoEDmA695nJ6M1D6V17RSwCIiACIiACIlACBH4VsIayHhGuB7Yrmrg3ORAOuBZ69i+akDIRiB2+Nua7Dzo01ZSAivE5TF5paYRvPoCmOR2HF62AVTfLRPi+bCQnHI559RZVtPZFK/STxmO5Ccu3Zjyfh97bLDloY7jUypeALHW6yJLjMisCwQgcQH/uNyPQ2e9g3DRbBERABERABERABEJPYIEqUjbGWcBlofc6gIMtmx1GZN9LifQeEGBV8U5N/OdpIjcdhpn59RKDbDz+KSrX2TF7IGZPhY+fh8afwf3vf1wD07/qeL8uPeEgp68CPZeHtXbOnm/uHNojV1D+98uJNMzI6j4ynjMCTcBTRLiNZl41N/JJznYOwUa2mt3aj4iHstNsCBDJhWIiYDmWKG+bcZ5gqyECIiACIiACIiACIlAkBIpewGpOQOTEx4iuu1uRXLL0wmi+/k+UvffIYgvgz295as91WPrKd9PbrKPVj/61rQD+G/dA/fTge/QdCJsfCitvBGvuCJWZb56WmPEdkTF7YKa8Edw/rQgzgQSGR4A3iTDajCWFGzDM4S3qm63GHQ8fBaxQWJ7LWxFIi8BbGK42tdyalhUtFgEREAEREAEREAERCA2BBQWsGoZhuRIoqrf0javvREX1JEyvEj9K+MokeOCcJWc6td+aU5u7s/SEnzN7o7qOfu8+Aq/e1mH9rUAb9hsEK64P+1+dlS6Pc67fn64fPICxKqcS6LoUxmSL4QEss02cwwrD5WBe2sNYmioOAk4FVg22WrNFoCgIfEOEc804JhZFNApCBERABERABERABEqcwIIC1jD6kWQssG8xcUlaMBf9F7PcmsUUVqBYGl67H+46karZX/paN2ODI+l19ARfc31NuvtkePMeX+KZL3vzT1pxA+i1Ahz3cOClS1rQ8t3HREdujZn9Y0btyljICFhewvAvE+fkkHmWsjt2CKsT5fL2mobLpGxIC0Wg8Al850RcE+f2wg9FEYiACIiACIiACIhAaRNYQMByKGwNcSzVRYflov/CsqUpYCVnTyPx8F8pe3aU76Lk9rqfMVXdM3Mb3HcmPDUKWlwZoiwNE4H+a8Hw9zK6QfLHz4icNzCjNmUshAQsTRimtXZhvdjEGRNCD327ZI9hOZp5A0O/Yukq6zt4TRSBxRNw6cQHmziPCpAIiIAIiIAIiIAIiEDhElhUwKpmLIYYECncsBbjeREJWLalEZNc/LE2ayKYsorWlLO2y2dnTyP54o1E7z/D9+V0/QdNbQa6EDofn7gcHjzP995pT1xlMzj9BXAMMjR+OHEQfRs+8S3+ZWhbmcknAcNu1PMCDTSYyRTMGVIbo2trtol7WC+uz+983gvau3gIGLaillcMZOALrniwKBIREAEREAEREAERKBQCiwpYMTYCr17EuoUSRGd+NvdahbLTn8Ess0pnU0P970nXrW/GN9TfejJdPn2K6EKPqO4XeX2vQVQeeCVlyw70Mp7qL9yErgG1nFk916LHlR+kx6J5Ljw3Diafkp6dVFavszscPgF6LJvK6kXW2OZGpo/Yhj6J72HalIzYlJGCIXAKhiep4EczmlCfJbXVrIHBpSCWFwxdOSoCuSYQZUszlldyva32EwEREAEREAEREAERSJ/AIgKWM2lj/APYKX3zIbAwYD044iZYyelyBTxmfU/T/cPhhTgV0ey9PPayr0Z+l5744zKvXp0EE4/ME3ADu50Ne14EkWhmfLAWPn0Z/m8ktqWJlm/+S+KnKZBMUB5lETExM5vKSkgI1AP3AXeS5G0znq9C4tc8N+xQtiDCZHUaDNuVkT+hJGDZ3dTxeCh9k1MiIAIiIAIiIAIiIAIdEuhIwLoTw35Yygqa3Uobw0HXwcCtCzcMm6Thpdup+vx5eLEu63EkNzmIyKFxqEqjEWXDzzBinfxmKw3aFg68DlyB9wwP21hPw1uP0/zpv6ClmapyqJj9FbguixrFTMDVyZpMkn+RYIKZ4B3Vy/uwMXbAMgbDWnl3Rg6IQGEQmAPEVNi9MC6WvBQBERABERABERCBXwh0JGD9rvUI4b3gFQEu3LHzKTD46sL13xWzmXgC5f++k6qG7J9emtsSoeLsl4iuvkV6zG6t8TLF8j42/zPsewX0GpB1V+wPn5CcVEP0o6ezvpc2yDsBVxPrVmCmiXNiPr3xxCsY1Zohtl4+/dDeIlCABL7Hcpap80omaIiACIiACIiACIiACBQAgcUKWM5vG+MzYNUCiKFjFwtcwJo57ii6vD4xq0cGf4HXnIDEH86kYo+ziHTtld5lr3HFubJ3zNG3c5Xd4cQnYeBWvpekOtEmmuG5Wsxdx6dqQusKj4C7yZ/A8oap4/xcu99+bHACKPMq1+y1X9EQ+BY428S5uWgiUiAiIAIiIAIiIAIiUMQEliRguVQS93a/cEfX3nDw32CzQ9KKITHtK2bcdCLGROm63WFUbbxHWvb8LG587xmi4w+gbO5PfqanNael329I7HouFRvtienSIy1b/Of/YNQu6dnI5Oq/1MKWR2S0K2GH7v1zYh7rfmUSmmwFJOCOI32F4QpTy00B16Y03dYwCIv7jF4hJQNaJAIi0EbAMJUkNabOyzrXEAEREAEREAEREAERCDGBjgWswUTpTUuIfffnmonw8wpb0/XYO4n2Xt7fGqD5i3fg7pMo/+yFtmyiZLL9x24EzK/Yfmqsos/oL4l0SzNraWHPrtkJPszscTS7/1WYHU6AyMKX3YBZMC7foBaeeNqy8PMPKS/P+EIX12X/g94rZtz0IgYlYGWfcbh3cB8SydauhVuaWl7Plqs2RldgGlCZrT1kVwRKjEASy46mjudKLG6FKwIiIAIiIAIiIAIFRaBDActFYWNekeLuBRVRB866JnLm0s9IRiuJLEnIammi+YWJJG+toTJACXtnf3bf9el+6kNQ1QOTxjG8hlcmU37fqURnfpkx9IkN9oMDRhFdOssJG6f2hdnZzxoLBObyKTkRsOzLE7ETj1xUHwzkrCYXDQHL7kR5hznMMJNwWVppD3sUS1HGf4DsF3ZL21sZEIECIxBlSzOWVwrMa7krAiIgAiIgAiIgAiVDoDMB6yTg2mKiMbNieZY67jaSPQdQttygBUNLJmh4YRL25qPoUp5aDafmhCG56SFUHnQl9PSf8TW/I/Xjh1Dx6gTKXCmpDAwvkh1PxBzoaj1neYRRwLr4E+g7MMuBgwSsrCMuxA1cppTraPAozXxobiLlbgx2OGV8xxVYTilEEPJZBAqCgGV7ZWIVxJWSkyIgAiIgAiIgAiVIYMkC1nAifIvruFVUo8VGaVp9B6q2Ogi70iZEB6wN0TKan7qBxrvOoLvJQLLElofDPpemJGLNvvl4Kl8eR3mGTnC2UEZix1OoPPCK7F/HMApYNZNho/2zHrsTsJh45PwnTLO+pzYoGAKzsdyC4TVgsolTH9RzG2Nwa82r8UCaheqC7qz5IlBSBBIkOcCM576SilrBioAIiIAIiIAIiEABEFiygOXKm1ZzPYbjCiCWwC4mLdhB2xFZdVNMWQXNj1xKeTSwmQ4XtBzwN6LbDsWUBytVM+uWk6l66QYqaMqIM829VqZl7yvpsuUBGbG3RCNhFLC2rYE/j8t+7KqBlX3Ghb9DM5ZxRJlmxnGh33DaxatrVLTdLzHNE4G0CEwhwmAzzhOcNURABERABERABERABEJCYIkClvPRxvgNeDVXNAISSPRdg+hpz0Kv/r5XNn3yGi13nEjVl69krJaS/c1O2Oq7iXTv49uPlCeGUcDaJgauG2G2hwSsbBMuJvsus3Uy8G8T58olBWaHsj8RRgKrFBMAxSICISbg3h7dynRiZnLxZaGHmLtcEwEREAEREAEREIElEuhcwBrCykT5J+BfhRH0eQTsRR9hll2o1tbCfJIJmv/zLMn7zqG8cTpMm0Ik0Zg5iuv9CY59KHP2lmQpjALWkNths4OzH78ErOwzLr4dZmD5yNUaNHXcuXB4tobdsV4NLRVtL75rr4jCTWAmcImJe+KxhgiIgAiIgAiIgAiIQAgIdC5guTpY37AXRvUgUrpeXXsxbdXd6HPC7fOWN095j1l3nM1S375KRSTZ9t9bmrCNP9PpBUnFiVIXsC79HJbOQfKKBKxU7k6taSPgCu81AL8zcf7r/oMdylpEmARsLEgiIAJ5IeD+Jk8xccbmZXdtKgIiIAIiIAIiIAIisAABX3qJHcqORHgE6CJ+BUgglwLWmQNgxjfhgnT5FOi9YlZ9avn2Y5onxujyv2ezuo+MlwiBCOuSYBUMD5dIxApTBMJLwHAQyzHZjKD9jVN4XZVnIiACIiACIiACIlDMBHwJWA6AjXE0cEMxwyja2HIpYL1YB5Ni4UHZtRcMfx96LZ81n2yimcQ/b6Ns0pFZ20OGRUAEREAE8kTA8h/K2MOM5bM8eaBtRUAEREAEREAEREAEcF0GfQ5bw5+wjAZW9rlE08JCIJcClou5xvdtlX1Cu5wJfzwfKrultZedO4vE+3+nLGIXsZOcPZ05t57CUmZ2WntosQiIgAiIQEgJGE7lQ643z9ISUg/llgiIgAiIgAiIgAgUPQHfSoM9lG508YqZukwsjUIikGsB6+6T4alR4SB06rOwxnZp+ZL8eSo8finNT15DZVlaprRYBERABESgUAkYzje1XFyo7stvERABERABERABESh0Ar4FLBeoreYIDJcA2TuPVehEQ+h/cpXNSR52E2UD1sqNd3Nnwkm9crPXknbZ8nDY5zLomXoDTXc80I7/C5E3785/PPJABERABEQgvwSSHGLGc0d+ndDuIiACIiACIiACIlCaBIIJWEPoQ5TbgF1LE1dhRt1S1o3EH86icq/zFghg1r1/JTHtG7rtcCQVq2+WueCSLfDieLgtj8l6/QbBITfAWjunF1f8AHhjcno2tFoEREAERKBYCLxr4qxXLMEoDhEQAREQAREQAREoJAKBBCwXmI1xKuCUkBCk2BQS6vz56lVt2v44zEHXMfOOc+n+wf1EbTOJmd9DooVI997Uly9D9ICRVG2QIW2ypRFeuhFuPzY/ge98Cux9CZRXpbz/3DEHUvXufRirkicpQ9RCERABESguAgks95s6BhdXWIpGBERABERABERABMJPILCA1S5i/RvYIPzhycMgBOY2GSrOeYnooC2DLOt47twZ8PCI3NfD2uwQGOISBdMZFkZuC5+8mI4RrRUBERABESg+AkkMN5lahhZfaIpIBERABERABERABMJLIFUBy50NuxaoDG9o8iwVAtObK+l57RdEei6byvJF10z9Ah6+EF6/C5rnZsZmR1YiUdhgb6i5J+19mscfTvS1W4ik9BeS9vYyIAIiIAIiEGYClgdJcpS5kWlhdlO+iYAIiIAIiIAIiEAxEUj58dzGeA3YtJhgKJZ2Ai57yWUxZWokmuCB8+DZMdBUnymrC9kxsPH+EEu/2Hpy1g8wqZrIOw9lyVeZFQEREAERKAICk4AzTZxviyAWhSACIiACIiACIiACoSeQuoB1DFvRwkuhj1AOpkSg6dSXqVgjQ0cJf/HgofPhvcfhizdS8qnDRRvtB0v1ayvanoHR9NwEIg+cRVn9jxmwJhMiIAIiIAJFScDgCiQeaWq5tSjjU1AiIAIiIAIiIAIiEDICKQtYLg5bzUgMp4UsJrmTAQKNK29N5TlZqP/0yUvw/hPw/DiY/VN6nq6xPay1E/yuGnpk6Miju69d3a6HL8Sk9deRXmhaLQIiIAIiUBAEHifJsWY8nxeEt3JSBERABERABERABAqYQFqP6HYYA0jyVQHHL9c7IlDehaaTnqNi9SycEnW1sD5+HupnwquT4J1Hgl2HFTeA3c+DZdeA/mtBpCzY+s5mP9ImYGmIgAiIgAiIgA8CVzKXi8wk5viYqykiIAIiIAIiIAIiIAIpEkhPwNqeMtbkICyuDoRGMREwhuRvfk/kpCezF5W1MPMb+Ln9qF79NLhlKPy00IvslTaGP10IvVdo86VqKeg7MHt+ScDKHltZFgEREIHiIzATWEu1sIrvwioiERABERABERCBcBFIS8ByodgYmwOvhCsseZMRAgPWgwvezogpX0acoNU0B2xywemuu2B5FzARX2bSnTTn4SuJPnwBVaYxXVNaLwIiIAIiUBoEZps4S5VGqIpSBERABERABERABPJDIG0Bq13EGgzcBpTnJwztmhUCA9aFc9+EaIaP6GXF2QwbveNYeKEOEs0ZNixzIiACIiACRUmgnGXMGKYWZWwKSgREQAREQAREQARCQCBTAtZADCOx7BOCmORChgjYZVajpeYByldaN0MWC8iMywa7rQZevhkSTQXkuFwVAREQARHIE4FGKulnRjMrT/trWxEQAREQAREQAREoagIZEbAcIRtjb+BqYLWiJlZKwbkMrPPfytnRvVCivf1YGp+6gcoSTEIL5fWQUyIgAiIQVgKGFiznmDgjw+qi/BIBERABERABERCBQiaQMQHLE7GqiQNDMWTUbiEDLljfo+UkdzmbyF4jCjaETDk+5+7z6DLtQyL/vidTJmVHBERABESgOAl8RZRDzFheKM7wFJUIiIAIiIAIiIAI5I9ARoUmW8OWWCYAv8lfSNo5EwTsX+LYjfYn0q13JswVuA1L8rtPsA+cS/Tfkws8FrkvAiIgAiKQRQLNGG4ztRyZxT1kWgREQAREQAREQARKkkBGBSxH0A5jQ5I8AfQrSaIFHvTcJqg64X7M+n8C1/1Po41AMol9427M+INFRAREQAREQAQ6JmD4DjjP1HKjMImACIiACIiACIiACGSOQMYFLE/EivE5sErm3JSlXBGwRz+AWW8PiVeLA/72Q3DDXrm6FNpHBERABESgMAlY4DoT5+TCdF9ei4AIiIAIiIAIiEA4CWRFwGoXsRqBinCGLa86JHDa8zBoGwFamIDrSvjW/TBuP7ERAREQAREQgc4INAMnmjhjO5uofxcBERABERABERABEfBHIHsC1mAq6O21kq7054pmhYHADNuDpS55h2jflcPgTmh8SHz9AXPO34Ae5e6ZREMEREAEREAEOiFguZgGLjeTmCNWIiACIiACIiACIiAC6RPIpoAVpQ8TsByWvpuykEsCzTufQXT3s4l065XLbcO7VzIBL8Th9mPC66M8EwEREAERCBuBuVj2MXU8GTbH5I8IiIAIiIAIiIAIFCKBrAlYDoYdRj+S1AF7FiKcUva5ZefTsZseQvkqG5QyhrbY/34N3HOqOIiACIiACIhAUAIjKOMqcwOzgy4s5Pn2aLaghUFEKPPiSNIEfEQV75jRuBITGiIgAkVGwA6njK/ZBMNAIvPKyLijC1NYjhfNCJJFFrLCEQERyAOBrApYnog1hNWJMgr4Yx7i05apEjARGlbZluTWR9F1m0N9WZn76n2Yz16mjARNVBBZc1uqNirsy558aDiRRy/yFb8miYAIiIAIiMBCBL4jwTbmRj4pRjL2GJajhaOAvgvEZ9iKJGsA5RhcUXsnYH0IvAXzCViGD2nhbnMj04qRj2ISgWIlYGMs4zJMMfx2vhjLsWyKYfX56iA7AesLLC9gSMw3tx7DRFPLx8XKSHGJgAhkh0D2BazhRPiWo4FrvR8yGgVDwGJo6r485ftcROR37vfp4kfTS7cSeXMy9ut3MVO/IGKSJIjCMqtRvsJaJJIQ2fNCzEob5iX2WfdeQrdvXyMaads+mYTE2rsR3eIQIl16dOiTve8seOo6TEtDXvzWpiIgAiIgAkVAIMKBLMs9xZR9YGu4CUsfYClgU6B7ilfqR+BtwD3MvkWUkaWWrZYiNy0TgZwTsG3PdCcAOwDdgHWAZVN0xInarwM/uZ/mJs4+KdrRMhEQgRIjkHUBy/G0R9ObJNdgOaLE+BZFuLbb0pjB18Dmf4ZIdMGY/n0f9tZh8POPmA7uJvfq1fRZGaq681Plyixz1qPZ55JowT54Puadh0lMnUKk6Wfmd8927YNZqi/Tq1ak1+mPYMoX6jVw/znw9HXQVJ99X7WDCIiACIhAMRP4lkpWLfSjc/ZkujCHq4FtgTWh/Xhg5q6cO2b5FTDXxNkoc2ZlSQREIF0CtoZHsawCLA9ko0ju+8AHVHCS+RvfpOuv1ouACBQvgZwIWJ6IFfOyr+4F/lS8OIs4smg5CcqIXPg2pt8gkrN+ZPa1e9Pj+39Bwn9nPpfVlazozqy1D6D3sPHZAfb63diJR2ASTeAKsC9hOH9MeRWzEl1IrLsnkc9eokfDV77WZsd5WRUBERABESg6Ak10MRMpyHTe9qyLGgxXY726Ngu9ycrK1ZoLPGbi7J8V6zIqAiLgi4Ct4QIsJ3gZl2aBd8G+1gec5GpkucysK1pP7Vxi4vh/wAi4kaaLgAgULoGcCVieiAWGGC8BW7iknMLFJs8zQmDzv8DBf4OqpcC0n+9Lw7D9+j3mnrcuXd3Paw0REAEREAERCBEBEy+s3z32CKqoZEMsL+cR489YzqeKcYWewZZHhtpaBAIRsO7t7hC6U8Z5rcd7zwi0OLOT96A/T5oRtGTWrKyJgAgUMoGci0h2KNsQ4QmgayGDk++ZIZDcYF/YfySRvqulZ/Czf8IVW6VnQ6tFQAREQAREIFsEDGsUSsFiezQbk2B3ICxdTM4kwkQzjh+ydXlkVwREALxOgt+yBZZhGP6cdyaWwzC8b+K8mXdf5IAIiEAoCORcwHJR2xijW4v2HRcKAnIi/wR2OK71YOmF0G3p1Hx55xGID4bmgjydkVrMWiUCIiACIlBoBP7PxNkl7E7bGn6PZVIaxZmzE6KhDusdK3wgOxvIqgiIgK32Ogu6xlsrh4jGN63l42vMOB4JkU9yRQREIE8E8iJgeSJWNSMxnJanuLVt2Aic+zqstHFgr2xLE+ayTeGrdwKv1QIREAEREAERyCGBr02cFXK4X+CtbDV7YhgFrBp4cW4WTHVZYSbO9bnZTruIQOkQsMexPE1eqRdXrD1cw/AdSU42ddwZLsfkjQiIQK4J5E/AGkwX+nAWlgtyHbT2Cx+Bub8/j6q9z8eUBStgVf/YtVQ++VeiDdPDF5Q8EgEREAEREIFfCdRjuczUcXEYodhq9sBwDTAojP7N59Os1g6IF5s4I0Pup9wTgYIiYGu4F8u+IXZ6CpYzJWKF+ArJNRHIAYG8CVguNnsUSxHltNbGdBKxcnCxw7zFnPI+dB35GaZLz0Bu1l+/P5Xv3ks0/RrwgfbVZBEQAREQAREITMDwgqll28DrsrzADmNHkkwI2bGhJUX9JUnONOO5I8toZF4ESoKArebm9ppXuegymg7TtzGcYGp5Ph0jWisCIlC4BPIqYHkiVswr5u6KhJ5auBjleboErGtROWo6dO0VyJQdux/mrfsCrdFkERABERABEcgTgX9Tzj5mDF/kaf9FtrU1rI/lWSDYF3B+A0hiuYt6hpnbcBlZGiIgAikSsDE2B+9oXviODi4aUwLLyczgBjOZRIoha5kIiEABE8i7gOWJWCfThTnUgtftQrk0BXxDpev6zE1i9DzMnWDoZCQTJO4/h8izYzChuIs7c1j/LgIiIAIiIAIegZtNnCPCwKL991cc+Eua/jQDTZ4Nw1ck2M2M5/NfbHqdzX7gtyS4fd5DsqUcQ7C6AQs7abmY5RlhRtCSpv9aLgIlScAOby2P/i33AnunAMD9zbu/fbB8gGF3E+enxdmx1eyC8fZxowxLBYZ0fsHvQ38eMiNIpuC3loiACBQwgXQ+ODIatj2UlehCHbATEPZsbaq+AAAgAElEQVT01YzGLmMiIAIiIAIiIAIlQsByB1UcaUbTmO+I7TC2JsmLafgxB/gMiJs4f/Nrx8Y88WpfLOe2dzvs53ftIvMsJ1HFuDDwTDkGLRSBPBGw1WyH8f521wnggvu7n4Lheiq4Kejfnq1hJ3cEGMOKwGqQopBtWcfU8X4AvzVVBESgCAiERsByLG0Nm5BkDIbNioCtQhABERABERABERCBhQm8S4STzDiezicaW8NvsWk9/D0AfGDingiV0nDVA6jmQAxHAxsB3VMw9DER9jXjeC+FtVoiAiVNwNYwEhuoK/zPGK7DcpWJMzMdePZYlqaZS4ADUzrCbLiYcVxgDDYdP7RWBESgsAiESsDyRKwYO4DXBWeDwkIpb0Ug7wRcK0b34788757IAREQAREQgY4JWIabOq/+Z96GreZRd+QnBQfckZ2xrUeFjkth7WKX2CGsTJSDW48jOTEsFRHreuBsE6c+Uz7JjggUOwF7JH0p52rgUJ+xJjCca2q5wud8X9PsME5urWm3FpZqXwvmn2TY09TycOB1WiACIlCwBEInYDmSdijb41R1w9YFS1aOi0AuCVgeBCZj6AaeCHxQLrfXXiIgAiIgAgEIGC5jOS40I9rrRgVYmompNuY1znGZD5WB7Bk+wzKB6Yw0kzPvu63mCAw3BfLpl8lJljPj+T6ltVokAiVIwA5jH5KMBgb4DH+miWen2YM9hu608FfgJJ++tE0znGpqvcQHDREQgRIhEE4By30cDWVzDOen+HawRC6fwhQBj8DjRDnOjPXqkLgsxpWAdduFLHX31E0iAiIgAuEj8DlJasx4/p4P12yM14BNA+79FZbhdOcOcy1zA671Pd1WsyfGeykTbBieNrVeHVUNERABHwRsNcdgGONjatsUw86mlqd8zw840Q6hD1HOA072tdQ9LVbwkBnNj77ma5IIiEBREAilgOXI2sFEWYbVSXgfZOl2xymKi6UgRGAxBF4myb4Lv3X26oocz1LUsxJRjgGvvoiGCIiACIhAWAgYDjW13Jprd2w1l3vfENA10N4uM74rl2ZTvPJ+/7nvrxp2w/JoIP/c83U8ra5mQbfTfBEoaAJBBaxc/H3Z4+lBE5dhvd+uix+GJEmqMUxqrcHX1gVRQwREoGQIhFbA+uUKeB9kjYwCjiyZq6JARcAfgc+ZziAzmcSSpnstkqdRTiNPAtv5M61ZIiACIiACWSWQLwGrhrtaW94fEDC2WvpzTK5a1tvhVPANR2EYG9DP6SZOn4BrNF0ESpJAGAUsdyG8363fclsH5TBqaeF0JjDbeHq3hgiIQKkRCL2A5X2QuWysPozH8mcVqC61W1TxLoZAC/C1ibNKKnRsjP9hvRbmy6eyXmtEQAREQAQyQuBDIuyfy+55Xvt6y3WtNRPX9hmBxfK4qeOPPudnbFq7r5OB3gGMzqGJZcxEGgKs0VQRKEkCYRWwvGe/ajbFeBmqa7RfHHds2WVc1ZTkxVLQIiAC8wgUhID1i7e2hpuwHAZEdA1FoEQJfIXhBVPLIenEb4cxgCST2gt3/vLjIB2TWisCIiACIhCUgGVrU8fLQZelOt/GuAw4K8D6Wa1zLzRxrg2wJmNTbcw7/u4EN7/ddZuAY02c8RlzIgOGvIfxKN1ILnDEsZkIn5txfJ2BLXJiwh5PJc2sT9JrGPPriHgF/T9mHD8WW1aMtRhi/BZYBjPf80eUFpr41tzIJzmBn4VNwixguXBtNWO8qsjwEvDP1uOCrktpKIb3t9DIBoscxbYkKWO2GcsboXBUTqREwB5BLypZC0PlvM/tSt4wo3HfiRkfNuYd6Xf1ixc82u/uJ8tsZvJWZyduMu5UCgbtyXRhDqu3NodYmsh833dJWqjgf/Tl60xkcheUgOV9mNUwFsuwFJhqiQgUOoFXgeuZzv1mcmYK6NphbI/lL1h+BwySOFzot4j8FwERKCgCORSw7DBWIcnVwL6+GVn+3iqw/cH3/AxPtDGvoc8oLFsEMP2OibN+gPnuQXk/70HFz4jwiRnnFcHvcNihbEGUtUgQaf8RP9zLerYLvICdA9xPkmc9Q2V8yjieC5MAZI+mNwm2ItnaM9MNQ28MpwD9FwrePdTdgeUN3AOXoQHDGybOf/0gTXWOHco2RFjR13rLLFPHI37m2qEsS5RtSNCTCFHwRBQnVswvpDZgeQHLXe1svqCZFwsp+y/sApb33BfjWqZzWr4f3m01axBlU1qomu9v4TRg2YXuKXdK4qtWGevief/d8A1lvGLGMt3P/ZfOHBsL8ILb8C9Ty8fp7LfwWlvDoNb6hb4bhJg4twfd31azM4Z+vtYZfjS1nTdLsUNZlSibkaC7ZzfqxTEEWNr75GsbW5g47lks7WGPY3ka2Rbb/jIgSn8sxy3mfnI13r4CRpJs7/wb4TPiPBuG7wrvlFwv/oilb/vfRT+MV6LAiXHus/OXUY/hEZI8g22vWxfhWRPn01RgFpyA5X2YtRUgPTOVgLVGBAqUwPOtCvxpLM8bmVCuF/nCqWY3IqxHkj9h2LpAGcltERABESg0Aq7G57kmTn22HbfVHIphnO/i7e7wIOxg6ngu274tyb6NeRlYJwTw4UPP7zjf+l1jY3zhZdj4GxNM3CuCv8iwMe9H+0HgiX4bBXwp9EF798W3qeDxbL3p9xNiu3DlHs7dQ+Iu4FMk+tW4O+7l7ps3ifBgZ4KfH58Wy7ua2zHs5XP9hybuXZMOh61mAwz7Y1gRyx6tLw2D1FP7CHisVWx9gmaeKwQhqxAELJ/XNivT7GAq6MMBrSLlWq1isxPFdwS6pLDZ/4B/AD8A15o4P6Vgw9cSG8MJ4/6G5SRTR52/yf5m2RqGYLne32yv8caC2Zw+FtqYV9PXvXj3M142cX7f0UQ7lLWIeM3iXJblDq3Xp+cSjKYtYNkYe3sdgC2rYrzPmKX8BLHQnF++K+qx3GLiTEnBRlpL2l+IHQp09xIhUitL8xDwHvB+UCGzMAWstvS0avCU0fXSugJaLALhJ/Cq68lkank7267aYWyIZW2s9+PbfTBpiIAIiIAIZI/AbCIMNOO8B5usDhsj1po5Uxtgk6SJL/AGNcDSzE21MU90cA9ZSxQf5u1omeOytkzc62Lta9gYPwYQsOIL1+Gxp9GNWV7B+YHAVr427XiSexh5i3KOMmOYmqatQMvtsSxNi3fM1GUDuIerTIzXW7uJf0KSkxbumJyu8VbB8N4AGYX/NXFPiFhkeMeFKrgeyyAMm8+XcZGKi/8B/kMlR+ZThPTjeFABC7i1NWOiJH4b2hhnYdi4PftzBT88fc5x3VWn05XjzShm+Fzje5qNBShsbznW1HGDb+M+JtpqhgVpvpFKZ0sb88TxbX2446a8aOJss/BcG/OyKS/BsAV20X/vwHbKApatppoI27XfT+57Iv1hacLwfPvx2gvSN9i5BXs0a5LgCCybYTwRsaLzVZ3OcBlmL5Jkghnfebacs1aQApZz3Dt73MRALGcAh3eKRhNEoDAJuDfJf0w1xTKVkL16D9XeW9c1vGbmxmueoCECIiACIpANAkmWy/SD/WJ+rPfEcnag7HXDpqYWJz7kfdgaHg4oqDxg4uzj1/G0BawYb7ZnaGSyRqt7aVVn4ozxG0c682yMi1ozpvZsL/Bflo6tDta+g2GCqfUy6jIyMiFgeUeHItzX/kI8k9fvLRNnw4wEmiUjKQhYzZTTP9fCapbCX6xZ656NY9wC/KmTbJzU3XLZrcZ7Ke2OUJ2cuqFFV0rAWoRJRwKW+25zWVdBMupSErBsDZdivWPILss3G9rL7NbM0fdMLVtm8l5azO8I18xlJLCy70zuYA59QZJTiPBwa707d3Syw5ENiMFcTXN2e9Gzia3pZ4PTNKXlIhAuApYTMF5q6Mx8ONb+Je4+2HtiuC9gDZJ8uKw9RUAERKDwCORCwKpmu9Y3zU9Ae/0WH5RSeTPuw2xKU2yN14naNfHxW8w9JwKWrWF9LA+2/6BPKbZOFs3F8IypzV4XSDuEPpRxQXt9WX91wFKN1DCXJO+ZOjZL1cT869IVsGw1z2O8Y5+9MuHPYmxMMXHvYS+UIwUBy8XxqokHqkkXytgX55SNeUkRJ2NYBks2RNyFt23CcjvlnG1u4LtMgJKAtQjFRQQsG+MDWHw2ZifXIJCAZWvYH8s1WJbFZCRTqbNb5FXibJnp2lj2eHrQwGiMVz+zrUZYtkZbBvUX9GfdJZXMKXgB6xd+852HXbB6f7YAy64IZI/AzzSwqrklt0cHOgunXdCa1l6UL5Uz251toX8XAREQgdIjEOGvZhxZTf+3NezU2qzD1WDxO+aa+ELdkPyuzNI8G+P99jfmne9geMWVmTC13oNKpyNoBhZwnFfMPOkdM8qW+PGL3+5N9O1MZ0gmC1nb4UT4mu2JcCe0F+DtlFSGJhiexXrZ5WnVfktVwGrvlOWOH+6WoYiWZOZt4myY6YfKTPhtY14x/mva67b5N2n4Oy0cxArMNiPaC0v7Xx26mXY4ZXzrFdDOS7dVwGXQHM40Hkz3b1wC1iK31zwByx5DdxI85R1/S234ErDaP1v/RIQHUtsmjVWGp2lmbzOBn9OwMm9paxMFVxPM1WzLhaA7v8uNtNC3oziKRsByEVtXiNpwaXunkExcN9kQgVwSaACmtKYV7+P3R3cunftlr/bCffdi6IsNXNg1Hy5rTxEQAREINYFsZzsFFrAsR5o6XHZ7aEYgAQvcIZ1rTR2n+gkgoIA1ActLGP4KLO/HfgbmfIjheD/dtPzuZYfyeyI8locHkzYXDXfRwjHmRtyLsZRGKgKWPZK+VHAtNmflEVz9rz3NeFxtrNANW8NIr0lQ0NGWTXc1FYxiDNPCKND5CckrSdPIUa0NCzJaC8rP3gvMcZ9YlgMYwH3pNGuSgLUIeU/AahdrXS1Fdwwu1eFPwIp5e/jqeJqqI0tcZ7jb+75Is7amreG3JPl3jrLHFhfSW5SxjbmB2Qv/Y1EJWC4474OogYcxHXccyMrNIqMikB6B/3ndh6LUmhvC+SNn4fDaBeMjXVtZwBW4LLrPk/QuqVaLgAiIgD8C2RSwvDbXfdintUHHZH/eAElWM+P53Pf8HEy0MV7zujf5HYZrTG1WBKx/gpc5tJNfVzI07wkMJ2Si7b0dynpEvHbwVRnyLRUzM7Gcnk4XtKACVnsXuYtbXxY6wSJ3w3C/qfWO34RutHcndYX7B6To3Fgsz9OVZ8x1fJ+ijbwtszEv82p03hyYf+M2EWsfM947lpzSkIC1CLYXKecvNHu1m9ItN9SpgNV+bND/d21KV9nHIsstrdLs2eZvfONj9iJTbMxrZuHiWDGV9RlaMxPDWabW6568wCjKB852ldWdY3bFzNwF0BCBMBNwWVenUsu9hfgGy9ZwMNbrBrp/a4ea1cMMWr6JgAiIQBgJZFXAcjWOol52wYG+Yw+ngHUseAXAo77iyJ6A5Wv7LE0aT5Lz0i36b2M83d4yPktu+jb7OFFONmNxDWsCj0AClvU6TT6K4YjAG6W/4F0Mx5lar2NY6Iat8eqc+m56sNgADDdi+YgkX5rx3BG6IBfjkI1RA4s+HOfZ96k0sYKZiDuVEXhIwFoE2afAyxnqrL5EActWex1oX8SE5IW+q6XcTF3Qe8kOpgu9ub29qUcmG1sEvp+9DrZt2ceuhue8UZQClouuvT3mRlgux7B9KsS0RgSyTsBwPkneMnV5TDXNUJA2xh+8zoVtnVvc/9YQAREQARHwR2D1bHWbtUNYmSjvBSq+Gk4By9U4dcfN/BUaL04B60cMB5tanvJ3Wy06y9YwAsu5voXAxW/0Ppb/AyIYr529e4nlT1hc2J5houuOmcpxl0ACVqrAMrMu2fr3d5WJc2ZmzGXWiq3h91gmtGfTp2vcZXw80tr1tBHLzWY8b6RrMFvrbcxrktQjW/ZTtmsZbeo4IZX1ErAWoeb+9logI0XUlyxg1fAolt1TuW5ZWvMuUfY2Y/ksiH1bw2FYryRTqlmZ7kzOh1jv2dbx36g9+zU13clyD4ajTdyrxeWN1AwFoZDnufZo1iThnXN3HwSuEJmGCISDgGVXDC+kW8Q0HMG0edF+VGW11qMqa2MYErDteZhCkS8iIAIikDsClkdMnSf+Z3zYoaxKJMAPWJepUs7G5ga+zLgzaRq0MS8rIfwClmUcER5szZZyD06/jiirkuSYNGu1PkOSw8x4vgqK0w7jXJKeiJJKI5azW7/TXet5J1VNpZkvaPaqowwgSl+SGE/OahO2gozZJNnajOedIIu83xwxXCH2zBzNc4e3DE9iubpDP4x3bNRdv1REj6tNPIVaU0GhpDjfDmMXkl7R6UwdK02A10TBHStsMfGcFMz3Hb2NcUuaWTnTMRxIErvIpoberQ0n7vbtzKITG4GxrV3ITw5qQwJWUGKB5ncoYNkY7hiu0xpSaybnivgnOzjuZ6kg4h3nS8X2MzSxu98sLFvNPhgv0zno0cEWLHdBe+1My3TK+Yy5WMrpR4QV278jKlx9yvaEB7/wpxLhNDPu17qcRS9geV9wh9KNLiwN3g+41N4Q+UWseSLQOYGrMUyglv8U4pHBzsMDrwPHT/SmhWWx3Jbmj3U/W2qOCIiACBQuAcMsU5udl2yBBSyXEdPIyWYiM8IGNKCANZEunGxGdR5HwCLuHWH5EsPpJHiNCNOIM2vh73g7mAr60ocmuhDx3k7/NgXGCSzrmzqvK2OgYWM81J4lHWSdO7Z4KUvxnbmWuZ0t9O43w0YY7uls7rx/d10J69nDTGKO7zWZFbCOIckTRPh5/rf8C/vidTFroU/7Q9oOQXxtFQ3DLWC5Wnm9vXty14Bx+ZnuRJ7/eRMtT7M8sXQKlfvZcElz7NHsTML7bdovsK0IR2J4noQnyk1Z3HrvZW5PViLKmlhqgZUC7wPzuucFWSsBKwit+eYaLiLCzTQvRpD8ZVoXvjGjceLiAsMeTW8S3A9sF3h3wzkkuJMIX5k4ruPsIsPrAj/Eu5+clhE0ozHJXHr4/Wy11ZzY2ll3VMA4PiTiJWXMNGOZvsS/PfeaYAj9KWftQC873O8SyzkmzrfOfkkIWPODtEM5iYjXMrbkYg94M2p65gm493vHmbo8dzrJfFydWrTbU8Ya81ot62+vU2KaIAIiUGIE5pg43bMRcwoC1n6ZaOeelViCZGC5WiRJTvJzhClNAcv9JP/e1NI/aMwp16IyHM006sxkXJaLr2Fj3lv1oMeSHjDx1Goj2Wr2w3hZA/6+85voHVQ0TTMD65fMme6pZMLbmJddtJYv+G2TxlDJqYt7AA5gI+tTbYyPgEFZ36htgz2Ie50w3U2yaCZTlpywMf7eWqto54Dm64kQM+M84SvQsDWch/W6lgYbhltMLYcHWSQBKwAtyxdYDjLjeSXAqkWm2pj3XHd0QBuPEuXQzgSfhW3aau+EiyvyP9D3foa5prbz7C1bzR4YHvZtt23iFBNn5YBrvOn2eHrQ6L1g8vcdYTnQ1LVlNvpbkIpXIV7TXlnffQA5JbNXiF2Va8VBwKn1t1HGiYtrBVocIfqLwlazBoZH2//ulvG3SrNEQAREoOgJhEnA2jmdGkvZvFKBMrDANUhxXfs67eiVsoBl+JIyNjRjmJpq3K11eNwxIdchK+gJgW5+hRd7BL0o5zoMh/n009UtedzE2cPn/MVOszHvoc7F1q1TO4bDTa13rMv3SEPAcrVUjqA/j6eaCWRjXraSq3fj71nK8DSWk0ycd30HmIeJNuY96F7YemrF3SvL5siF6STYrLXjWAMz+TaIMBvUPzuMPbBch2U1n2udsPbv1uySk9Mpwm9jXOGKUWPp4nNfN+0BEgwxN3q1/3wNCVi+MLk6bdNMnHV9zV7CJDuMVUjyN+CPPm25++kFKvlDqmK2rWZTDGMCdeVNsPSS7iN7fGvPwkavO6sT4/yO/5h4SlnE8+y3d8R1HYY7Lw1gOIEK4o6bvw9dv2EU0Dw7nDK+9S7U2e2pnfmusl9A9ORqAAKuFsTHrSnprk2vRjuB9jPWw7Bs2Poh3FdgREAERKDECUjA8nEDBBSwXPUNl/XsilMvcaQoYL2NYbCp5ePO7C/p3+2f6UFXr0jt7wPZibCqGdd+LKvz+E5qrQPr6o74HQ+ZOHv5ndzRPHs8fWn0HrR8ta8P2o0zRQHLCZtOjLgv7fiCZQS6RgonmDjPpLtvttd7R5aq2QnD2Bx3l/4Iy3AsX2N5P4hw45eJjXldB133Qb9jWmtu2IWmjtF+F3T49xDjKsB1Uw1SZ2yEiXuCoq8hAatTTP/CcIypba/n1+n0Tr87Tm+tTXVlADP1GA7x82Jlid8bbR3g3csBv4XWx5s41R3emzX81v3N+Y7D8hpl7Bo0g2xh+zZGfyzXY7xO9p0Pw6bu2pWsgPULITuUfYl4Z1ZjAT9QOoesGaVMwAlXn5s4w0oZQmext7+ddW9A3I9bZWR1Bkz/LgIiUKwE3PGUNcw4vs50gCkcISyWDCyH8jgT9wSUJY7AApbhFSzHmjhvdmbbz7+3v8WvC3isaYKJM6Qz++3ZV+djOKWzub/8e1AhaYkPWjHvCJTraLV8p/s3s5K5yX/zgIACVlsdpghnmXFpFdieF0ZAQdUdzTvexAMXue8UW7Ym2Gp2w3jNJfaG4Edk0/BrKoZbsTxLfx4zI+aVoEjDJNghbEiZl321jU9DDa35dReaWq7wOb/TaSkcG76ZMs4yN/Bdp8bb6sL5P4rpPsMyXNbEVjOsXfj04y6pfNbYGM+B1/002HD115LUmBv5JNjCxc/2PrcTjPQtvrSZyVgtvPbs3fPAq8vXgZO8gfHEupkddUFtb8DlmnT4PebaRJLt0j16+YvDtoadXMdSX2KcBKwFr3Prj5djsSyNYUQmbmrZKFkC03HtPsu4mhv4yLh+PBqdErBDOYwoK2G9Whuu3aqGCIiACJQSAVe89VwT996oZnRIwMq4gPUqcGJrVzX3/zM2WmsPHeKVGwgw/Dz82WFsTZJbWwuPr+LLtOEiU8twX3N9TPIK1/fhcSw7djrdcoup81/zJ6CA9QOGWLqZD/PHEFD4dNlFJ5g6nuyUQ8gm2GoOai1wvSrWEyJzOVynzfuYzimZOFZoqzkTw+UBAphq4pl9uWpr2BbrCTB+h7tvh5paf7WJJGB1iNV1b3U1EQN3O+3Ioo15wq5rVuH7+Lefz2y/N4b9//bOA16Oqmzjz7k3hVCkCkkoIiBIEbAhCBbEgkiHCJ8UKbl7k9CLIDUEFBSQTsjdG4oiCqJIURGliIKoiKggTUUBgVBDDyl3zzfPuXPDzWZ358zszO7s7vN+P374cc+c8j+zs3ueect+GIuRuAEGm1W4hrmsfgfgHozD72uFStv9sARG4TUAIz3HjiWqRvVpC+4zdqpXHjGDfryMwzreA6vsi2gkrEs6STduhhfKRCAOgTtgcCYM/mJm4Pk4F6qte2vEz9+mrmJhF/aJ8YZM+ERABESg1QkwEfhdpi/BW+WIlUvASl3AKgaVkOKEIHndmy5HJMAqxd55p3wOQ7YXO8C66oN+VsJYMxPP+TX2a2V78StYrxBJ5qVhfloviylgPWKKsZKuR87B9uK68MVbZFsALStgcXHOS2M57AzjQpZYEKBxZvBTWDxuiji6nkETCFi7mCKur2fMStfaghNR/PMvWexr+nGlzzwkYFWk9CoMTsJYXJw0513FfezFrrD4ic++uDaDQuSl3u09GtoeF37HKDLmkJoFi6PR5arFPuAb3h4KWJEVZhdOx2Af0+deiqRmtgDfUMz56MYqErDK0Fv+hDwAK2EUvgCLY2I9YFLbRnXUYgSeg3XlQ/nDq2JJ3RZbT1On64SsAYxHF9aEcbkK3t/UCWlwERABEWgMgQdMERunPVTHClis+2tcmB/z+NS0mJ402QhYU9GFZ3FSMFHvfDfoxgq1cpC4XEYFl8uKJd6jjVW5RuHD9SSlrzSILeDzQdUsHsBXjphEawlYk3AKSt7eai0tYA3tmzvsjsT7YbA84A6dX4y+sVJpwQP2DFP0D4UdPqqdjPVQwjmwLvG+nxXRlUV1RDsR66PLVbH0sy4U8BIu8/FCk4BVASkF0AWYmGZONTsFS2M+jowVuTUSK6X+bJ2IVdCFw2FxDSzmYlU8Gleksz04AMZbWLsNAzjcXArm9EvNbC/2gMV3vMII+b2X2sht1pF707CE+z/mDTgkSNDGqhwyEViUwHysjDGY0+nVBbO4LdwP76OxJF5zFVteyGIM9SkCIiACOSIgAStiM2LmHGJI/yGmPzosLw8CFpdue3AijHceEl5yrSniy9Ww2YIrtf5rAO/1us9L2AYzcUfah3Y7KM4x2X1U5bfWErB6cWKMvDFtIWAN3UfuN9oRWAILMBJvY/fwhaNvCJLX7Vih0QIAZ2M2TvQRc4Zfb3tchM01zQr3WmQugxXf3o4BgTnBtvVJPC4Bq4yqxR+wND5jznVeSalZrOp5Q6NGVAJMOjmGaZtrk+eJi/W9anAqxmJaXJEsam2uuN4sTA8KOFRNNL+wDwlYUTjf+bstuB9AfIO0tJK9+3Nrw5Z8AL6BEvYyM92PQlmDCNgebAjjqvdQ0OLnUCYCIiAC7UQgLwLW501fPr/fYv3QBh4Ocw7dGnWT5EjAYtLsc2J4Hs8yxerJtcPvTf835QYfN324J4pXkr/bgkucTEGtls0N/niKKfrlKcpBCGHHCliVNtHug6UwBicD2B8GXYFHxTJBAv9RSe6XmtdYnIq3caa5Em/69m0LrljQj3zbowtbmxn4jXf7GA1dXrjlXQXRcd6XdWErMwN3R7WXgLUYobtM0TtpfxTehX+3PdgUBvd7XwAcjdm4sB6hKcZYsZrGumcGn8+Z5Au3BUz3yoO1AB+VB1aMLbYHYBmMwFEAdgSwBuAfpx9jGDXNJwEKV4xZv7yaLTkAACAASURBVMYUY5WizudqWnhWYaLbQ8Mf+Mu28FI0dREQAREYTiAvAtahGIWiuRAUE3JlMQUsJg4/3PSD1d9qn4cLzsvXtxJuJiGEQxO0BRfK4ZuHNW0BayJsuqEhw8AzV4xPyfd7TbFiUuLF9lACVtSd3by/W4Y2dYOVzTaHwVJBgaONUp2NxeGYjz5zhZ8nU2wBC1jOFPFqqnMe1pntwUdh8Cfv/iVgLUQVswphPgSssHqe9343sGEsAYtJ1K13uGHcVTB1064eF90qAcuDUnkTOxnLY8BVi2EZVnplMQ5c1o4ELF6AcW+inzZFlxNNlhMCthfHwmJjWOwaVJVZIifT0jREQAREICmBvAhYv2NZ8DwWI4kpYF2CeTjS54CbFw8s3jhNFbCS3rnpXicBK12eTe/N7o+1MNKFxtJ7/pMAlktlUhZHoR/n+oS85k7Aip8HSx5Y4U0jASuVT89wQdCm22P2vUnAqoOxy5O1gqtEMw4WJ9bRlS7NH4HbYPFnGPzLFDEzf9PTjIYIuKoyXVgZJZff4D0iIwIiIAItSiAfAhYwH11Y18xwIS65slgClsE5ps95zUeaBKxIRI1sIAGrkbQbOJZzAChh7/Dc9AUAH6p7+KWwZFR+I5evqxdfhsXVMcbL1gNLApbbCp9KquV7JgErxl3s0TSWB5ZHf41oIgErJcq2F/ujhKXRhZ1h8ZmUulU3jSfwexjMdOLVbDwUN0lk46erEUnAVcUZjU87jyxgTwAfFBkREAERaDEC2QhYk7AqSi53ir/AX8JaZib+kyd+dgrWwQL8wzunjgQsJoVn7kj/HFj52HAJWPnYh8xm4ZL6z8LHXCoIi2/GygVVPiuDq0yfE8WqWlg5cQqMq3LmaxKwfEkNa2d7MAkmuvLr0CUSsBJATvESOwWrYwGeTLHLhnQlAStFzLaAkTBYEyWMRxeODkSQ7VPsXl1lScBiMpjw1eA5U8QjWQ6lvrMjYCdgDJbDWjDYIEj2/m3vykvZTUk9i4AIiIAvgWwErAKWhHXlvhnC42d5FLB6cW3oaev321UClgSsRe/2R0wR6/t9APxa2Q6uQuhHKLqVywXFSu+mjoTpj2Gk+Q1YobCi2QOxArpd4umDo2e0sIUErBiwhpp2goDlPPom4eMo4S5vRDnNgWV7sR0sfu69jpw09PsRkJPJttI0nJvsfCwFgzVgoqtGtNLa2miuL8NgFwzgcbyK5/NYGaKNWDd0KS68d1mXkHcFdOGhhg6uwURABEQgGYFsBCz+2C7gcwBu8Z5WHgWsgvO+4ssJP5OAJQFr0TtFApbfJ6cprexEbAyDK2GcJ31c+6MpYvNqF4UJ5b8Di71idJwvAcvgSxiLX5ppKNVaQ6xwMIuDTL+r/JaadYSARQ/CZ7A9DG7wBpdXAetATEQ3+r3XkZOGErAatBG2AFZL+waAAoAuAN0M/W3Q8BpmkMC8EMT0oLLIEYLSOQRsweVZYGlwfu74j0wEREAE8kbgQYzDB8206p4ESSdse7ENLG71vt6i3/S73yu5sSAJs7+AZcDKwd8yfTjVZwHKgeVDqWFtFELYMNT5GsgegtGY6yIiGOrHs5KvPWGKWLNaY1twuYrPg8GXfTtkovlMqxDGzYFlsCPG4ucSsFyhizvDYgA+25l6FUIXAtsuAlYPemBQ9AGZpzYSUJqwG/ZAbIZul/R9nSDMaQxQ/aHbhOm105B8S8G4Xv6QnY8iNvWpVNJOALSWRQnYAiYCOBLAGgCWEh8REAERyBGBRzASW5mL8VLac4otYCVMrpv2vIf6sxOxGrpciNHanmP8EqOxh7kQr/m0l4DlQ6lhbSRgNQx1/gYKK72fAbgiWb72P8zDB8wVeKXSBbaAlWBxOgx6fDvMnYBVwtaYiTujzjHywFpsh9MXsOiAMhlbYQC/9b6f8uqB1YNdAq/H67zXkZOGErCavBF2UIE/CxYmUEDHA9i0yVNq9eHfgMX9MO5H61sATlZOq1bf0vTnbwvOG5KftW3lkZU+X/UoAiKQiMBjGI1tzIX4X6Kra1wUeqH+AMB63n3Pxoi8FDIJ5n8jgB285w5cb4rYxbe9BCxfUg1pJwGrIZjzO4jtxd4o4dvhuchnom/B4NvVPC7tFCyNARwZnLWYB8vX8uWB1YWtzIzolDQSsLIXsDiC7cGmMLjf92ZCfgWsViz0oRA27xuvAQ1tLz4Ci33CoRhyOMElNpRFEXjaxSFbF3bxHBbgCnMZnom6SH8XAVvA2QCWB9xBh/+WiYAIiECzCPwTI/E5czGeSHsCrsjMYALjc7z7tvia6XfPyKab7cVNMQvjSMAaPGS14uFEAlbTP3HNn4At4CoAX/GeicHtpg/bVGofhnztBYPvefeXtxBCCVgLt67ZIYRtJWBNxQg8i/kxPhe5aCoPrFxsw+KTcDmzLL4M48KcmLOHVTr2yOl0Gzst48IrrocNS0Mb/A9jcX0WeUMauzCN1gwC7s3cAuwGg41gnZDlG6LSjOlqTBEQgfYl8BhK2MbMTN8Dy/3gLricVn0x8JVMsfk5A20vdoV1Qtp7Pef+HCwON/242rM92bwAuMIfPlY0xVjhTT59Dj+cXRqkPzjA86JZpohx1domELDOA9IXUD3XMtjMYpbv3tkCfgJgV8/+lcTdA5TtwX4w2AQG95k+fN/jkkya2F7sC+uqSY/1GqCGgBU+/+gU8COvvgYbyQMrBqyhpp2QxN3dT23igRV+NqzXVhssgMXNQf6x273aZ9hIAlaGcNPq2r05eBaruS+UhU8IfAJwichHpDVOjvuZgxKORzf+Hc7xLXTjH2Y6ZuV4zppaixEIRWO+rd4k8OY7MYbreoutVNMVARHIKYGHMQ8fr5bHpd452x5XNeniMAegT3dMbnCa6cNUn8ZZtbEFnA/g0Bj9P4jZ+HCcysISsEK6Bh83fa7gSUuYBKz0tsnlnlqAIgy2DITucTC4yvRh7/RGiNdT+HLxDgAf8bpSApbDpBDCxe6W1HNgOc6dKGABJRhMNX0uDUtTTQJWU/EnH9wdtg1WdbeS+yRhGZdSzjh321YWtd4OcsdOg8VNC+lYlLAA/zFXgH+TiUCmBFwVnAGsjvlYFcYlDZaJgAiIQCMIsArhJlFVppJOxO6DpTDGeTQcFKOPh0wRG8Zon2pT2wOG/VDAWjFGx383xWEv/DwulIAVQpKA5XG3vNPE9uJEWJzmedFjsDjU9OMWz/YNa+ZEYoMvwOJ9w6r/vQqLk0w/LmzYRMoGsr24Bxabe42ftoDVjRXMJZjtNXbMRqFjAosK+XvEKoTwnWNhk6sQciKxBSyLzUw/7o15qzSkeSzREzjFFGPlkstkDRKwMsHa+E4tKyIUMAJLlYlXL2IZjHFvLr+es2TVTzvXYIsfYZlhVYIGU9fOy0vi2MbvpEbMCwH3mToCS+B1fAxd4FtAmQiIgAhkSeABU8TGWQ5gC2B1L/4e8DVW8/2pKWJ33wvSbGd7cBgMGNbma29hFN5nLoqXBzMvApbtdZxZ2GdNzwXfaIrYqVrb2CGEErA8sQ82a3UBKwwr5udrVMUzgnEvk48yffhnLDApNW6qgAW8aIp4d0pLWaQb96J0Ll4HXG5CP5OAtZBTS+bAAh7FaGzmWxnX76ZIp5UErHQ4qpcGErBM3vYiVsU8bIUu7AHrfjz7P1Arz/WXKOFqjMDfzAw838DlaCgRyIyA7cUhsPiWCitkhlgdi0CnE8hewJqElTGA7zlvC3+7E8BOpohX/S+pr6XzUHgOu6OEa2L29JopgkVwYlluBKweF77u69EDjMaytQ5ELiyshNNgPb3uDHbEWPw8Ky/AWJvi0VghhB6QKjSxk7E5BvArAMt49HAkxuFiMw3zPNqm2iRVAWsStkQJxSAP1ga+kww8TTJx9AgFLP+oEnqhzsFp5nsuB3BNiyVGWBxk+jE9qs84f++YHFgFl3vwohg5+IABrGguxctxePq0tT04CwM4F6OwIMm52/bgbzCeL88MzoDFVFNsbuL3TD6YPrDVRgREQARajYAtoB8A3b5lIiACIpA2gcwFLE7YFnApjEuQHCfdwPXowsFmBp5Oe9GV+rOTXIqEKwFsHXO8H5gi9op5TS6SuDuv316cECMkDT4HbNuLHWBxoyeTAZSwqpmJ5zzbN7WZBKz4+O0EdLtsV/HsYIzGTHMh5sa7LHlrOwlrouTu2w949DIA4MemiD1rtbU9OBbGvYj0tc1NEX/0bezbLvAg4nPNPxG2xb6m3z0PIy2WgAUcgr5AnDTwS+IdOboLrZsEg0s8mromPs+w8r7y4IHlvksHC4ywkISfDeBD5lLc79fYr5U9AOMxwoUmjg+KfzwJYC+XeGcEHvcVs8J8c/QI9LGHYTHZ9IMvtppmErCahl4Di4AItBoBCVittmOarwi0FIHGCFg9+CKMy72yekw6V6ILx2UtYoUH7GMDb/BvxpxfosOQO4jkoAqhLbgKuKy2uLPvun0OfzEFLNa9Xttcgsd959DMdhKw4tMP8y/x0O19n7lRDA41fY3Lh2V7cAGAXhgX3hhlL8Bgd9OH39ZqmEDAyiSMMKbIxGIa+/pWhIzZ93noxqlp5foKxZTTAXw1asOG/u7zDCvvq2UFLOA2U8Rnfdn4tLMF953BvJZLDGv/JoAfArgLwB0o4inDbNlVzO6HJTAKc3zGC58F+/jej959xmwoASsmMDUXARHoXAISsDp377VyEWgAgYYIWFxHePBn7qTuGOui98UVmI+TzOV4IcZ1sZragqtwdEKsiwYbn2WKOCbBdXEFrL8AOCw4iPBwkJrZgivCc5V3hxbfM/3RB0VbwPthcQEMPufVt0G/6UPBq23CRnYy1kIJG5q+YQV7EvQlASsBtMEE1OvC4NGYV9NriwmcYwvLMceBHQx1vhwG23le+4QpRueNsxPxaXS5nHrvVHWvPQAP9Yebogs9TMVsL44MCm99J0ZnzMHK580DPtfEFLD+jS58xczAn3z6rtXGHogVAt8+FtyIVbmypQWsSdgIJRdG+Clvfl14r5mB/3q3r9HQTsTG6ML3a3opMtd0Fx6BBcPrK953dgJGYTncHlYgjZ6awU/RjcPMdDwV3Th5C+bANP3unlrMJGAl56orRUAEOoxA+KbjYDDziEwEREAE0iXQOAFrIj4cFqfwyYHzzioN5sDi11gKe5pzY7yx9eRkC87Dg8/YuDYfXVjNN2SivPOYHlj0RrkfBpPSOPhxLs77yuK73gcIXjSANc2leCIKlAtN7MERMLEOzUeYYqzk+VHTWPh3J06U8AMAawSHqiNNP37mfXFZQwlYycjZA7AMRuAkAF+L2QNFrHNMEfSQzMxsLw6EdQUnfJOo+wlYn8YIrOvC2+Kkgvgr5mFrcwVeqXfBdj8sh1H4Rxju5dvdNFPEKb6NYwpY9MvZtt7KmOEz5qfBc7FqQYlq829pAYvhuMvhmMBLkF5nfmZxg+mP6f1YpWdbcGLy4Z65eWeZosvbtZhZ+vhNwvYxQs153+yL8fihmRY7HNmLky3ge6GX6GmmiLPKL5KA5YVRjURABETAvbVkSXeWoV9VPERABEQgZQINE7A4b1twP6J/mmANDEX4kyl6lrf3GMDNxaIHxoVX+IQMlffaA+C7SRPLxhawODo9WLqwk7kktifLInN3b7+Xdx5PFO/i2FKBx9lbPhfYSdgPJSdI+Sa4fxqjsXYWOY9sAfcB+FA4bwpw+5tiskq/ErB8dr9yG9uLbWFxc4IeKGLPxABOMJe5Snqpmi3gSwBmAFjNu+MStjAz8Qef9rbgvDSPj/FZ4GfsAlPEcT7912oTevHvG+MZdx8sDjX9+L3v2LEFLGA/AMwdON93jOHtbA9ODouCfDzJ9a0sYIXfo5Nd5VhgKc/1UwS+0hRxgGf7is1swXnfnglgZa9+LDYz/S5XVuX+erEBrBNXfY1eZB81Rbzoe4FvO9uLa2Dx5bD9i0G+zm+Ue2JJwPKlqXYiIAIdT8AWsEbgqsvcER/peBgCIAIikDaBxgpYyZI5v7Nmg1mwTsiK/dZ9kQNQAUfB4GRYLA2gKwHUMzEPZ9TjIZFIwBqcKCtKrVVPhcYwYf0jQf4rrt/PLHbCePzMt1pgmOOEoRi+oYEUKe/GaHwprbLvtgefRReuhMXYskXOZgiOb4hU2b3D7+Nd/aDhEVPE+p5tvZrZXpwYI+n+Y6EYcYtX5xk3slMxCrNwRFhdOe5o82DxKgxOTCu8Lgwb/DWMCwV8V6wJFdFVK8dP2T2zJIBfxAr7At6Gwammz3mFJTJbcKFQk2KIVxTJr8LL+Kq5FkxS72UJBKzX0I0PJsl7Zwv4EYAdyvIvec1zqFHLC1hHYAzewHQYJwT6GsPxZwbiTxJvYyaP38l57Pq/kIjMD2mnYgRmYU9Yv2IB4UJfMEVPAc2DTCjKUWBeryy9wfMAjjFFt2ZnErA8gKqJCIiACAwRsAVXOSZuZSwBFAEREIEoAg0VsDgZe3gQAPEWnq3nABIu6kzMwanuf4+BxWzMLT90uR/Iz7pUsQbLYUnMdbmufAWVaux4kP6q6cfVUXBr/b0OAWuoW+bD+kKQu2u+ryeD5cHnTZwM4Osx574AFpua/lhvy+lxx3CTo2KGwL8dCItn4xWchmsx31ckGPZ9ORJzMApL4kZYfKbGOucF+dXWNEV3L3qbPLC8UVVsGFb6Ozd2Qvfy3rqwP+bhJ5gf+PkthwVRnnuuUMNqGIUXQ8F6STwBixUTraaEr5qZLtzI22zBfeaYZ89fNB7s/WGUcAC6cJ/P59w9857HBijhjEDs983nNbSOB9CNCXE9PF3ye4NDvGEMNVyAd+EyvFEz2fdUdOFxjMEY0OOVzxOKgXVZqwtYXLwt4MzgW+8wz4ID7/CyOAdL4HhciHk+z1Y7AWOwAj4KG7MC4Bwsba4EE7vXtNAr84aYIiu/jy7CPBxnrsDbUWOU/90VlRi8pw6LKNzyFAwKmIFbWDVTAlZc0movAiLQ0QQkYHX09mvxIpAVAWahuMv04ZNZDVCpX5e7ZCK2Qhd+HVPYqDVNihDTUMI9izTqxo6B18YRQTjOCimtkZ47xwV5PVhRsS5LQcDi+G/A4FIM4DKUMBfL4snhecLsIRiNBVgV87E0usHC9deEb5rjzv1idOOkJJXDbK9L+LtHEJIxItagFt9DN4oo4TUU8WDkIfcZrBN49iyBbuwT7nl0sQCD1+jdbPrwT9+5ScDyJVW9XZhUfGpsr6fKXQ7AumTQX0epRm6cLmwJi2Nh8J46V/AoxmEDX0/E4WPZgguf3DbR+NYJFoMFF7pA8fVVdINi75KwWBYDGIERwad0ADvAYFqCMRhmdpUpxvLqccPYKVgdC/BkgjGBkvv+eRUjUHL7Z1FCN0ZhQSg0jsD7UXLrjvf8qDGZdhCwHPeCe4mye8zCKPwG/hlKOB8Wz2MAz5YXSLFTMDZIFL+S24MuJ9T6FiAYov4YlsKmvjkrbS8OgXXh5nG9oX8bfD+wQMFcjMZ/zXS8UesetAdiHRgsiS7nbUVPPh/7C7owGZfgXglYPrjURgREQARCAhKwdCuIgAhkQGAeDA5sRmlqOxGrweCiJAl4M+Dg2+VsWJxu+l0J8botJQFr+DyeBlzS9P8M+4/MnUiPs43rmPAjMDjA9JWJg54d2kn4NAZwFQzGe15S3owCxR4wNUKaKFwN5opkyH1cixXmJwErLt7K7UOPJHol+eZIS2fg+nrhvbiB6cdjSboJc8+xymDcg/rw4SwsXgwqfN4N4EkYrAeLLVIQAxN749YlYL2zMubDeglwIuQqgWfMyCSMfa5pGwGrB59CF66uECLtg2GozeVBfsAbyy7YB3B54ZIUj/ovLL4Q5zNiC/g84ASspOHW9ML6FoC/RSyc3xHrxoHj2hr8Em9hdwlYscnpAhEQgU4mIAGrk3dfaxeBzAi8hTcxzlzlvFAabrbXvdW9EBafaPjg8QfkD+RLMAcn+YRF+HSfgYDlM2z8NhbHw+Bsn/Clap2HSaxZNSvaKyr+DOu94vRgbQzt8jIJWF6YvBpZ5qKDy/GUmVjhNRH/RtdgJA4yFzuhJZG50K/4lRgTjRXrIou9TX/o4RXrQmBYLrF6hPKYoyZv3i4CFgnYHhwH40Ir86KvHIc5uDDu92RY4IUvYNZKvrMZXUnPx6XRkxfAGa1S3YqACIhAugQkYKXLU72JgAg4Am+aYux8LKmiswV8CAYXwGLLVDtOuzPrwi3ONjPxv7S6bhEB604YHGb6It9sR2KxBRwKuKTSebITMBvfjpmwWkncU9xBW3AegnWH5KY4pWpdMfyWSZ2ThcoN6zVIes7wyVMaMGffIY4wRecBk8hCzzJWOuxP1EF9F7EYBT1v9vDtpp0ELK45DMG7wHf9Gba7DiUcbWYu4gXsPVzwnXhQ8JLjtOB7Ynnvi7JuyBB9g+PNDDwvAStr2OpfBESgrQiE5V13y+nb67ZircWIQAcRaLqA5X5892BDGFfp58O5ZG+xP5bAz82FeCHN+bWAgHUvRuCrZjoeTmPdLon2cjgTBkem0V/dfRgcirnoj5sEWB5YdZNfrAPb63Kk1VUUIf1ZLdIjRcsj0xCv3DOv4PJWMQE3vRKbbZMwGzPjiLiVJmwPxGbodqFoDP9rlD2LLuwMiw/B4hLfQdtOwGJS8ln4RpAL6jhfBhm0uwldONTMwH+T9m33w3IYicvC1AL1hNkmnUL5dZdjBI430zGLf5CAlRZW9SMCItARBOxEfBpdLuHguztiwVqkCIhAIwjkQsByB7pJWBUlfDWiIlAjmCw6Bqt4GdxaT/hctUnHFLDo/fFqChUUfRn+ByOxtbkYT/he4NPOHoQVMRcHBxmAmu19chjmoRhXvHL3agHywPLZ7BhtnLi5PHaNkVg5Ru91NjX4NeZhr/JE13X2OihiDVboHKyk2gwzmIyxuMxMc0nh6zJXMIKfbaSTI9BjMkz3vja9fWwPJsF0roDlnksHYoWg/uQUWOfB1Gj7LbowgV5K9Q5sJ2IVdOEcAF+pt6+6rjf4ERZgsrkULw/1IwGrLqK6WAREoNMIuKpdBeeSW2/1nE5Dp/WKgAhUJ5AbAcv9AB98zrHSVN2HqVQ23WIn079YcttUunbrLTiPrpU8OyxiHCZjFq6BdVWnsjQmU14qC9HOrZveAs/igCaFG3EKx6GIb/uUkK8EWQJWNree+/z3uAp6M3P0su5vGIcPJak46EPJrbnXVRc82qd9ym2ORBHnJf0cVPxsDD7DvxE8w49Pea6LdzcbI4a8xiRgDeIJn629AKZnzv+dAR7DOKyf5mfEreN/2ALduKuB6xgaioUarsd4fLl8TRKwmrAbGlIERKC1CdiCc8uVgNXa26jZi0B+CBicZfpwTH4mFP4IH/TGopfL+wCs0MD5lWDxGgxmYB6mJfHOiTPXuAKWKYIHEwpfPBzuD2CdOON5tH0bBi+YvkSV/Dy6X7SJ7XXlz48IDlsrAxgVu4N4FzAJ/00YgQOiSq1HdSsBK4pQ/X+3vTgLFqyERq/zRocSzQXwPJbExuY8vFL/aqJ7sL3Ygjn2AGye8XopTl9XbyL6WiuyR2MpvOY8aOhRm6SKXfXuDV6CxU/Qja+bSzB7qKEErLJnawHHhCGq/PxkVSCBYXVvmSLWjr7Dk7WwPfgogOthXE6sMcl68b7qDVcFcxzWqibGScDyZqmGIiACIhAe6iRg6VYQARFIk8A4dKf51jTNqTmhpgc7wuBwABs1wCODiZkfQAlXmZn4YdprqdRfUgFr2KHtjiBshvlmkpYeH+qKwt2j6MKvYDHVFF2oYkPMFpwHGqvQbQFgwwwGpTff3bC43/S7cK26TQJW3Qi9OrA92NSFmlp3QOYzIGtjNdbHAPwRI/D1eoXOJJO1vbgJFssB2CrJ9RHX3AGLJ0y/E78zNedBM8tVmO1JSUBhaNo/YHGO6cfPyicvAWvx7bT7Y3WMdOGEnwKwZoob/iKAf6Ib+5tL8GiK/Vbsyk7Eauh2oZEMMX5vBi87XgfAQgA/RhFn1fJIlICV9W6rfxEQgbYjYAv4O4APtN3CtCAREIGmEEiSyLYZE7U9mAKDD4bJgXdIdQ4GP4PFLBjcYvrw41T7juisbgGLh8RnsDmMO5BuAri31XHsJQA3B+FLb8Diu2Ym/hDn4jTb2l58BNZ5mNHjjgeV+szgT7DuwDsb/Tg61TAp5cCqb29iXm0n4YMoYQrgPAM/H/Nyn+bPBp+dn8PicZTwA3NpunnffCYwvI2dgqWxAOcGuaSWDj/T9Xi43B98nvjbcb4pOjGpoWYLbh30nqE3VnwzuAUWT8HgPtOHGdU6kIBVHa17EQTsiC6sAovt42/CwiuegMGdsLgXI/FDczH4/dEws734JCx2BpzAm4YIy6iW22HwHwzgCp8KwxKwGrbdGkgERKBdCNhe7A+Ly9plPVqHCIhAcwm0ioA1RGlYondmWtkgzAUVN0TlVQyKVg+5fkfgSjMdTzVjJ+oVsBY59A6GIG0d/jcmh/4igA+VrYuH2VuBMCyKwt3S+KE5F3Oasf5KY9pJWBklTHR/Y9iIxR4AVveYHz2trggONoNJ57txO17EvfVWVqs4xx7sBoP1PObEJi+ZIvo823o1s5OwJUrOqyLaLF7GAvzKXI7Hoxvnu4U9EOugG18OZzkeFnvBuMNsfLO4ARQ5B++zJ00fvh+/k2yvsHvhXRiDrdG10DNxQhBOtWnEqAwRvA3A71y7En6HV/FHc23z8graCRiF5Rfm+GKl2W0Bl8B+cbN4GAa/AMLE2d242lwSfe+GIiefeV5mivGrP9pe7B38BqeIGm0WT5l+XBndsHEt7BSsjgUuLJdGb9ftQjGo1iRegMEFYLp8g8cwCjeZC8EQ26ZZWPDh2HACSwUetp+L8fKG1Y7pZcmkm49iPH4axwtdAlbTtl0DHbcktgAAIABJREFUi4AItCoBW3Bx7PlIbtyqEDVvERCBIQK5SuAed1vCsILNFgtPsVgCBu8KQuEsDBgSVP5j+y0M4H6ft61x5xS3fZoC1vCxXTWw+dgk8KpiuMWgMUjQ4AnMwYPmSrwZd67NaO9y6byKLdCFFSPHL2EBvQNMEQxvkbU5ATsZy2MBtkQXeIB9x0oYAeP+2xL0OkIJr6AbpcVwWPwZRTyepmdelsjDAhebwUSEgg1gAF140BRdSFSuzK1hItZEFzaBqZIby+JpjMBfmxG+mStYGU/GfX+OwKawZZ+f8nFLeA3jcUsckSfjqS/Svfuum+ciU/y8FC1+G+SSpMdlIpOAlQibLhIBEeh0ArbAQl0yERABEaiTgMUeph8/qrOX3F3u3s6OdZUMGYw2P68/vDm9rASs3G2KJiQCDSJgKdP2YgRGuxxMFtdifquIVA1CpGFEQAQSEpCAlRCcLhMBEehsAhKwOnv/tXoRSJHA+HreRKY4j47tSgJWx269Fi4CIiACItBiBCRgtdiGaboiIAL5IGALLsdHsmSY+ViCZiECIpAHAiWMNTPxXB6m0qlzkIDVqTuvdYuACIiACLQaAQlYrbZjmq8IiEAuCITJCxfkYjKahAiIQGsSsGBi1g2UL6i52ycBq7n8NboIiIAIiIAI+BKQgOVLSu1EQAREYBgBCVi6HURABFIgcCxG4/xmVxNKYR0t3YUErJbePk1eBERABESggwhIwOqgzdZSRUAE0iMQClj/AzA2vV7VkwiIQEcRsNjS9OP3HbXmHC5WAlYON0VTEgEREAEREIEKBCRg6bYQAREQgQQEXBniXvTC4pIEl+sSERABEQAkYOXiLpCAlYtt0CREQAREQAREIJKABKxIRGogAiIgApUJ2B6sC4NHxUcEREAEEhC4FiUcaWaCnpyyJhKQgNVE+BpaBERABERABGIQkIAVA5aaioAIiMBwAhKwdD+IgAgkJmBxIMbjCjMNpcR96MJUCEjASgWjOhEBERABERCBzAlIwMocsQYQARFoVwL2ACyDbpwAg2PbdY1alwiIQEYEDPYxffh+Rr2r2xgEJGDFgKWmIiACIiACItBEAhKwmghfQ4uACLQ+AduLbWFxc+uvRCsQARFoIIF/M4ue6cNtDRxTQ1UhIAFLt4YIiIAIiIAItAYBCVitsU+apQiIQE4J2In4DLpwA4ClczpFTUsERCBvBCymmn6cmrdpdep8JGB16s5r3SIgAiIgAq1GQAJWq+2Y5isCIpArAraANQCcCWCPXE1MkxEBEcgvAQlYudobCVi52g5NRgREQAREQASqEpCApZtDBERABOokYHswBQYX19mNLhcBEegEAhb3oQuHmD7c0wnLbYU1SsBqhV3SHEVABERABEQAkIClu0AEREAE6iRgC/gKgIsALF9nV7pcBESg/Ql81xSxX/svs3VWKAGrdfZKMxUBERABEehsAhKwOnv/tXoREIEUCNgClgVwDoADUuhOXYiACLQvAQuD75o+7N++S2y9lUnAar0904xFQAREQAQ6k4AErM7cd61aBEQgZQK2gLMBHJVyt+pOBESgvQj8HvOwjbkCb7fXslp7NRKwWnv/NHsREAEREIHOISABq3P2WisVARHIkIDtwWdhcD6ADTIcRl2LgAi0LgEL4DemiM+07hLac+a2gEcArOC1OosrTb9eVnixUiMREAEREAERSJmABKyUgao7ERCBziVge3EdLHbpXAJauQiIQA0Cb8DgeNOHC0VJBERABERABERABEQgPgEJWPGZ6QoREAERqEjAFtxb+RMBLCdEIiACIlBG4GlTxGqiIgIiIAIiIAIiIAIikIyABKxk3HSVCIiACCxGwE5AN5bHXwBsLDwiIAIiUEbgFFPENFERAREQAREQAREQARFIRkACVjJuukoEREAEKhKwvbgJFtsB6BIiERABEVhIYB7GKHm77gcREAEREAEREAERSE5AAlZydrpSBERABBYjYCdjPQw4L6wlhUcEREAEHAGDR0wf1hcNERABERABERABERCB5AQkYCVnpytFQAREoCKBIBfW6wCWFh4REAERcARGYA0zHU+JhgiIgAiIgAiIgAiIQHICErCSs9OVIiACIlCVgC3ACo8IiIAIAJiHeVhW4YO6F0RABERABERABESgPgISsOrjp6tFQAREoCIBW8DjAN4rPCIgAh1OwGBD04eHOpyCli8CIiACIiACIiACdROQgFU3QnUgAiIgAosTsD3YEAYPio0IiEBHE7gPwK6miCc7moIWLwIiIAIiIAIiIAIpEJCAlQJEdSECIiAC5QTs4VgOb+FWAB8WHREQgY4lsAuKuMFAIcUdewdo4SIgAiIgAiIgAqkRkICVGkp1JAIiIALvELBTMQLPYA8YfF9cREAEOpIABexDTBGPdOTqtWgREAEREAEREAERSJmABKyUgao7ERABERgiYHuwbihgfVRUREAEOo7AsRiHc8w0LOi4lWvBIiACIiACIiACIpABAQlYGUBVlyIgAiJAAraAkbDogcHFIiICItBRBH6JBTjcXIZHO2rVWqwIiIAIxCcwDsAnAKwEYBaAPwB4Jn43ukIERKATCEjA6oRd1hpFQASaRsD2YFMYnA/gk02bhAYWARFoNIELUMThyn3VaOwaTwREIOcEtgNwDYARw+bJ82gXAP7bAiiF/x5q8iaAjSVq5XxnNT0RaBABCVgNAq1hREAEOpeA7cHRMPgGgNGdS0ErF4GOIXAbujHBXILZOVkxD4StYqvqkJrJVh0O4NyInk8FcDaA1z1m0A1glYh2bwPuM9BK95/H0tUkJgF6VY0C8FQoUsW8fLHmMwCcFuQXfAnA3Ho70/UiIAKtR0ACVuvtmWYsAiLQYgTsgXgPusEfXdu22NQ1XREQgXgE3grCYC4yRRwb77JMW7eSgCABK5tbIW0B6z0A/hsx1Z8D+AqA17JZknrNOYHVAPA+uQTABzKY69EA7gbwR4mkGdBVlyKQYwISsHK8OZqaCIhA+xCwBfQGbx/5hnvl9lmVViICIrAIAYuHMR4bmWkuBCYvJgErLzvRvHlIwGoe+04cee3A6+p0ALsAGJkhAIYWHgzgigzHUNciIAI5IyABK2cboumIgAi0JwGX0B24HcBW7blCrUoEOp4Aqw0eaorO4yBPJgErT7vRnLlIwGoO904bledKilcMRd2pgYs/CsA5DRxPQ4mACDSRgASsJsLX0CIgAp1FwPbic7C4GsAKnbVyrVYEOoLAHFPEkjlcqQSsHG5Kg6ckAavBwDt0uE1CIekzDV4/PbG+GeQZPaPB42o4ERCBJhCQgNUE6BpSBESgcwnYAp4AsEbnEtDKRaBtCWxuii4fS95MAlbedqTx85GA1XjmnTYiX8zdFVQYXL9JC38VwLclYjWJvoYVgQYSkIDVQNgaSgREQARsAazI84JIiIAItBEBiwtNPw7N6YokYOV0Yxo4LQlYDYTdoUM9CWD1Jq99TlCZ8DgA5zd5HhpeBEQgQwISsDKEq65FQAREoBIBOwk9KKEoOiIgAm1BYA4WYB1zGZ7J6WokYOV0Yxo4LQlYDYTdYUMtAeA+ABskWPfbAJg7sJqNCDyqRgOIc169F8AUAH9OMB9dIgIi0AIE4jwQWmA5mqIIiIAI5J9AmND9QQDr5n+2mqEIiEANAhYlfMrMxO9yTOlvdc5tGQDv9ejjf0ES+5c92tVq8ll5qNZJsPLlaQtY4wD8MmKm/EwcC4D5iWTtSaAbwPWBWLR9jOW9AeApAPMAHAbgzhrXfikQuE4EwGfQhjHGOAbARcH9R48smQiIQJsRkIDVZhuq5YiACLQGATsZ62EAPFjy7aJMBESgNQncixK+ambi4dacvtesPw/gFo+WBwb5/S7zaKcmjSeQtoDV+BVoxDwS2BzADABM3u5jzFN1AYBzA/Fqts8FYRsWx7gJwKcBdHletxkAemPJREAE2oyABKw221AtRwREoDUIhLmwWPZ5n9aYsWYpAiJQRoAhKgfnNHF7mpslAStNms3pSwJWc7i386jMd3UegF09F3kbgF+EVQo9L1mkGb3++JtpBwBLeXTwndB7i2GKMhEQgTYiIAGrjTZTSxEBEWgtAvZAvAfdOAvAhNaauWYrAiIAizPwCk4y12KgzWlIwGr9DZaA1fp7mLcVfCX0plrRY2JXA/gmAKZOqMdWC6sM7u3RCZ/LK6cQ1uwxlJqIgAg0koAErEbS1lgiIAIiUEbA9mISrKuYM0pwREAEWoSAwe3oRq+Zjn+1yIzrmaYErHro5eNaCVj52Id2mQWrKU8Lk6VHrYl58Rj690BUQ8+/rwngQs+8W58C8FvPftVMBESgRQhIwGqRjdI0RUAE2pOALWDZMB/E/u25Qq1KBNqOwN9Rws5mJv7TdiurvCAJWK2/0RKwWn8P87QCFlu4LkyuHjWv3cNE72l6qlIQmw5g/YjBnwUwPmqC+rsIiEBrEZCA1Vr7pdmKgAi0IQE7FV141lXyYW4HmQiIQJ4JWNxt+rFVnqeY8twkYKUMtAndScBqAvQ2HpLVAX/msT6+mPsuAOvRNk4Tnl9vBvAFj4t01vWApCYi0EoE9KFupd3SXEVABNqWgC3g4KC6zqkAlm/bRWphItD6BO4zRXyk9ZcRawV5ErCYb2fpYbNfLxT+GVbECmc3AvjjsL+/Fv73UqwVp9d4TJiHZ6jHsUFlNB7+PwC43Gm/C71Thv4+N6zOxn+naWkLWCMAMKl2LZsTFDl40XMRq3iG0T8V0R+r+pIxbWSYYHyLIJn3glDwYCJxGu+HFwBkneD7PcPmy3vhEwA+GXhd0/Oa3kE3BDkw/zGsDXm96cmMzbgP/M3AKn009jkvxvVJmvIz91cAS0RczM/jAaGnVpJxoq6hF9j3AfDeqWXbBMxvj+ps2N8ZHsm9qmXkzHuqmpU/pzYAsGNQpXUNAF+N8bmo1D/v7+HVqz8UhlO+O9z/awH8c9iFLwF4I8b6fZq+K7yHa7XluG/5dFajDXOeRWkVT4ef56ih+JnjvGsZw10550qC69D1rILJf/hc2S787LHaJQsUvBJ2zn/z/pdlRCDqpshoWHUrAiIgAiJQTsAWcCmA/WKUiRZEERCBxhF4xhSxauOGy81IzRaweFig4MND4VHhocEXzk8AXBlc9zqAOzLwBKk2j/eHoUubh8mrfef7MICLADwC4PcpCixpC1g8iHOutYxexXt5LpxCHg/itYyCX7UDKA+66wLYMEwsHjUsD/R8YcSDJ3MkpSlwUthbOxTkfh3z+5yJzim2MDw5KkT5M6F40xvc28z1RPtwIJT8JWrxdf6dYXsPefTBHFmneLSrp8ljAN4X0QE9xeJ4t18VCHQ7R/RJBk9WaLNRKFgfGQrVlbph9cb/xVw0RXve26y+eEH4v327ODsQW24BMB/Anb4XRbTj+k6LaMNE+z+tc7znIypOUqzls4jP9yg7EcBxEY0OCp4jPygTgSkY8nnO9ezpWQHzitDzkIL7v6Mmpr/HJyABKz4zXSECIiACmRGwPZgJgwMzG0Adi4AIJCNgMNH0OZG506yZAhYPbfRa4cGCh8N6jAd9emSxIlpW9t7Aq4oeH/uG865nnGNDT43L6ukkvDZtAYueRf+NmNePY1TYpZAU5dlIAYseR8ON5xiKDazk+38JOPFQf1ggBF2S4NrySzg3rqEQJCzfzcPbo9aQ9CSk+EoxpTx31JfDvvsrdJC1gEXe24eejrXmPysQX78eHuJTQFu1i9PDcYafZyn8/WmYqDGpAsNac6IHE/N21TJ6fD4xrAG9/T4WeMOxIE+UEBtHwOK6uKdk3lNnPi+KPVOC+/OZ0Buxnn3hs+lbER3wM8lnQD1GYWq4x215X/RUpeeZj4BFMXVqxGTI+HvDBCy+sKIQS6+58mdP1Lr4bLk1FM3+FtVYf49HQAJWPF5qLQIiIAKZErCHYDTmgi7RPqWpM52LOhcBEQgJGJwPi6+ZonuL3WnWDAFrhTD8iDluGCqUllHAOiZ4a09RKM29pJfYxuEBKcp7I85a6BnEAxRD3+6Oc2FZ23YUsHhf0vNoYlmYZhJMxwdhWWckuTC8hoLe5MCbi15RH62jn+GX8nBOQeT+UHTlfbVZOM5yVcbIWsDiIZ4eawyfqmUMjaQYwDDNLI2fOwozDOljUncaPQPpbZk0hCuugEXRmqGS9PLaxGOxvgIW7ymKbww5/bhHvz5NGBpH4fmkUBz1uaZSm04QsA4JudPrqh77Tfi9cE/K3zn1zKnlr5WA1fJbqAWIgAi0GwHbg71gXG4HmQiIQLMJGJwNi2+YYuIDUbNXUO/4jRaw6M3A0BOKE7XeviddF/MMsX8ml65HFBo+Pj14NgXAkMG0jUIb8yQxdOjyhJ23m4DFe/LcMLSHIka9xlxYZwWhhCcn6IhiK0UPVsZLYy7Dp0DBgWFIPPzSu4uhibUsawFrVOBR4pOfjV4s9FpphNEjjbmL6O2ShsURsBguyt9qLOpBNj7mI2BRoKT3EgXRLM7qDGH8TuhtRHZxrd0FrJmh11taOWnpgUWh/b4GhrHH3dOWap/Fh6KlAGiyIiACIpA3AraAkTDYFxb8EpWJgAg0j8DNWIAjzGV4tHlTaPrIjRaw+CM/KgynXij02uCesngGPUrqsV8GuWW2jnGATToW88EcEeZoidtHOwlYFAmvCXPfxOVQqz09nZhoO25+Ih5O6X2XB8uDgEWvQXo40gOrFc1XwOJ9wlDFuM8qHwGLSfJ9vLnq4TsbAHM1UbilB1sca2cBi16/u2YgRjOxPr0zk3oGxtmftm8rAavtt1gLFAERaEUCdipG4Fn3A3DILb4Vl6E5i0ArExiAwTEYi/PMtFSTPLcak0YKWPQ0YsWuRhi9W1ixcJ8gQe+/Eg7IHEX0AImbHyXhcK5CFvPz3Byzg3YRsJionYf7ZWKu36c5c00xxx1zpfmaj9jh21ca7fIgYP0dwC5BHrjH01hQE/rw2VPmwKKHGcN741qUgMUUEuPjdpqwPYV8hsrRG9XHs25omHYVsPgyg560UdUKE+IGRUN6bMrqJCABq06AulwEREAEsiJgJ2FllFxejv0zciPPaurqVwRanQDDts4zRZcvqdOtUQIW8+YwWXHaYVhR+8eE2xy7PFl21HXrhdfx3400JqnmnsQR3dpBwPJlTGGSe9md4Hvzh6Ew4ZMfjYdcesWN9pgYhYI3a7RjH0t69BPVJGsBi9UeGdJYyxiWy5C6VjUfAYveUUkTc1cTsCiCs89GCfjD94fhqfR89bV2FbB8119PO1aX3bKeDnRtNnG14ioCIiACIpASAduDPdGFM2HBHz0yERCB7Am8DYt+049Dsx+qJUZohIBFjwbmpeLbbx+jGEABZ0GFxsyhxQTIy/p0FLZhongmSvc1Vqdi+I1vgnkKIkyezCTy5caXySvFDInbI8yRw3AtH2t3AYteWUMCJL0cWGmN35lDnhQUdnyM4uDRQUjgdR6NHwpCGdePaMf9oTDAMNNq+bW4/wxZOhMA7ysfQYw5u+itWG57A3jEY+5JmzCtQVSV5E4QsHz4ce+fDEPG+JyiMM+cfkzKziqN5UZPzgtjFCRgKNq/q+RUWirMl8Znoa9RiH/Ms3GnCVh8blO45eeu3FYBQGHX19gXQwl9Wfv221Ht5IHVUdutxYqACLQiAVtweVpY/peHHJkIiEB2BEowuNj0SbwahjhrAYuJcnkw5iHex5jcmD/+T6/i1cL+GAbGMCYKYr7JleP8JqZn7Nd9JhvmyaFnBQ+nD1S4hp4XTNbM5zxzKVF88zGKJ75iRbsKWPRmYC6i/QDMqQHNx6tm6HKGhZ0SsQGfAEBvLQpOtSxOMvOPhSFpUfnU/hwWH+CeNtpe8giB6mQBi0IVhXCKSxQ7WHTh3vA5RWGSIbDMvUePvOH2gTB81aeCJYXan4TCKPNX0eOw3Jjsn97DvE+jRNaha5kDzjefV6cIWBSbGGbOSoIMs2R4Z7nRa5jCMYuOjPX4QHK/+NxqZS9Fj2Vm2yTOl3W2M1HvIiACIiACVQnYXkyCdck2s6jKJfIiIAKDBHgw+D9ThE8IUacwy1rAojcRvU/W8AB6diBU8PDk43lErxuGB+7l2feRYWW7qGlQFGMFPFadizJWJ2ReJZ/wHHoLbRuUWj/BMyk4vYS4Ph9rNwGLHiysOvetKp5I5UwYTjgjrAQWxctHwPpZIEx8KaIj7v2UqMHK/v7xwHPmyqA63Fo1rouz7zGHj2xeSSwpv6hTBazbQ2HxYgDPRZJctAGff3z+8D6NstNiVMvks/ugUCD3+e3IfIA+FbA7QcCieEUhmwUj6NEZZQcEv8/5/eRTuZB54vj9QW9RWQICErASQNMlIiACItAMArYHe8F4/bhoxvQ0pgi0OoF/o4TPmZlgGJHsHQJZClj0juIh4TgP4PRC/WbMXFX0etg3FDqikufSa4Ll66OsAKAvqlFwkDk/mOtJAF73aDu8CUOM+kNvjahLVwTwclQjAO0kYDF07kQA98QUCt4P4GEPVmkJWPTO8jn4lk/pK0ES72JQHY5hYNWsWec3CViL78gbgefSjeEzppKHZdQttxHzLQLYJqphGN76HY92w5vQG+uiQFz7nIdAxrDYDT36b3cB68XgucoUAvSyjGMMA73aI/feK6EHMV9KyxIQaNYDMMFUdYkIiIAIiIDtxXaw+LlIiIAIpEpgHix2Nv2xq7ulOomcdpalgMW+KdZEeV/xQE+Ry0esKcdIIYA5ktaJ4EuvOx4o6AFVzRgCxMqwUYdNhhKxHDu9MpLYUcFFFPaivCZuArCjxwDtImAxhIchO9zPuMYcPzygRxUJiBKw3hd4SDE0cPMaE2DI0c5hKFnceTKklB5mFCerma+nTNyxo9pLwFqUEEMqKabSI4+hrElsYih2RyXxPyz0IiwPP/QZk+Itw9aivIOeDZ9tUUJvOwtYfwkF/9/5gK3QhuHgPvkUGdZMwUuWgIAErATQdIkIiIAINIuAnYouzMIOsLi+WXPQuCLQdgQM9sSj+In5TcWk4G233JgLylLAYu4QhkxFGfNj8Znnc4Cu1Be9YZ7w8EBgfqFaeWh4OGFC7qjkyMyPRQ+sSkl/o9bKv1N0Y66cqBxLFDrGeXTYDgIWc/8wP1ilPDQeCFz5+m97hBFGCVgUF+lZV6tIAMVLhjj6hLpWmjs9QGoJWPTgiBIjfJjEbePz+euUEELuLUNYTw3E9blxQQ5rT08fPiuijDmTyDapsagBk8rXMn7G+JzdPaJduwpY9Kajp9ofkkIOr/P5nEjAqgOyBKw64OlSERABEWgGATsVo/As9gfAHBt6jjdjEzRmuxCwMDjQ9Llku7LKBLISsMYAOCQUFWqx5+GOh8Qk3lfD++UhMyqhOxMZM3dWtQMIqw7+OuJG4cGWYYbMfVWPMccSPTtqGXOofDFMNFyrXbsIWPROSmr8rtwprHZZq48oAYv3Y1SF0i3qPARHCVicfzO++30O5mkIWPy8UyRMy+hV41uJ0jfhPz2hfCpG1loDE/fTm4+enbWMYdA+Qn8ULz6bou4beo1GeZi2q4DVE+5HEi+34exZVTcqFQHzpNHbt97viag9b8u/R93EbbloLUoEREAEWp2AnYzlUcLXYEG38ijX81ZfruYvAlkQYG6iqaboEnLLqhPISsBiwmofjwI+4y5IaYOiDuD0aOJ4P6owHsP5eKhmda9axgqFxzdovhzGRzCQgDW4IT6ioASs6jdv1OfH936M+njkXcCiJ5NvtdBaa/W5H3l9WiGjPuPdFX5OmMS8mknAqn0H+whY7IEefD75H6M+Lx33dwlYHbflWrAIiEC7ELATsRq63EGJP26icqW0y7K1DhFIgwATdn/LFN0PSFltAs0UsOaE3i4zU9oknwM4K1FWCqF5b/Cs/beHB0OaApaPJ44ELP+bw+cAHyVgMQzxiIgwUnlg+e9JpZZ5F7DWB/BIfUt0V/vcj/Tk6fXw/PSZzjJBtcNawhT7oFcni2XUShYvAas27fEA7vTIuygBy+eurdBGAlZCcLpMBERABPJAwBawNiyOhnGVtuSJlYdN0RzyTuDtIEDsFNPv8uHIogk0U8C6I/SISlLdq9LKmHQ5qhphLQHr8QhcDD3h4Y8H8DTMx3NKApY/aR/BIErA2iU83FPQrGbMlcZE7j6CaaU+ooRLJtnewH/ZqbWkoLxERG8+92PUhPIuYNHDhjn16jWf+5HfUycHXp31hrVxrj4CFtuxsAbDoKuZBKzaO89Q9f08qtVKwEr4CZKAlRCcLhMBERCBvBCwU7A6BnAQLL7mUWEpL9PWPESgWQQONkVc3KzBW3DcZgpYDB2kiJNUCCjHzQMDD1+1rB4Bi14Z9M5hovc0jMniow6uPoKBjxBG0eBsAAytjTKGT/03otGPAUyI6ij8+71Bvq+PRLRlgul6cmCxex/BIErAWg4A11YrTxATYfOlkg/LSsuOErCYJP5XnmzTbMYxmeS6lvncj1Fz6gQBqzv09Lw6AkbU/RjFcvjfWRzinx6FHyRgxaFauS2fDyzkUMskYCXkLAErIThdJgIiIAJ5ImAPwoqYh6/ApJYrJk/L01xEIB0CFnubflyVTmcd00szBSwmzKb4kpZtBCDKm6seAevG4IC4FwBWs0rDfASsewB8KkgIPL/GgBKwBuGkIWCxHybXZ1+1bBUAzye4CXiopQhaq+BAs85v2wfJ0G+KWJMELL9NpzcUq5VG5ctLU8DiPUWRmsUzapkELL89rNVKAlb9DKv20KwHYIZLUtciIAIi0JkE7H5YAiPxRRhc15kEtGoRqEHAYE+8jB+ba0FPDpk/gSwELP7+3BrAbRHTSFvAWsMj9KceAYvJ3/fwRxvZ0kfA+nsgyu0G4F81epOANQgnLQGLQiXFnFrnqH8EnloUTONXdA89AAAaCElEQVTanwB8NOKiZp3ffELQGN5IEZcVPZNaJ3hgjQ0r0G0XASlNAYv3DcNbozyDJGAlvXPfuU4CVv0Mq/bQrAdghktS1yIgAiLQuQTsVHThGXwBBr/oXApauQgsQmAOLPbDePzYTAPLiMviEchCwGL4zE4AKBbVMglY0SGEjwYl278K4I81QErAGoSTloA1JhRo1ou4f7k374/xcbs8LMrCz0c12yxYB0Mum2H04JkbMTCfsVzHxDom2AkC1uphKCr3s5alKWBxnE0A/DViTAlYddy84aUSsOpnWLUHCVgZwlXXIiACItAsArYHe8KAlbuY80AmAp1IgCFVD8DgBNOXWk6iTuQoAWtw15m0OyqJezM8sCiSMGHwH2rcnBKwBuGkJWCxr7uCPFQf96hKSU8ser3Q3g7DSynydIVJtUcHHjFbAWD1ynUjHjCvANjUw4swq+eUj4DFsb8XiqpZzWN4v8yzxs9dLftLEPr4Yc/JXFulCunwy9NI4k4BiwJ+lLedBKzqG0cx9d2eueZOCXIpTo24B3rCezcq76DPrSQBy4dSwjYSsBKC02UiIAIikHcCtuCqyLAi1kp5n6vmJwIpE3gbBlejGyeb6Xgq5b47rbssBCyFEPrdRb4hhLuHyZmr9SoBa5BMmgIW+/NJPj+0JyxEwOT+M8LcWDx4M9cVQ2l9jIL8Fz3Cbn36StqGAhYT09fKz8W+KSjtD+CtpAPFuO53oQBY65I8CljNCiHcMihAQGa1TB5YMW7AKk0lYNXPsGoPErAyhKuuRUAERKDZBGwBBwE4MfjRzB9LMhHoFALnYhyOVshgKtudhYDFidF7hQmfa1naIYT0nPhPxJj15MBigmvm/0lafa58aj4CFj2vPh0R2iUBa5Bs2gLWagCYs2pcKp+02p0wbxG/zx9rwFjVhmBo42VhhcVa06BX4JFAQ1IZLABQK+SS88yjgMV8YseF/9RimaYHFp8nTBzPEM1aJgGr/g+ZBKz6GVbtQQJWhnDVtQiIgAjkgYDtwX4wLt/MznmYj+YgAhkTOM0UcXLGY3RS980UsC4AcFiKsJkr6ooMBaxHQq8aetqkYT4Clk/VNwlYg7uRtoDFPntDsSYq/K+e+4GVJvk5aFbuq+Fz3wAAwyKjLE3hpdZYrSpgUXRj+OMPI0CmyXHJoPjAnwGsHzGmBKyouzv67xKwohklbiEBKzE6XSgCIiACrUPAFrA2AB5Ep7fOrDVTEYhFgPllTjRFfCfWVWocRaCZAtbt4cH9wahJev6d3ivvi2hbjwcWc6d8I/AIOc1zPlHNfA5BErCiKL7z9ywELIbTfTJMvr6v/1S8WvJ+YqVOCvIUHvJgFD8e8pgIvZ4OBkDxLStbBcDTLeqBRSY+9+PpYe4mCnX1mk8VSY4hAate0oDPs/tbHh549c+kDXuQgNWGm6oliYAIiEAlAvbTGIH1sA+sCwGQiUA7EbgGFpdjCfzGXBhZJaud1t2ItTRTwGIOHXqesCBFGsY8RFFWj4DFvpmM+/ioQTz//k8A60S0lYDlCdNTMEji8cJE7FMAnOM/lciWbwbizxcCD69nPYoHRHaWYgOGTTLH1RYRffKzRo/HK1Mcu7yr60LP8qjzbB5DCLkWHwGLIc/MZ8oQ0nrNR8B6DcC3gzxnFM6q2bEAKL7UMnqX/bjOCTMUe+kafeQ1ifty4bOAeeBqmQSshDdI1Ac+Ybe6TAREQAREII8EbAEjYbEPDIoeby3zuATNSQTKCVwM4ASMw+vKeZXJzdFMAYsLooDFUMI0LErAegEAD2eXVxiMB6mTgsTUx0RMJE0BK2q+nIoELP87w0cwiCtgrRyIObeEVSqX9Z9KzZYfAjArFK9S6jK1bhj6tlsQhnaNR4+zQxEuq9BHH49KTrOVBSw+A+jZ930P3lFNfAQsJnjfLqyWWa0/CVi1Sb8HAPPAUdiuZRKwou7YKn+XgJUQnC4TAREQgVYmYPfH6hiFc2Cxa1jOu5WXo7l3JgGGVPzIFF3SbFl2BLISsMYAOCR8219r9gwJZVjeK3UukV4j9AqoZfcDoHhQzT4L4NcRffC+ZF6kej1dGZpGD4Na9mpwUPo/ADdHtFMOrEFAaQtY3CN6CVZKIs7wvxPCcDt6CkUZvQynBp+Jl6Ia5uDvrIZ4Y/C5HOExF4ohFPhKHm19m/D8ynueHmo+llcB62OB8PndIA/WehGLOCBsVy9DH0GcYdsMf6tljRCwuMf0BmtFDyyfYiEUX1no4Oc+N7DaLEpAApbuCBEQARHoYAK2F0VY93Yv6k1RB1PS0nNHwOB+WJxtivhB7ubWfhPKSsAiqb09Q4xYgIIHZp8DWKUdWD4I8Xre48AdddD9DAAmaGdy9VrGyq/nhuJG0jviSQCrR1xMLx2fCngSsAZBpilgUbR6PBAq16iyR/TC4B62o/H3wlHB5+Cbnotjlcw7Pdv6NNs0FIg/6NM4xx5YnP6hAFhtNcq28qjaWqsPhiIzJLmWDQC4HsDuEe18BKw9w1DTJM9silbc418FLzj4oqOapR1CyFxzDANm+G49tguAKNH62kDc/nI9g3TytRKwOnn3tXYREAER4ImwFxfDujwrPKjKRCDfBAxuMX3YNt+TbKvZZSlg8U0/w5nXiiDGA94pdXhhMayPh65av3vnA7gwPJhXmw49JS4JDuNbR8z3jTAMh+E4SYz5hSjYrRRxMcU0esNEmQSsQUJpClg7AmC+tEpeSDy0jw1F06i9adW/0/OPn8t3ey6AnlhRnoI+XfFZwc8p+/O1KGF6eD8UFqIEHHrYPOE7eES7A0OOS0W0Y+gyQ6mjvDKrdeMjiFPkZ3joXRFz8RGw+JxkyHVcj0I+Y+kpy2fWihHzSFvA4nCTg5cCfXW8LPGpHMtxJGDV8QGSgFUHPF0qAiIgAu1CwE7B0ljgfhxFJZ1slyVrHa1H4DZYPASDr5uiC9uRNYZAlgIWf+wz59BxHkuhCMUDEb0E4thOoUjGXEW1jOF4TL4bZUyozANOlDE3G5O5MwwmjjFMkYe/qOTt7JMV4R7x6FwC1iCkNAUsVuIj/0rGe3R8mwtYrAB4XnD/0dPGxygQUxxgVcX/+lxQ1mZJAJ8Kw3P5mY5jeRaweA9RCPycx4L4/GM4dVyjp8+lEeF47PPfns8dHwGL/TEcm2HZvrYxgDMDAY3PwEphueX9ZCFgcQyG9tGDNol9PSzkUetaCoVsVynXYpIxO+4aCVgdt+VasAiIgAhUJmAPwbsw15W95ht9uqvLRCAvBG7CAI7HanhIidobviVZClhczA4AmOfqfR4ruyjMm+XR1DWhJ8VZAOgxEWU8XM+IahRU1tooPNzwkBVlPKBQ8GJeLB8jax6cNvBofAcAhjT6mASsQUppCVi8Z/sDoZEiTjXj349IIRzJZ3+b1YahgfxMbug5AYZmsZre1QB+GsObiMnxzw4FLJ/nRPl08ixgca4MxTw6qPzHnGpRRg5fi2o07O9MEcGqgvQIjDJWjfxeVKPQmzWqCiG7+WEQRsv8XW9H9PmuQDzbJ3xe857ytawELI5/alhpcY7vZILnPEPHeV2UvnIfgI/E6FdNywhEARYwERABERCBDiJgJ2AUlsd6sDgZJtKNvoPIaKlNIsBKPmdgAHebS/GvJs2h04fNWsBivhN6B/jmA7khSN58T0Tyd7755yFvc0/xinsc5zcxvcH4Bt3HmKT36dBzpFp7hgoy8Ttzgr3fp9OY3g0SsAahpiVg8WDOMKcoLxEmL2cy93JjiCE9uCis/LGFc2XxM8OcSQynjGMMZ/tHKOxeGYZilicopzhIQYC5xJbw9FCqNoe8C1gU5ZjMnaHDUUbvPoafMf/jTTUaMzybFVz5LFw1qlMA//PIuTfUja8HFttHhTlPDJ/9zGcWFTJdvowsBSyKbr8Jw16jquCymACLybAoUlQoKOdML7oknnQe29gZTeJ8WXcGEa1SBERABEQAdhJWhsXHYJ1r+3uFRASaQOBplPAJrIqnzDRvD5YmTLPth8xawCJAhlvxMFarAuAQaB7+Xw8PXPxvTKTNik70MGDiXxpFMR7aogSGoT63DHIA/j7GTjIckZ4KvlXQKGIMCbAMH3kwTAT/8XCODKXk/Fnm3seYp4bCgW9VMglYg1TTErBY0ZJ70OWzWVXaMAyaudJ4L1fKa8T/RhGWIXd5NhYa4ByTeEZxXfw8ME9SebJvfiaYIN+nwAzD72pVB827gEUOfBbQMy2qcAPbUsR6IUgA/3J4Y/B5QlGQYcfrhv+N4dB8rvoar4tK8j7UVxwBi9dQrKVxj/nP8M8Nn3sr+E6yrF2WAtbQUKx++0z4/zD3GqvL0qOW4awUCHnfs0gIc8H5VOVkf/QIZsi6LCEBCVgJwekyERABEWh3AtbC4FCMwlw8G35Bt/uStb68EBiJldCFN8yFiRPW5mUl7TCPRghY5MScUXwb7xNGM5wrD0QUcvibNomgwLAZejP4hvkNjc2wpt8G1aaYtyWODR3ieE2S+c4OD7s+ua+G5iUBa5BEWgIWQ+boWUfvoCyNeaOGcr4xLw9zr/mKllnOq7xviky8L2tVjMtqPhQXKP7UyqvVCgIWn18PxAjHHM6T98SQMJTkbP+BUFT33SOKNgwdbXbhn0YIWMOZ8Dti6HuCz26KrHF588XKkCDmy1vtygjEhS6AIiACIiACHUjATsbyKOGhwCOLb5p83oh2ICUtuU4CfDP5KLqwm5nhQq5k+SDQKAGLq2VuEB8vrLTIUARi2MfDCTtkZURWB2vUwZ1v7RlqyfLycUwC1iCttAQs9vWnQMT6aJxNSKktE6czD1LenpH8DPwnIi9YSggWdvNc6Gm5WhsIWEOLoqfm2mmDqtIfBVKGsp0TegPGGZaFJhj2nJWWMCu8l2r1n7aAxbBBvkBJ8mLBhx2FK59wTp++OrpNVjddR0PV4kVABESgHQnYiVgF3TgO1uW7UFhhO25yc9b0MiwehsHZpujComT5ItBIAYsrZwl3hvRlafRqYeghD2BMhl6PfT9MRM9ExFkaDz9MCs7wtbgmAWuQWJoC1rZhFTGf5Nhx98un/WbBeu71adjANvRIY466TRowJnNocQ+Yu4njtroH1nBkfwhyL30sY4YUw5mj7YRh4c1xhuwJwp9Py0CwpIjEFwoswPG3iMqJaQtYzMfG75614oDwbPvXMOwwblVaz+47q5kErM7ab61WBERABOomYHuxnUtga13+l3F1d6gOOpVACRZ/hnGVii42RfBtsCx/BBotYDEs46ogr84nPCtnxSXGfDs3B3lIrkgxvxCTTX+yzkTT1dZBsY2eYqz6RbEsiUnAGqSWpoDF/li5ksnct06yKXVewxxITPof1xuvzmEjL2d4GYsy8POblVHgofj893CAdhOwmL+Kz0D+xvLN4xeHNfNlseIqx+D/TmrM0XZSjNx9UePQ+4y5EDk35jVkfjjmM6xmaQtYFOX4/cPKiWlWCWQy+P0jRNYoNvr7MAISsHQ7iIAIiIAIJCJge92P5w1gcVyiDnRRJxNgOfXT0YVbzQwXiiPLL4FGC1gkwWTmuwTCzZ5BlbYvpoiGXgcsV88qXmkm0eXvab61Pz1GNUWfZVG84gGRoZX1CBUSsAZppylg8WDNvFQbhSKWz36m3YZehNzbWtXo0h7Tpz/mhaMYsH2MKqA+/bLN3eGa/zzsgnYTsLg0hkXuG4rin/aF49FuyJOTz8DyxPkely/W5JAgCXtUlT6ffplAns9mVi0cqtzZDAGLxTkYGszvn6N8Jl6jDb2t6OXGUPOhRPZ1dqnLSUAClu4DERABERCBxATsBIzCcpiALmwD694wyUSgNgGLqSyhbvrxE6FqCQLNELCGwKwXJmjmIT1usvRyuDwM8kCUZZgqq6bR8+TAFLxyeOihFwI9FOs1CViDBNMSsHiwZeLwnWvky2FlOIpbWRsTu0/KepAE/bPIAcMc6aVDDzWfCm21hmFOpG+HhROYlH24taOAxfXxnM4E6xTxDw5FrQRbsfASvnRk5UJ6oKZpe9XhHUqRnoU0KKyVh3M3S8CigLZk6OW3X8LvHoa48uUD79Un0oStviRg6R4QAREQARFIgYDLj2WwFYx7G7xVCl2qi/YjUITBFejGA2a6Kx8vaw0CzRSwSIgJdSlkMayGlQo/GAMbvTS+Ex4gGHaUhseBz/D0xlolqCq2W8y3+PQKY6jgnWFVMB7g0jAJWIMU0xCwmIeMB1MWNKlkPw0SNfeH9xxFnFpGgWLl0NuDIsW7E2w2cz9RULsuwbWNuIT5MrlG/jupGLtDmOuKuZEYNlZu7SpgDa2TYgpDM/lvemLWCqsrZ8MXRTNDj9N7MtzwLULPpfM9x2AIN72d5gS5zPhsrmTNFLA4nyXC+3bF4LuDL94+67E2iskMbeWzXF5XHsCSNJEHVhJqukYEREAERGAxAnYCurE8lobB52DxzaA0/brCJAJBqe3fowu74E28aa4EQwdlrUWAVZkoHkUZwyWYgDdL4zw4H9rqoacTcxCtBICl5OlZwCptQ7lx+CadhyC+5W+GsTIbwyFpTPLOsJRCWGWMv8H5dp7hN0MeEVwD51vpkF7P/HnwjTr08rP5lqfIx7w8PNTVMq7BN0yTYhBzz0TZ81ENIv7ucy+TQ7XnFPfu3FBIqDTUd4P78ORQbOFe+hhZ8j7hYXl49TN68v3YowOKsscCOMujbTObDL9nWGVvGoBtqniw8TnC5OLXBP9mbsQXw893tflH3Y8LQs8jn/VTdIyqtMw8es16plDkHDq/vx/AlKAiJvOS8jnD+/bqUOgfqlJJgYj/3fd+9GFUrc3wzxef1RR8NgzZM/RzuOecz/Nm+Forjcl7n/eGz4sJerRShKplDHulqDYUwji8LZ/f/IxG2ezwno1qp7/XQUACVh3wdKkIiIAIiEB1ArYH28PgsuCH9VI1fvALYfsR4I9J/mgumeLCw3v7rVIrEgER6CQCFNjo6XRGlUVTJGEyf4a5pWUUBBjCND0imffXUx43rfmrHxHIC4F6Bay8rEPzUA4s3QMiIAIiIAJZE7A92BDGVbvhGzm6+svakwC9N/jW91mUsJeZ6cqby0RABESgHQjsGISv3lBjIQyJyiIPJMNn6fVVq5iBBKx2uMO0hiwJSMDKkm6D+5YHVoOBazgREAER6FQCtuByZB0J65IxMx/G8HCJTsXSDutmyBOTrz4Ci0tNv0s8LRMBERCBdiLQLAGLDI+J8LCSgNVOd5rWkgUBCVhZUG1SnxKwmgRew4qACIhApxKwvdgJ1lVwYpnor3QqhzZY91wYXIgSnoPB+abocpXIREAERKDdCDBH1eSwIEC1tWXlgSUBq93uJq2nGQQkYDWDekZjSsDKCKy6FQEREAERqE3A7oexGIldYVzlJeYOqbfMtpA3hgCrXd0JgzdNHy5tzJAaRQREQASaRoBV9FgBc/caM2DC8QNrJIBPOvmNwkT/W9foQB5YSenquk4hIAGrjXZaAlYbbaaWIgIiIAKtSMAWsCRK2BLdrgpVARY7teI62nzOrCb2XVj8At14FKvgSTOtIVWN2hyrlicCItACBFYIk7ezCmE1Y4VEhvqxEmFaxkqPrNbXW+MFzwsAjg6rp6U1rvoRgXYjIAGrjXZUAlYbbaaWIgIiIAKtTMCyNPT+WAmjXLL3j8Dico9y1q285FaYO8MDP4EuDGAAL5kiKGTJREAERKCTCDBf4wQAV0cs+iUANwE4Cai7iMUyAP4WVCCk9xcr+Vaz74fhjW900oZorSIQk4AErJjA8txcAlaed0dzEwEREIEOJeDErAnowvIYHSZ+P61DUTRj2W84+i/j1xzcXIuBZkxCY4qACIhAjghEJXEfmqoFFnqn3gaA1831XAeLm7DS4QZh+26P6/oATPJopyYi0MkEJGC10e5LwGqjzdRSREAERKCdCdgCloXFt2CwrVunxXgYjGrnNWe+NoNZsHg7CEHh2/vppohLMh9TA4iACIhA6xHYJvTAWiknU18QzmefnMxH0xCBPBOQgJXn3Yk5NwlYMYGpuQiIgAiIQD4I2AJmwOB9sOB32RoA1s7HzHI9CwpVj8HgFTdLg6PNDNyf6xlrciIgAiKQDwJM4n4egFVzMB2GM/5fDuahKYhAKxCQgNUKu+Q5RwlYnqDUTAREQAREIJ8E7AR0Yzl8FsBuYKaSErpgsFtw0GAuLZnB7wA84kBYPAWDq00f/ikwIiACIiACsQgwpG/vIKH6NwCsFuvKdBv3AzgkRmhiuqOrNxFoPQISsFpvz6rOWAJWG22mliICIiACIkCNBl0oYCIsWMGJXkbvAvBFAJt0AJ/XAfwKFvcNW+vNph9/7YC1a4kiIAIikDUBVsvlC5LzwwTrWY83vP+nwyqHJzRyUI0lAm1AQAJWG2zi0BIkYLXRZmopIiACIiACixOwR2AMXscmMC7McNC6sSRKruT5+i3MjMnVr4PBjShhnltHF+ZgAA+amfhPC69LUxcBERCBvBNgLka+HLmmAROdFYTJXwbgDgB3AS5voUwERMCfgAQsf1a5bykBK/dbpAmKgAiIgAikTcCFHa6EdVACS5UPN+bU6g0OCp9Ke8zE/Vm8GYSrzEQXWC79HRuARQnPYnXMMtMWVr1KPIwuFAEREAERiE3gIwCY2P0gANvHvrr6BaVQrDoqDBV8EsCrKfavrkSgkwhIwGqj3ZaA1UabqaWIgAiIgAjUR8AJW+/GGFgwTKSyDWBdAKxItXVQ8vyDQBiqGG/o+YDzkrobFnfA4FZ0V3mrPodRkXjbXKG37vEQq7UIiIAINIQAsy+OARZWxR0N4AwA+8UY/WVWgnUvK4DXwuv4PcHCGzIREIH6CGwB4GMRXdwK4GEA9G6X5ZjA/wN52XFn2Cl8GwAAAABJRU5ErkJggg==;" vertex="1" parent="1">
          <mxGeometry x="802.22" y="50" width="147.78" height="68.6" as="geometry" />
        </mxCell>
        <mxCell id="qD__XIF-DntQzB1fXjrY-8" value="" style="rounded=0;whiteSpace=wrap;html=1;fillColor=#dae8fc;strokeColor=none;" vertex="1" parent="1">
          <mxGeometry x="120" y="230" width="780" height="220" as="geometry" />
        </mxCell>
        <mxCell id="qD__XIF-DntQzB1fXjrY-7" value="Inbound software" style="shape=offPageConnector;whiteSpace=wrap;html=1;rotation=0;direction=south;size=0.25;flipH=1;" vertex="1" parent="1">
          <mxGeometry x="60" y="230" width="80" height="110" as="geometry" />
        </mxCell>
        <mxCell id="qD__XIF-DntQzB1fXjrY-9" value="Public compliance artifact &lt;br&gt;repos" style="shape=offPageConnector;whiteSpace=wrap;html=1;rotation=0;direction=south;size=0.25;flipH=1;" vertex="1" parent="1">
          <mxGeometry x="60" y="340" width="80" height="110" as="geometry" />
        </mxCell>
        <mxCell id="qD__XIF-DntQzB1fXjrY-10" value="Contributions" style="shape=singleArrow;direction=west;whiteSpace=wrap;html=1;arrowWidth=0.42433035714286116;arrowSize=0.24484375000000058;" vertex="1" parent="1">
          <mxGeometry x="135" y="310" width="85" height="60" as="geometry" />
        </mxCell>
        <mxCell id="qD__XIF-DntQzB1fXjrY-11" value="Dependency resolver" style="rounded=0;whiteSpace=wrap;html=1;" vertex="1" parent="1">
          <mxGeometry x="155" y="150" width="90" height="70" as="geometry" />
        </mxCell>
        <mxCell id="qD__XIF-DntQzB1fXjrY-12" value="" style="strokeWidth=4;html=1;shape=mxgraph.flowchart.annotation_2;align=left;labelPosition=right;pointerEvents=1;rotation=-90;fillColor=#fff2cc;strokeColor=#d6b656;" vertex="1" parent="1">
          <mxGeometry x="175" y="174" width="50" height="110" as="geometry" />
        </mxCell>
        <mxCell id="qD__XIF-DntQzB1fXjrY-13" value="Container content &lt;br&gt;resolver" style="rounded=0;whiteSpace=wrap;html=1;" vertex="1" parent="1">
          <mxGeometry x="275" y="150" width="90" height="70" as="geometry" />
        </mxCell>
        <mxCell id="qD__XIF-DntQzB1fXjrY-14" value="" style="strokeWidth=4;html=1;shape=mxgraph.flowchart.annotation_2;align=left;labelPosition=right;pointerEvents=1;rotation=-90;fillColor=#fff2cc;strokeColor=#d6b656;" vertex="1" parent="1">
          <mxGeometry x="295" y="174" width="50" height="110" as="geometry" />
        </mxCell>
        <mxCell id="qD__XIF-DntQzB1fXjrY-15" value="Binary &lt;br&gt;analyser" style="rounded=0;whiteSpace=wrap;html=1;" vertex="1" parent="1">
          <mxGeometry x="395" y="150" width="90" height="70" as="geometry" />
        </mxCell>
        <mxCell id="qD__XIF-DntQzB1fXjrY-16" value="" style="strokeWidth=4;html=1;shape=mxgraph.flowchart.annotation_2;align=left;labelPosition=right;pointerEvents=1;rotation=-90;fillColor=#fff2cc;strokeColor=#d6b656;" vertex="1" parent="1">
          <mxGeometry x="415" y="174" width="50" height="110" as="geometry" />
        </mxCell>
        <mxCell id="qD__XIF-DntQzB1fXjrY-17" value="Source &lt;br&gt;package downloader" style="rounded=0;whiteSpace=wrap;html=1;" vertex="1" parent="1">
          <mxGeometry x="515" y="150" width="90" height="70" as="geometry" />
        </mxCell>
        <mxCell id="qD__XIF-DntQzB1fXjrY-18" value="" style="strokeWidth=4;html=1;shape=mxgraph.flowchart.annotation_2;align=left;labelPosition=right;pointerEvents=1;rotation=-90;fillColor=#fff2cc;strokeColor=#d6b656;" vertex="1" parent="1">
          <mxGeometry x="535" y="174" width="50" height="110" as="geometry" />
        </mxCell>
        <mxCell id="qD__XIF-DntQzB1fXjrY-19" value="Component inventory (Metadata repository)" style="rounded=0;whiteSpace=wrap;html=1;" vertex="1" parent="1">
          <mxGeometry x="635" y="150" width="90" height="70" as="geometry" />
        </mxCell>
        <mxCell id="qD__XIF-DntQzB1fXjrY-20" value="" style="strokeWidth=4;html=1;shape=mxgraph.flowchart.annotation_2;align=left;labelPosition=right;pointerEvents=1;rotation=-90;fillColor=#fff2cc;strokeColor=#d6b656;" vertex="1" parent="1">
          <mxGeometry x="655" y="174" width="50" height="110" as="geometry" />
        </mxCell>
        <mxCell id="qD__XIF-DntQzB1fXjrY-21" value="License obligations database" style="rounded=0;whiteSpace=wrap;html=1;" vertex="1" parent="1">
          <mxGeometry x="755" y="150" width="90" height="70" as="geometry" />
        </mxCell>
        <mxCell id="qD__XIF-DntQzB1fXjrY-22" value="" style="strokeWidth=4;html=1;shape=mxgraph.flowchart.annotation_2;align=left;labelPosition=right;pointerEvents=1;rotation=-90;fillColor=#fff2cc;strokeColor=#d6b656;" vertex="1" parent="1">
          <mxGeometry x="775" y="174" width="50" height="110" as="geometry" />
        </mxCell>
        <mxCell id="qD__XIF-DntQzB1fXjrY-23" value="Outbound software &amp;amp; compliance artifacts" style="shape=offPageConnector;whiteSpace=wrap;html=1;rotation=0;direction=south;size=0.25;flipH=1;" vertex="1" parent="1">
          <mxGeometry x="870" y="230" width="80" height="220" as="geometry" />
        </mxCell>
        <mxCell id="qD__XIF-DntQzB1fXjrY-25" value="FOSS Compliance bundle generator" style="rounded=0;whiteSpace=wrap;html=1;flipV=0;" vertex="1" parent="1">
          <mxGeometry x="635" y="460" width="90" height="70" as="geometry" />
        </mxCell>
        <mxCell id="qD__XIF-DntQzB1fXjrY-26" value="" style="strokeWidth=4;html=1;shape=mxgraph.flowchart.annotation_2;align=left;labelPosition=right;pointerEvents=1;rotation=90;fillColor=#fff2cc;strokeColor=#d6b656;flipV=0;" vertex="1" parent="1">
          <mxGeometry x="655" y="395" width="50" height="110" as="geometry" />
        </mxCell>
        <mxCell id="qD__XIF-DntQzB1fXjrY-44" value="Compliance artifact consistency" style="rounded=0;whiteSpace=wrap;html=1;flipV=0;" vertex="1" parent="1">
          <mxGeometry x="755" y="460" width="90" height="70" as="geometry" />
        </mxCell>
        <mxCell id="qD__XIF-DntQzB1fXjrY-45" value="" style="strokeWidth=4;html=1;shape=mxgraph.flowchart.annotation_2;align=left;labelPosition=right;pointerEvents=1;rotation=90;fillColor=#fff2cc;strokeColor=#d6b656;flipV=0;" vertex="1" parent="1">
          <mxGeometry x="775" y="395" width="50" height="110" as="geometry" />
        </mxCell>
        <mxCell id="qD__XIF-DntQzB1fXjrY-46" value="Policy checker (Compliance checker)" style="rounded=0;whiteSpace=wrap;html=1;flipV=0;" vertex="1" parent="1">
          <mxGeometry x="395" y="460" width="90" height="70" as="geometry" />
        </mxCell>
        <mxCell id="qD__XIF-DntQzB1fXjrY-47" value="" style="strokeWidth=4;html=1;shape=mxgraph.flowchart.annotation_2;align=left;labelPosition=right;pointerEvents=1;rotation=90;fillColor=#fff2cc;strokeColor=#d6b656;flipV=0;" vertex="1" parent="1">
          <mxGeometry x="415" y="395" width="50" height="110" as="geometry" />
        </mxCell>
        <mxCell id="qD__XIF-DntQzB1fXjrY-48" value="Obligation fulfilment" style="rounded=0;whiteSpace=wrap;html=1;flipV=0;" vertex="1" parent="1">
          <mxGeometry x="515" y="460" width="90" height="70" as="geometry" />
        </mxCell>
        <mxCell id="qD__XIF-DntQzB1fXjrY-49" value="" style="strokeWidth=4;html=1;shape=mxgraph.flowchart.annotation_2;align=left;labelPosition=right;pointerEvents=1;rotation=90;fillColor=#fff2cc;strokeColor=#d6b656;flipV=0;" vertex="1" parent="1">
          <mxGeometry x="535" y="395" width="50" height="110" as="geometry" />
        </mxCell>
        <mxCell id="qD__XIF-DntQzB1fXjrY-50" value="License &amp;amp; copyright scanner" style="rounded=0;whiteSpace=wrap;html=1;flipV=0;" vertex="1" parent="1">
          <mxGeometry x="155" y="460" width="90" height="70" as="geometry" />
        </mxCell>
        <mxCell id="qD__XIF-DntQzB1fXjrY-51" value="" style="strokeWidth=4;html=1;shape=mxgraph.flowchart.annotation_2;align=left;labelPosition=right;pointerEvents=1;rotation=90;fillColor=#fff2cc;strokeColor=#d6b656;flipV=0;" vertex="1" parent="1">
          <mxGeometry x="175" y="395" width="50" height="110" as="geometry" />
        </mxCell>
        <mxCell id="qD__XIF-DntQzB1fXjrY-52" value="Forensics code analysis service" style="rounded=0;whiteSpace=wrap;html=1;flipV=0;" vertex="1" parent="1">
          <mxGeometry x="275" y="460" width="90" height="70" as="geometry" />
        </mxCell>
        <mxCell id="qD__XIF-DntQzB1fXjrY-53" value="" style="strokeWidth=4;html=1;shape=mxgraph.flowchart.annotation_2;align=left;labelPosition=right;pointerEvents=1;rotation=90;fillColor=#fff2cc;strokeColor=#d6b656;flipV=0;" vertex="1" parent="1">
          <mxGeometry x="295" y="395" width="50" height="110" as="geometry" />
        </mxCell>
        <mxCell id="qD__XIF-DntQzB1fXjrY-54" value="Artifact repository" style="rounded=1;whiteSpace=wrap;html=1;fontSize=12;fillColor=#99CCFF;strokeColor=#6c8ebf;" vertex="1" parent="1">
          <mxGeometry x="255" y="290" width="130" height="40" as="geometry" />
        </mxCell>
        <mxCell id="qD__XIF-DntQzB1fXjrY-55" value="Build tools" style="rounded=1;whiteSpace=wrap;html=1;fillColor=#99CCFF;strokeColor=#6c8ebf;" vertex="1" parent="1">
          <mxGeometry x="255" y="355" width="130" height="40" as="geometry" />
        </mxCell>
        <mxCell id="qD__XIF-DntQzB1fXjrY-56" value="Issue tracker" style="rounded=1;whiteSpace=wrap;html=1;fillColor=#99CCFF;strokeColor=#6c8ebf;" vertex="1" parent="1">
          <mxGeometry x="440" y="355" width="130" height="40" as="geometry" />
        </mxCell>
        <mxCell id="qD__XIF-DntQzB1fXjrY-57" value="Source code repo" style="rounded=1;whiteSpace=wrap;html=1;fillColor=#99CCFF;strokeColor=#6c8ebf;" vertex="1" parent="1">
          <mxGeometry x="615" y="355" width="130" height="40" as="geometry" />
        </mxCell>
        <mxCell id="qD__XIF-DntQzB1fXjrY-58" value="Continuous integration" style="rounded=1;whiteSpace=wrap;html=1;fillColor=#99CCFF;strokeColor=#6c8ebf;" vertex="1" parent="1">
          <mxGeometry x="615" y="290" width="130" height="40" as="geometry" />
        </mxCell>
        <mxCell id="qD__XIF-DntQzB1fXjrY-59" value="CI / CD Infrastructure" style="text;html=1;align=center;verticalAlign=middle;whiteSpace=wrap;rounded=0;fontStyle=0" vertex="1" parent="1">
          <mxGeometry x="430" y="295" width="140" height="30" as="geometry" />
        </mxCell>
        <mxCell id="qD__XIF-DntQzB1fXjrY-60" value="The Open Source Tooling Group 2019" style="text;html=1;align=center;verticalAlign=middle;whiteSpace=wrap;rounded=0;" vertex="1" parent="1">
          <mxGeometry x="40" y="550" width="220" height="30" as="geometry" />
        </mxCell>
        <mxCell id="qD__XIF-DntQzB1fXjrY-62" value="Licensed under CC-BY-SA-4.0" style="text;html=1;align=center;verticalAlign=middle;whiteSpace=wrap;rounded=0;" vertex="1" parent="1">
          <mxGeometry x="390" y="550" width="220" height="30" as="geometry" />
        </mxCell>
        <mxCell id="qD__XIF-DntQzB1fXjrY-63" value="Oliver Fendt, Modified 2024 Orcro Limited" style="text;html=1;align=center;verticalAlign=middle;whiteSpace=wrap;rounded=0;" vertex="1" parent="1">
          <mxGeometry x="730" y="550" width="240" height="30" as="geometry" />
        </mxCell>
        <mxCell id="qD__XIF-DntQzB1fXjrY-64" value="" style="endArrow=none;html=1;rounded=0;fillColor=#ffe6cc;strokeColor=#d79b00;strokeWidth=4;" edge="1" parent="1">
          <mxGeometry width="50" height="50" relative="1" as="geometry">
            <mxPoint x="70" y="118.6" as="sourcePoint" />
            <mxPoint x="120" y="118.6" as="targetPoint" />
          </mxGeometry>
        </mxCell>
        <mxCell id="qD__XIF-DntQzB1fXjrY-65" value="- Integration layer (API/data)" style="text;html=1;align=center;verticalAlign=middle;whiteSpace=wrap;rounded=0;" vertex="1" parent="1">
          <mxGeometry x="122" y="103" width="158" height="30" as="geometry" />
        </mxCell>
      </root>
    </mxGraphModel>
  </diagram>
</mxfile>
